<svg viewBox="0 0 1565 880" version="1.1" xmlns="http://www.w3.org/2000/svg">
<defs>
<clipPath id="c0_12"><path d="M-.2 880.3V-.2H1565.5V880.3Z"/></clipPath>
<clipPath id="c1_12"><path d="M1210.2 723.9V512.5h217.2V723.9Z"/></clipPath>
<clipPath id="c2_12"><path d="M1112.1 619.8V409.5h209.2V619.8Z"/></clipPath>
<style>
.g0_12{fill:#FFF;}
.g1_12{fill:#001A2E;}
.g2_12{fill:#22A1E2;}
.g3_12{fill:#1C3D86;}
.g4_12{fill:#1B4189;}
.g5_12{fill:none;stroke:#69B7FF;stroke-width:3.435;stroke-miterlimit:10;}
.g6_12{fill:#000;fill-opacity:0;}
</style>
</defs>
<g clip-path="url(#c0_12)">
<path d="M0 0H1565.2V880H0V0Z" class="g0_12"/>
<path d="M0 0H1565.2V880H0V0Z" class="g1_12"/>
</g>
<path d="M203 317.6H114.3c-36.3 0-65.8-29.5-65.8-65.9c0-36.3 29.5-65.9 65.8-65.9c2.1 0 4.2 .1 6.4 .3c5.4-33.2 34.1-57.8 67.9-57.8c34.1 0 62.8 24.8 68 58.1c20.2-2.8 39.9 3.8 54.3 17.6c1.1 1.1 1.2 2.9 .1 4c-1.1 1.1-2.9 1.2-4 .1c-11.2-10.7-26-16.7-41.5-16.7c-3.6 0-7.2 .4-10.8 1c-.7 .2-1.5 0-2.1-.5c-.7-.5-1.1-1.2-1.2-1.9c-3.6-32-30.6-56.1-62.8-56.1c-31.9 0-58.9 23.9-62.7 55.7c-.1 .7-.5 1.4-1.1 1.9c-.6 .4-1.3 .7-2.1 .5c-2.8-.4-5.7-.6-8.4-.6c-33.2 0-60.2 27.1-60.2 60.3c0 33.2 27 60.3 60.2 60.3H203c1.6 0 2.9 1.2 2.9 2.8c0 1.6-1.3 2.8-2.9 2.8Z" class="g2_12"/>
<path d="M227.2 375.5H211.5c-5.1 0-9.3-4.2-9.3-9.3V213.5c0-5.1 4.2-9.2 9.3-9.2h15.7c1.6 0 2.8 1.2 2.8 2.8c0 1.5-1.2 2.8-2.8 2.8H211.5c-2 0-3.6 1.6-3.6 3.6V366.2c0 2 1.6 3.6 3.6 3.6h15.7c1.6 0 2.8 1.3 2.8 2.8c0 1.6-1.2 2.9-2.8 2.9Z" class="g3_12"/>
<path d="M348.7 366.3c0 2-1.6 3.6-3.5 3.6h-116c-2 0-3.6-1.6-3.6-3.6V213.6c0-2 1.6-3.6 3.6-3.6H323c1.1 0 2.2 .2 3.4 .6c-.2 .8-.4 1.8-.4 3v9.6c0 5.1 4.1 9.3 9.2 9.3h8.4c1.8 0 3-.5 3.9-1c.8 1.7 1.2 3.6 1.2 5.1V366.3Zm-17.1-152l11.8 12.5h-8.2c-2 0-3.6-1.6-3.6-3.6v-8.9Zm17.6 9.3l-13.3-13.8c-3-3-8.6-5.5-12.9-5.5H229.2c-5.1 0-9.2 4.2-9.2 9.3V366.3c0 5.1 4.1 9.2 9.2 9.2h116c5.1 0 9.2-4.1 9.2-9.2V236.6c0-4.3-2.3-10-5.2-13Z" class="g3_12"/>
<path d="M329.9 243h-87c-1.6 0-2.8-1.3-2.8-2.8c0-1.6 1.2-2.8 2.8-2.8h87c1.5 0 2.8 1.2 2.8 2.8c0 1.5-1.3 2.8-2.8 2.8Z" class="g2_12"/>
<path d="M329.9 258.7h-87c-1.6 0-2.8-1.2-2.8-2.8c0-1.5 1.2-2.8 2.8-2.8h87c1.5 0 2.8 1.3 2.8 2.8c0 1.6-1.3 2.8-2.8 2.8Z" class="g2_12"/>
<path d="M329.9 274.5h-87c-1.6 0-2.8-1.3-2.8-2.8c0-1.6 1.2-2.9 2.8-2.9h87c1.5 0 2.8 1.3 2.8 2.9c0 1.5-1.3 2.8-2.8 2.8Z" class="g2_12"/>
<path d="M329.9 290.2h-87c-1.6 0-2.8-1.2-2.8-2.8c0-1.6 1.2-2.8 2.8-2.8h87c1.5 0 2.8 1.2 2.8 2.8c0 1.6-1.3 2.8-2.8 2.8Z" class="g2_12"/>
<path d="M258.6 348.4h7.8V307.3h-7.8v41.1Zm10.6 5.7H255.8c-1.6 0-2.9-1.3-2.9-2.8V304.4c0-1.5 1.3-2.8 2.9-2.8h13.4c1.6 0 2.8 1.3 2.8 2.8v46.9c0 1.5-1.2 2.8-2.8 2.8Z" class="g2_12"/>
<path d="M280.9 348.4h7.9V319.7h-7.9v28.7Zm10.7 5.7H278.1c-1.5 0-2.8-1.3-2.8-2.8V316.8c0-1.5 1.3-2.8 2.8-2.8h13.5c1.5 0 2.8 1.3 2.8 2.8v34.5c0 1.5-1.3 2.8-2.8 2.8Z" class="g2_12"/>
<path d="M303.3 348.4h7.8v-17h-7.8v17Zm10.7 5.7H300.5c-1.6 0-2.8-1.3-2.8-2.8V328.6c0-1.6 1.2-2.9 2.8-2.9H314c1.5 0 2.8 1.3 2.8 2.9v22.7c0 1.5-1.3 2.8-2.8 2.8Z" class="g2_12"/>
<path clip-path="url(#c1_12)" d="M1353.5 536.4c-1.7 0-3.1-1.4-3.1-3V521.2l14.5 15.2h-11.4Zm-113 155h107.1v24.4c0 1.7-1.4 3.1-3.1 3.1H1218.6c-1.7 0-3.1-1.4-3.1-3.1V553c0-1.7 1.4-3.1 3.1-3.1h14V683.5c0 4.4 3.5 7.9 7.9 7.9Zm131.4-47.8c1.3 0 2.4-1.1 2.4-2.4V544.8c0-3.6-2-8.4-4.5-11l-15.9-16.3c-2.5-2.6-7.4-4.7-11-4.7H1240.5c-4.4 0-7.9 3.5-7.9 7.9v24.4h-14c-4.4 0-7.9 3.5-7.9 7.9V715.8c0 4.4 3.5 7.9 7.9 7.9h125.9c4.4 0 7.9-3.5 7.9-7.9V691.4h14c4.4 0 7.9-3.5 7.9-7.9V664.2c0-1.4-1.1-2.4-2.4-2.4c-1.3 0-2.4 1-2.4 2.4v19.3c0 1.7-1.4 3.1-3.1 3.1H1240.5c-1.7 0-3.1-1.4-3.1-3.1V520.7c0-1.7 1.4-3.1 3.1-3.1h102.4c.9 0 2 .3 3.1 .6c-.2 .7-.4 1.5-.4 2.5v12.7c0 4.3 3.5 7.8 7.9 7.8h11.6c1.5 0 2.5-.3 3.3-.8c.7 1.5 1.1 3.1 1.1 4.4v96.4c0 1.3 1.1 2.4 2.4 2.4Z" class="g4_12"/>
<path d="M1343.1 630.9c-4.5 5.9-11.4 9.3-18.9 9.3c-5.3 0-10.4-1.7-14.6-4.9c-10.4-8.1-12.3-23.1-4.3-33.6c4.6-5.9 11.5-9.3 19-9.3c5.3 0 10.3 1.7 14.5 5c10.4 8.1 12.4 23.1 4.3 33.5Zm-1.3-37.3c-5.1-3.9-11.2-6-17.5-6c-9 0-17.3 4.1-22.8 11.2c-9.6 12.5-7.3 30.6 5.2 40.3c5.1 3.9 11.1 5.9 17.5 5.9c9 0 17.3-4 22.7-11.1c9.7-12.6 7.4-30.6-5.1-40.3Z" class="g2_12"/>
<path d="M1421.2 688.6l-2.8 3.6c-.5 .7-1.4 1.2-2.4 1.2c-.7 0-1.3-.2-1.8-.7l-45.1-34.8c-1.3-1-1.5-2.9-.5-4.2l2.7-3.6c.6-.7 1.5-1.2 2.4-1.2c.7 0 1.4 .3 1.9 .7l45 34.8c.7 .5 1.1 1.2 1.2 2c.1 .8-.1 1.6-.6 2.2Zm-60.8-34.7c-.7 0-1.3-.2-1.8-.6c-.6-.4-1-1.2-1.1-2c-.1-.8 .1-1.6 .6-2.2l6.2-8c.5-.7 1.4-1.2 2.4-1.2c.6 0 1.3 .2 1.8 .6c1.3 1.1 1.5 3 .5 4.3l-6.2 7.9c-.5 .8-1.4 1.2-2.4 1.2Zm-57.2-10.3c-15.1-11.6-17.9-33.3-6.3-48.4c6.6-8.5 16.6-13.4 27.4-13.4c7.6 0 14.9 2.5 21 7.2c7.3 5.7 11.9 13.8 13.1 22.9c1.2 9.1-1.2 18.1-6.8 25.4l-.2 .3c-6.6 8.4-16.5 13.2-27.2 13.2c-7.7 0-15-2.5-21-7.2Zm53.3-4.7l1.9 1.5l-2.5 3.2l-1.9-1.5l1.2-1.6c0 0 .1-.1 .1-.1c.1-.1 .1-.2 .1-.2l1.1-1.3Zm70 46.9c-.2-2.1-1.3-4-2.9-5.2l-45.1-34.8c-1.2-1-2.6-1.5-4.2-1.6c.5-2.8-.5-5.7-2.9-7.5c-1.3-1-3-1.6-4.7-1.6c-1.8 0-3.6 .7-5 1.8l-2.8-2.2c3.8-7.1 5.3-15.2 4.3-23.4c-1.4-10.4-6.7-19.7-15-26.1c-6.9-5.3-15.2-8.2-23.9-8.2c-12.3 0-23.7 5.6-31.2 15.3c-13.2 17.2-10 41.9 7.1 55.1c7 5.4 15.3 8.2 24 8.2c9.9 0 19.2-3.6 26.3-10.1l2.9 2.2c-.6 1.3-.8 2.8-.7 4.2c.3 2.1 1.3 4 3 5.2c1.3 1.1 3 1.6 4.7 1.6c1.1 0 2.2-.2 3.2-.6c.5 1.4 1.3 2.7 2.6 3.6l45 34.8c1.4 1.1 3.1 1.7 4.8 1.7c2.5 0 4.7-1.1 6.2-3.1l2.8-3.5c1.3-1.7 1.8-3.7 1.5-5.8Z" class="g2_12"/>
<path d="M1340.2 555.8h-85.5c-1.3 0-2.4-1-2.4-2.4c0-1.3 1.1-2.4 2.4-2.4h85.5c1.3 0 2.4 1.1 2.4 2.4c0 1.4-1.1 2.4-2.4 2.4Z" class="g4_12"/>
<path d="M1340.2 573.8h-85.5c-1.3 0-2.4-1-2.4-2.4c0-1.3 1.1-2.4 2.4-2.4h85.5c1.3 0 2.4 1.1 2.4 2.4c0 1.4-1.1 2.4-2.4 2.4Z" class="g4_12"/>
<path d="M1340.2 664h-85.5c-1.3 0-2.4-1.1-2.4-2.4c0-1.4 1.1-2.4 2.4-2.4h85.5c1.3 0 2.4 1 2.4 2.4c0 1.3-1.1 2.4-2.4 2.4Z" class="g4_12"/>
<path d="M1283.3 591.9h-28.6c-1.3 0-2.4-1.1-2.4-2.4c0-1.4 1.1-2.4 2.4-2.4h28.6c1.3 0 2.4 1 2.4 2.4c0 1.3-1.1 2.4-2.4 2.4Z" class="g4_12"/>
<path d="M1283.3 645.9h-28.6c-1.3 0-2.4-1-2.4-2.4c0-1.3 1.1-2.4 2.4-2.4h28.6c1.3 0 2.4 1.1 2.4 2.4c0 1.4-1.1 2.4-2.4 2.4Z" class="g4_12"/>
<path d="M1279 609.9h-24.3c-1.3 0-2.4-1.1-2.4-2.4c0-1.3 1.1-2.4 2.4-2.4H1279c1.3 0 2.4 1.1 2.4 2.4c0 1.3-1.1 2.4-2.4 2.4Z" class="g4_12"/>
<path d="M1279 627.9h-24.3c-1.3 0-2.4-1.1-2.4-2.4c0-1.3 1.1-2.4 2.4-2.4H1279c1.3 0 2.4 1.1 2.4 2.4c0 1.3-1.1 2.4-2.4 2.4Z" class="g4_12"/>
<path d="M1278.2 497.8h-13c-.7 0-1.4-.3-1.9-.9c-.4-.5-.6-1.3-.4-2c.3-1.4 .4-2.9 .4-4.3c0-11.3-9.5-20.9-20.9-20.9c-11.3 0-20.9 9.6-20.9 20.9c0 1.4 .1 2.9 .4 4.3c.2 .7 0 1.5-.4 2c-.5 .6-1.2 .9-1.9 .9h-23.5c-1.3 0-2.4-1.1-2.4-2.4c0-1.3 1.1-2.4 2.4-2.4h20.7c-.1-.8-.1-1.6-.1-2.4c0-13.9 11.8-25.6 25.7-25.6c14 0 25.7 11.7 25.7 25.6c0 .8 0 1.6-.1 2.4h10.2c1.7 0 3.1-1.3 3.1-3V417.7c0-1.7-1.4-3.1-3.1-3.1h-83c-1.4 0-2.4-1-2.4-2.3c0-1.4 1-2.4 2.4-2.4h83c4.4 0 7.9 3.5 7.9 7.8V490c0 4.3-3.5 7.8-7.9 7.8Z" class="g3_12"/>
<path d="M1138.7 498.8v1.6c0 10.8 8.8 19.7 19.8 19.7c10.9 0 19.8-8.9 19.8-19.7v-1.6c-.2-1.2 .2-2.4 1-3.4c1.3-1.5 3.6-2.4 6.2-2.4h9.3c1.6 0 3-1.3 3-3v-8.5c0-1.4-.4-2.3-.6-2.5q-.1 0-.2 0h-1.7c-13.9 0-25.7-11.8-25.7-25.7c0-13.9 11.8-25.6 25.7-25.6h1.7c0 0 .1 0 .2 0c.2-.2 .6-1.1 .6-2.5v-7.6c0-1.6-1.4-3-3-3h-72.6c-1.7 0-3.1 1.4-3.1 3V490c0 1.7 1.4 3 3.1 3h9.2c2.7 0 4.9 .9 6.2 2.4c.8 1 1.2 2.2 1.1 3.4Zm19.8 26c-13.6 0-24.6-10.9-24.6-24.4v-1.7c0-.1 0-.2 0-.3c-.3-.2-1.1-.6-2.5-.6h-9.2c-4.4 0-7.9-3.5-7.9-7.8V417.6c0-4.3 3.5-7.7 7.9-7.7h72.6c4.3 0 7.8 3.4 7.8 7.7v7.6c0 4.5-2.5 7.6-5.8 7.3h-1.5c-11.3 0-20.9 9.5-20.9 20.8c0 11.3 9.6 20.9 20.9 20.9h1.5c3.3-.4 5.8 2.8 5.8 7.3V490c0 4.3-3.5 7.8-7.8 7.8h-9.3c-1.4 0-2.2 .4-2.5 .6c0 .1 0 .2 0 .3v1.7c0 13.5-11 24.4-24.5 24.4Z" class="g2_12"/>
<path d="M1120.6 524.5c-1.7 0-3.1 1.4-3.1 3.1v72.3c0 1.7 1.4 3 3.1 3h72.6c1.7 0 3-1.3 3-3v-9.2c0-4.2 2.3-7.3 5.3-7.3c.2 0 .4 0 .5 .1h1.6c10.9 0 19.8-8.9 19.8-19.8c0-10.8-8.9-19.7-19.8-19.7H1202c-1.8 .2-3.5-.7-4.6-2.5c-.8-1.3-1.2-2.9-1.2-4.7v-9.2c0-1.7-1.3-3.1-3-3.1h-8.6c-1.4 0-2.2 .5-2.5 .7c0 0 0 .1 0 .1V527c0 13.9-11.8 25.6-25.7 25.6c-13.9 0-25.7-11.7-25.7-25.6v-1.6c0-.1 0-.2 0-.2c-.3-.2-1.1-.7-2.5-.7h-7.6Zm72.6 83.2h-72.6c-4.3 0-7.8-3.5-7.8-7.8V527.6c0-4.3 3.5-7.8 7.8-7.8h7.6c2.6 0 4.9 .8 6.2 2.4c.8 .9 1.2 2.1 1.1 3.3V527c0 11.3 9.5 20.9 20.9 20.9c11.3 0 20.9-9.6 20.9-20.9v-1.5c-.1-1.2 .3-2.4 1.1-3.3c1.3-1.6 3.6-2.4 6.2-2.4h8.6c4.3 0 7.8 3.5 7.8 7.8v9.2c0 1.4 .4 2.2 .7 2.5c0-.1 .1-.1 .2-.1h1.7c13.5 0 24.6 11 24.6 24.5c0 13.5-11.1 24.5-24.6 24.5h-1.7c-.1 0-.2 0-.2 0c-.3 .3-.7 1.1-.7 2.5v9.2c0 4.3-3.5 7.8-7.8 7.8Z" class="g3_12"/>
<path clip-path="url(#c2_12)" d="M1237.9 601.7c-.2 .3-.6 1.1-.6 2.5v7.6c0 1.7 1.3 3 3 3h72.6c1.7 0 3.1-1.3 3.1-3V539.4c0-1.6-1.4-3-3.1-3h-9.2c-2.7 0-4.9-.9-6.2-2.4c-.9-1-1.2-2.2-1.1-3.4v-1.5c0-10.9-8.9-19.8-19.8-19.8c-10.9 0-19.8 8.9-19.8 19.8v1.5c.2 1.2-.2 2.4-1 3.4c-1.3 1.5-3.6 2.4-6.2 2.4h-9.3c-1.7 0-3 1.4-3 3V548c0 1.4 .4 2.2 .6 2.5q.1 0 .2 0h1.6c14 0 25.8 11.7 25.8 25.6c0 13.9-11.8 25.6-25.8 25.6h-1.6c0 0-.1 0-.2 0Zm75 17.9h-72.6c-4.3 0-7.8-3.5-7.8-7.8v-7.6c0-4.4 2.5-7.6 5.7-7.3h1.5c11.4 0 21-9.5 21-20.8c0-11.3-9.6-20.9-21-20.9h-1.5c-3.2 .4-5.7-2.8-5.7-7.2v-8.6c0-4.3 3.5-7.8 7.8-7.8h9.3c1.4 0 2.2-.4 2.5-.6c-.1-.1-.1-.2-.1-.2v-1.7c0-13.5 11.1-24.5 24.6-24.5c13.6 0 24.6 11 24.6 24.5v1.6c0 .1 0 .2 0 .3c.2 .2 1.1 .6 2.5 .6h9.2c4.3 0 7.8 3.5 7.8 7.8v72.4c0 4.3-3.5 7.8-7.8 7.8Z" class="g2_12"/>
<image clip-path="url(#c0_12)" preserveAspectRatio="none" x="43" y="131" width="419" height="239" href="img/1.png"/>
<path d="M1159.9 100.2c-.1 1.3-.3 2.4-.6 3.5c-.4 1-.8 1.9-1.3 2.7c-.5 .8-1 1.5-1.5 2.1c-.6 .6-1.2 1.1-1.7 1.4c-1.6 1.1-3.4 1.8-5.5 2.1c-2 .3-4.1 .4-6.1 .4c-1.2 0-2.4 0-3.7-.1c-1.2-.1-2.5-.3-3.7-.6c-1.2-.3-2.4-.7-3.6-1.3c-1.1-.6-2.2-1.4-3.2-2.4c-1-.9-1.8-1.9-2.4-3c-.6-1-1.1-2.1-1.4-3.2c-.3-1.1-.6-2.1-.7-3.2c-.1-1-.2-2-.2-3c0-1 .1-2 .2-3.1c.1-1.1 .4-2.1 .7-3.2c.3-1 .8-2.1 1.4-3.1c.6-1 1.3-1.9 2.2-2.9c1-1 2.1-1.8 3.3-2.5c1.2-.6 2.4-1.1 3.6-1.4c1.2-.4 2.4-.6 3.5-.7c1.2-.1 2.3-.2 3.3-.2c.5 0 1.3 .1 2.3 .1c1 0 2.1 .2 3.3 .4c1.2 .1 2.4 .4 3.6 .8c1.2 .4 2.3 .9 3.3 1.6c.4 .3 .9 .6 1.4 1.1c.5 .5 1 1.1 1.5 1.8c.5 .7 .9 1.6 1.2 2.5c.3 1 .5 2.1 .5 3.4h-8.8c0-.8-.2-1.5-.6-2.2c-.3-.7-.9-1.2-1.7-1.8c-.9-.5-1.8-.9-2.8-1c-.9-.2-1.8-.3-2.6-.3c-1.2 0-2.4 .2-3.6 .5c-1.2 .2-2.3 .9-3.4 2.1c-.6 .7-1.2 1.7-1.8 2.9c-.5 1.3-.8 3-.8 5.2c0 2.1 .3 3.8 .8 5.1c.6 1.3 1.2 2.3 1.9 3c1.1 1 2.2 1.7 3.4 1.9c1.3 .3 2.4 .4 3.5 .4c.4 0 .8 0 1.3 0c.5 0 1-.1 1.5-.2c.5-.1 1-.2 1.5-.3c.5-.2 .9-.4 1.3-.7c.5-.4 1-.9 1.5-1.7c.5-.7 .8-1.7 .9-2.9h8.8Zm23.8-15.3c-1.1 0-2.2 .1-3.5 .4c-1.2 .3-2.4 1-3.5 2.1c-.7 .6-1.2 1.3-1.6 2.1c-.3 .7-.6 1.5-.8 2.2c-.2 .7-.4 1.4-.4 2.1c-.1 .6-.1 1.2-.1 1.6c0 .5 0 1.1 .1 1.7c0 .7 .2 1.4 .4 2.1c.2 .7 .5 1.5 .8 2.2c.4 .8 .9 1.5 1.6 2.1c1.1 1.1 2.3 1.8 3.5 2c1.3 .3 2.4 .5 3.5 .5c1 0 2.2-.2 3.4-.5c1.3-.2 2.4-.9 3.5-2c.7-.6 1.2-1.3 1.6-2.1c.4-.7 .7-1.5 .9-2.2c.2-.7 .3-1.4 .4-2.1c0-.6 .1-1.2 .1-1.7c0-.4-.1-1-.1-1.6c-.1-.7-.2-1.4-.4-2.1c-.2-.7-.5-1.5-.9-2.2c-.4-.8-.9-1.5-1.6-2.1c-1.1-1.1-2.2-1.8-3.5-2.1c-1.2-.3-2.4-.4-3.4-.4Zm19 10.5c0 1 0 2-.2 3c-.1 1.1-.3 2.1-.7 3.2c-.3 1-.9 2.1-1.5 3.1c-.7 1.1-1.5 2.1-2.6 3c-.6 .6-1.3 1.1-2.2 1.7c-.8 .5-1.8 1-3 1.5c-1.1 .4-2.4 .8-3.9 1.1c-1.4 .2-3.1 .4-4.9 .4c-1.9 0-3.5-.2-5-.4c-1.4-.3-2.7-.7-3.9-1.1c-1.1-.5-2.1-1-3-1.5c-.8-.6-1.5-1.1-2.1-1.7c-1.1-.9-2-1.9-2.6-3c-.7-1-1.2-2.1-1.6-3.1c-.3-1.1-.6-2.1-.7-3.2c-.1-1-.2-2-.2-3c0-.9 .1-1.9 .2-2.9c.1-1.1 .4-2.1 .7-3.2c.4-1 .9-2.1 1.6-3.1c.6-1 1.5-2.1 2.6-3c.6-.6 1.3-1.1 2.1-1.7c.9-.5 1.9-1 3-1.5c1.2-.4 2.5-.8 3.9-1.1c1.5-.3 3.1-.4 5-.4c1.8 0 3.5 .1 4.9 .4c1.5 .3 2.8 .7 3.9 1.1c1.2 .5 2.2 1 3 1.5c.9 .6 1.6 1.1 2.2 1.7c1.1 .9 1.9 2 2.6 3c.6 1 1.2 2.1 1.5 3.1c.4 1.1 .6 2.1 .7 3.2c.2 1 .2 2 .2 2.9Zm15.5-7.8h-.3l.3 2.7v21.2h-8.4V79.4h11.9l9.1 23.3h.2l9.1-23.3H1252v32.1h-8.5V90.3l.4-2.7h-.4l-9.6 23.9h-6.1l-9.6-23.9Zm50.8 7.1h7.6c.4 0 .8-.1 1.3-.1c.5 0 .9-.1 1.4-.2c.4-.1 .9-.2 1.3-.4c.4-.2 .7-.4 1-.7c.3-.3 .6-.8 .9-1.3c.2-.6 .3-1.2 .3-2c0-.8-.1-1.4-.4-2c-.3-.5-.7-.9-1.2-1.3c-.1-.1-.5-.3-1.1-.5c-.7-.3-1.6-.4-3-.4H1269v8.9Zm8.8-15.3c1.1 0 2.1 0 3.1 .1c1 .1 1.9 .2 2.8 .4c.9 .2 1.8 .5 2.6 .9c.8 .3 1.5 .9 2.2 1.5c.6 .6 1.1 1.2 1.5 1.8c.4 .6 .7 1.3 1 2c.2 .6 .3 1.3 .4 1.9c.1 .7 .1 1.3 .1 1.9c0 1.3-.2 2.6-.5 3.9c-.3 1.3-1 2.6-2.1 3.7c-.7 .8-1.6 1.5-2.4 1.9c-.9 .4-1.8 .8-2.8 1c-1 .2-2 .4-3.1 .4c-1.1 .1-2.2 .1-3.4 .1H1269v10.6h-8.4V79.4h17.2Zm45.9 32.1h-25.9V79.4h8.4V105h17.5v6.5Zm14.1-32.1v32.1h-8.4V79.4h8.4ZM1366 99.5l-4.9-12l-4.9 12h9.8Zm-14.6 12h-8.8l14.3-32.1h8.3l14.4 32.1h-8.8L1368 105h-13.9l-2.7 6.5Zm65.5 0h-8.1l-16.2-21.6v21.6h-8.5V79.4h8.3l16.1 21.5V79.4h8.4v32.1Zm42.7-11.3c-.1 1.3-.3 2.4-.6 3.5c-.3 1-.8 1.9-1.3 2.7c-.4 .8-1 1.5-1.5 2.1c-.6 .6-1.1 1.1-1.7 1.4c-1.6 1.1-3.4 1.8-5.5 2.1c-2 .3-4 .4-6.1 .4c-1.2 0-2.4 0-3.6-.1c-1.3-.1-2.5-.3-3.8-.6c-1.2-.3-2.4-.7-3.5-1.3c-1.2-.6-2.3-1.4-3.3-2.4c-1-.9-1.8-1.9-2.4-3c-.6-1-1-2.1-1.4-3.2c-.3-1.1-.6-2.1-.7-3.2c-.1-1-.2-2-.2-3c0-1 .1-2 .2-3.1c.1-1.1 .4-2.1 .7-3.2c.4-1 .8-2.1 1.4-3.1c.6-1 1.3-1.9 2.2-2.9c1-1 2.1-1.8 3.3-2.5c1.2-.6 2.4-1.1 3.6-1.4c1.2-.4 2.4-.6 3.5-.7c1.2-.1 2.3-.2 3.3-.2c.5 0 1.3 .1 2.3 .1c1.1 0 2.2 .2 3.4 .4c1.2 .1 2.4 .4 3.6 .8c1.2 .4 2.3 .9 3.2 1.6c.5 .3 .9 .6 1.4 1.1c.6 .5 1.1 1.1 1.5 1.8c.5 .7 .9 1.6 1.2 2.5c.3 1 .5 2.1 .6 3.4h-8.8c-.1-.8-.3-1.5-.7-2.2c-.3-.7-.9-1.2-1.7-1.8c-.9-.5-1.8-.9-2.7-1c-1-.2-1.9-.3-2.7-.3c-1.2 0-2.4 .2-3.5 .5c-1.2 .2-2.4 .9-3.4 2.1c-.7 .7-1.3 1.7-1.8 2.9c-.6 1.3-.9 3-.9 5.2c0 2.1 .3 3.8 .9 5.1c.5 1.3 1.2 2.3 1.9 3c1 1 2.2 1.7 3.4 1.9c1.2 .3 2.3 .4 3.4 .4c.4 0 .9 0 1.3 0c.5 0 1-.1 1.5-.2c.5-.1 1-.2 1.5-.3c.5-.2 .9-.4 1.3-.7c.5-.4 1-.9 1.5-1.7c.5-.7 .8-1.7 .9-2.9h8.8Zm32.3-8.1v6.1h-17.6v6.9h21.3v6.4h-29.7V79.4h29.2v6.4h-20.8v6.3h17.6Z" class="g5_12"/>
<g clip-path="url(#c0_12)">
<image preserveAspectRatio="none" x="1074" y="0" width="474" height="131" href="img/2.png"/>
<image preserveAspectRatio="none" x="5" y="787" width="418" height="77" href="img/3.png"/>
<image preserveAspectRatio="none" x="0" y="695" width="348" height="166" href="img/4.png"/>
<image preserveAspectRatio="none" x="932" y="409" width="426" height="299" href="img/5.png"/>
<image preserveAspectRatio="none" x="459" y="145" width="668" height="239" href="img/6.png"/>
<image preserveAspectRatio="none" x="49" y="429" width="810" height="281" href="img/7.png"/>
</g>
<path d="M48.5 375.2h306V128.1H48.5V375.2Z" class="g6_12"/>
<path d="M1112.4 620h208.3V409.8H1112.4V620Z" class="g6_12"/>
<path d="M1210.5 723.1h216.2V512.8H1210.5V723.1Z" class="g6_12"/>
</svg>