<svg viewBox="0 0 1565 880" version="1.1" xmlns="http://www.w3.org/2000/svg">
<defs>
<clipPath id="c0_9"><path d="M-.2 880.3V-.2H1565.5V880.3Z"/></clipPath>
<clipPath id="c1_9"><path d="M208.5 233.2V124.9H319.1V233.2Z"/></clipPath>
<clipPath id="c2_9"><path d="M92.8 234.4V124.9H201.2V234.4Z"/></clipPath>
<clipPath id="c3_9"><path d="M92.8 353.1V244.8h92.4V353.1Z"/></clipPath>
<clipPath id="c4_9"><path d="M463.8 403.5V282.6H569.9V403.5Z"/></clipPath>
<clipPath id="c5_9"><path d="M633.8 359.1V234.7H804.1V359.1Z"/></clipPath>
<clipPath id="c6_9"><path d="M892.3 419.4V267.5H1082V419.4Z"/></clipPath>
<clipPath id="c7_9"><path d="M1308 613.2V438.4h173.6V613.2Z"/></clipPath>
<clipPath id="c8_9"><path d="M369.2 525.8L261 417.6L372.4 306.1L480.6 414.3L369.2 525.8Z"/></clipPath>
<clipPath id="c9_9"><path d="M516.8 242L368.5 173.6l44.4-96.3l148.3 68.4L516.8 242Z"/></clipPath>
<clipPath id="ca_9"><path d="M1266.9 358.1L1161.4 233.4l81-68.5l105.5 124.7l-81 68.5Z"/></clipPath>
<style>
.g0_9{fill:#FFF;}
.g1_9{fill:#001A2E;}
.g2_9{fill:#1B4189;}
.g3_9{fill:#22A1E2;}
.g4_9{fill:#1C3D86;}
.g5_9{fill:none;stroke:#5D9AD0;stroke-width:3.889;stroke-miterlimit:10;}
.g6_9{fill:#FF3131;}
.g7_9{fill:#FF914D;}
.g8_9{fill:none;stroke:#69B7FF;stroke-width:3.435;stroke-miterlimit:10;}
.g9_9{fill:#000;fill-opacity:0;}
</style>
</defs>
<g clip-path="url(#c0_9)">
<path d="M0 0H1565.2V880H0V0Z" class="g0_9"/>
<path d="M0 0H1565.2V880H0V0Z" class="g1_9"/>
</g>
<path clip-path="url(#c1_9)" d="M281.4 137.3c-.8 0-1.5-.7-1.5-1.6v-6.2l7.3 7.8h-5.8ZM224 216.5h54.4v12.4c0 .9-.7 1.6-1.5 1.6h-64c-.9 0-1.6-.7-1.6-1.6V145.7c0-.8 .7-1.5 1.6-1.5H220v68.2c0 2.3 1.8 4.1 4 4.1ZM290.8 192c.6 0 1.2-.5 1.2-1.2V141.6c0-1.9-1-4.3-2.3-5.7l-8.1-8.3c-1.3-1.3-3.7-2.4-5.6-2.4H224c-2.2 0-4 1.8-4 4v12.5h-7.1c-2.2 0-4 1.8-4 4v83.2c0 2.3 1.8 4.1 4 4.1h64c2.2 0 4-1.8 4-4.1V216.5H288c2.2 0 4-1.8 4-4.1v-9.9c0-.6-.6-1.2-1.2-1.2c-.7 0-1.3 .6-1.3 1.2v9.9c0 .9-.7 1.6-1.5 1.6H224c-.8 0-1.5-.7-1.5-1.6V129.2c0-.8 .7-1.5 1.5-1.5h52c.5 0 1.1 .1 1.6 .3c-.1 .3-.2 .7-.2 1.2v6.5c0 2.2 1.8 4 4 4h5.9c.8 0 1.3-.1 1.7-.4c.3 .8 .5 1.6 .5 2.3v49.2c0 .7 .6 1.2 1.3 1.2Z" class="g2_9"/>
<path d="M276.2 185.6c-2.4 3-5.9 4.7-9.7 4.7c-2.7 0-5.2-.9-7.4-2.5c-5.3-4.1-6.2-11.8-2.1-17.2c2.3-3 5.8-4.7 9.6-4.7c2.7 0 5.2 .9 7.4 2.5c5.3 4.2 6.2 11.8 2.2 17.2Zm-.7-19.1c-2.6-2-5.7-3.1-8.9-3.1c-4.6 0-8.8 2.1-11.6 5.7c-4.9 6.4-3.7 15.7 2.6 20.6c2.6 2 5.7 3.1 8.9 3.1c4.6 0 8.8-2.1 11.6-5.7c4.9-6.4 3.7-15.7-2.6-20.6Z" class="g3_9"/>
<path d="M315.8 215.1l-1.4 1.8c-.3 .3-.7 .6-1.2 .6c-.4 0-.7-.1-1-.4l-22.8-17.7c-.7-.6-.8-1.5-.3-2.2l1.4-1.8c.3-.4 .7-.6 1.2-.6c.4 0 .7 .1 .9 .3l22.9 17.8c.3 .2 .6 .6 .6 1c.1 .4-.1 .8-.3 1.2Zm-30.9-17.8c-.3 0-.6-.1-.9-.3c-.3-.2-.5-.6-.5-1c-.1-.4 0-.8 .3-1.2l3.1-4c.3-.4 .7-.6 1.2-.6c.4 0 .7 .1 .9 .3c.7 .5 .8 1.5 .3 2.1l-3.1 4.1c-.3 .4-.8 .6-1.3 .6Zm-29-5.2c-7.7-6-9.1-17.1-3.2-24.8c3.3-4.3 8.4-6.8 13.9-6.8c3.9 0 7.6 1.3 10.7 3.7c3.7 2.8 6 7 6.6 11.7c.6 4.6-.6 9.2-3.4 12.9l-.1 .2c-3.4 4.3-8.4 6.7-13.9 6.7c-3.9 0-7.6-1.2-10.6-3.6Zm27-2.5l1 .8l-1.3 1.6l-.9-.7l.6-.8q0-.1 0-.1c.1 0 .1-.1 .1-.1l.5-.7Zm35.6 24c-.1-1.1-.7-2-1.5-2.7l-22.9-17.8c-.6-.4-1.3-.7-2.1-.8c.2-1.4-.3-2.8-1.5-3.8c-.7-.5-1.5-.8-2.4-.8c-.9 0-1.8 .3-2.5 .9l-1.4-1.1c1.9-3.6 2.7-7.8 2.1-12c-.6-5.3-3.3-10-7.6-13.3c-3.5-2.7-7.7-4.2-12.1-4.2c-6.3 0-12 2.9-15.8 7.8c-6.8 8.8-5.1 21.4 3.6 28.2c3.5 2.7 7.7 4.2 12.1 4.2c5.1 0 9.8-1.9 13.4-5.2l1.5 1.2c-.3 .6-.5 1.4-.4 2.1c.2 1.1 .7 2 1.5 2.7c.7 .5 1.6 .8 2.4 .8c.6 0 1.1-.1 1.6-.4c.3 .8 .7 1.4 1.4 1.9l22.8 17.8c.7 .5 1.6 .8 2.5 .8c1.2 0 2.4-.5 3.1-1.5l1.4-1.8c.7-.9 1-1.9 .8-3Z" class="g3_9"/>
<path d="M274.7 147.2H231.3c-.7 0-1.3-.5-1.3-1.2c0-.7 .6-1.3 1.3-1.3h43.4c.6 0 1.2 .6 1.2 1.3c0 .7-.6 1.2-1.2 1.2Z" class="g2_9"/>
<path d="M274.7 156.4H231.3c-.7 0-1.3-.5-1.3-1.2c0-.7 .6-1.2 1.3-1.2h43.4c.6 0 1.2 .5 1.2 1.2c0 .7-.6 1.2-1.2 1.2Z" class="g2_9"/>
<path d="M274.7 202.4H231.3c-.7 0-1.3-.5-1.3-1.2c0-.7 .6-1.2 1.3-1.2h43.4c.6 0 1.2 .5 1.2 1.2c0 .7-.6 1.2-1.2 1.2Z" class="g2_9"/>
<path d="M245.8 165.6H231.3c-.7 0-1.3-.5-1.3-1.2c0-.7 .6-1.2 1.3-1.2h14.5c.7 0 1.2 .5 1.2 1.2c0 .7-.5 1.2-1.2 1.2Z" class="g2_9"/>
<path d="M245.8 193.2H231.3c-.7 0-1.3-.5-1.3-1.2c0-.7 .6-1.2 1.3-1.2h14.5c.7 0 1.2 .5 1.2 1.2c0 .7-.5 1.2-1.2 1.2Z" class="g2_9"/>
<path d="M243.6 174.8H231.3c-.7 0-1.3-.5-1.3-1.2c0-.7 .6-1.2 1.3-1.2h12.3c.7 0 1.2 .5 1.2 1.2c0 .7-.5 1.2-1.2 1.2Z" class="g2_9"/>
<path d="M243.6 184H231.3c-.7 0-1.3-.5-1.3-1.2c0-.7 .6-1.2 1.3-1.2h12.3c.7 0 1.2 .5 1.2 1.2c0 .7-.5 1.2-1.2 1.2Z" class="g2_9"/>
<path d="M106.9 220.5h3.4V202.8h-3.4v17.7Zm4.6 2.4h-5.8c-.6 0-1.2-.6-1.2-1.2V201.6c0-.7 .6-1.3 1.2-1.3h5.8c.7 0 1.2 .6 1.2 1.3v20.1c0 .6-.5 1.2-1.2 1.2Z" class="g3_9"/>
<path d="M116.5 220.5h3.4V208.1h-3.4v12.4Zm4.6 2.4h-5.8c-.6 0-1.2-.6-1.2-1.2V206.9c0-.7 .6-1.2 1.2-1.2h5.8c.7 0 1.2 .5 1.2 1.2v14.8c0 .6-.5 1.2-1.2 1.2Z" class="g3_9"/>
<path d="M126.1 220.5h3.4v-7.4h-3.4v7.4Zm4.6 2.4h-5.8c-.6 0-1.2-.6-1.2-1.2v-9.8c0-.6 .6-1.2 1.2-1.2h5.8c.7 0 1.2 .6 1.2 1.2v9.8c0 .6-.5 1.2-1.2 1.2Z" class="g3_9"/>
<path d="M117.6 163.3v-8.4h8.2c-.5 4.4-3.9 7.8-8.2 8.4ZM107 154.9h8.2v8.4c-4.3-.6-7.7-4-8.2-8.4Zm8.2-10.4v8H107c.7-4.2 4-7.5 8.2-8Zm10.5 8h-8.1v-8c4.2 .5 7.5 3.8 8.1 8Zm-9.3-10.6c-6.6 .1-11.9 5.4-11.9 12c0 6.5 5.3 11.9 11.9 11.9c6.5 0 11.9-5.4 11.9-11.9c0-6.6-5.4-11.9-11.9-12Z" class="g3_9"/>
<path d="M105.7 194.9c-.2 0-.4-.1-.6-.2c-.6-.4-.8-1.1-.4-1.7l5.2-8.2c.2-.4 .6-.6 1-.6h4.8l3.8-7.6c.2-.4 .7-.7 1.1-.7h5.9c.7 0 1.3 .6 1.3 1.3c0 .6-.6 1.2-1.3 1.2h-5.1l-3.8 7.6c-.2 .4-.6 .6-1.1 .6h-4.9l-4.9 7.7c-.2 .4-.6 .6-1 .6Z" class="g3_9"/>
<path d="M123.1 182.7c-.4 0-.7-.2-1-.4c-.4-.6-.3-1.3 .2-1.8l4.2-3.5l-4.3-3.4c-.5-.4-.6-1.2-.2-1.7c.4-.5 1.2-.6 1.7-.2l5.5 4.3c.2 .3 .4 .6 .4 1c0 .3-.1 .7-.4 .9l-5.3 4.5c-.3 .2-.5 .3-.8 .3Z" class="g3_9"/>
<path d="M164.1 148H139c-.7 0-1.2-.6-1.2-1.2c0-.7 .5-1.3 1.2-1.3h25.1c.7 0 1.3 .6 1.3 1.3c0 .6-.6 1.2-1.3 1.2Z" class="g4_9"/>
<path d="M164.1 155.1H139c-.7 0-1.2-.6-1.2-1.2c0-.7 .5-1.3 1.2-1.3h25.1c.7 0 1.3 .6 1.3 1.3c0 .6-.6 1.2-1.3 1.2Z" class="g4_9"/>
<path d="M164.1 162.2H139c-.7 0-1.2-.6-1.2-1.2c0-.7 .5-1.2 1.2-1.2h25.1c.7 0 1.3 .5 1.3 1.2c0 .6-.6 1.2-1.3 1.2Z" class="g4_9"/>
<path d="M164.1 177.3H139c-.7 0-1.2-.6-1.2-1.2c0-.7 .5-1.3 1.2-1.3h25.1c.7 0 1.3 .6 1.3 1.3c0 .6-.6 1.2-1.3 1.2Z" class="g4_9"/>
<path d="M164.1 184.4H139c-.7 0-1.2-.6-1.2-1.2c0-.7 .5-1.2 1.2-1.2h25.1c.7 0 1.3 .5 1.3 1.2c0 .6-.6 1.2-1.3 1.2Z" class="g4_9"/>
<path d="M164.1 191.5H139c-.7 0-1.2-.6-1.2-1.2c0-.7 .5-1.2 1.2-1.2h25.1c.7 0 1.3 .5 1.3 1.2c0 .6-.6 1.2-1.3 1.2Z" class="g4_9"/>
<path d="M164.1 208.7H139c-.7 0-1.2-.6-1.2-1.2c0-.7 .5-1.3 1.2-1.3h25.1c.7 0 1.3 .6 1.3 1.3c0 .6-.6 1.2-1.3 1.2Z" class="g4_9"/>
<path d="M164.1 215.8H139c-.7 0-1.2-.6-1.2-1.2c0-.7 .5-1.2 1.2-1.2h25.1c.7 0 1.3 .5 1.3 1.2c0 .6-.6 1.2-1.3 1.2Z" class="g4_9"/>
<path d="M164.1 222.9H139c-.7 0-1.2-.6-1.2-1.2c0-.7 .5-1.2 1.2-1.2h25.1c.7 0 1.3 .5 1.3 1.2c0 .6-.6 1.2-1.3 1.2Z" class="g4_9"/>
<path clip-path="url(#c2_9)" d="M173.7 234.1H97.1c-2.2 0-3.9-1.8-3.9-4V129.2c0-2.1 1.7-3.9 3.9-3.9h62.5c1.9 0 4.3 1 5.5 2.3l10.4 10.8c1.2 1.3 2.2 3.8 2.2 5.6v27.8c0 .6-.5 1.2-1.2 1.2c-.7 0-1.2-.6-1.2-1.2V144c0-1.2-.7-3-1.6-3.9l-10.3-10.8c-.8-.8-2.6-1.6-3.8-1.6H97.1c-.8 0-1.5 .7-1.5 1.5V230.1c0 .8 .7 1.5 1.5 1.5h76.6c.9 0 1.6-.7 1.6-1.5v-37c0-.6 .5-1.2 1.2-1.2c.7 0 1.2 .6 1.2 1.2v37c0 2.2-1.8 4-4 4Z" class="g4_9"/>
<path d="M164.2 130.2v8.7c0 .8 .7 1.5 1.5 1.5h8l-9.5-10.2Zm9.5 12.6h-8c-2.1 0-3.9-1.8-3.9-3.9v-9c0-1.9 1-2.6 2-2.6c.6 0 1.3 .4 2 1.1l9.7 10.4c1.1 1.2 1 2.2 .7 2.7c-.2 .5-.8 1.3-2.5 1.3Z" class="g4_9"/>
<path d="M173 197l-5.5-2.6l23.9-52L197 145l-24 52Zm-5.3 4.3l-.4-4.2l3.8 1.7l-3.4 2.5Zm27.1-62.4c.4 0 .9 .2 1.4 .4c.9 .4 1.4 .9 1.6 1.6c.2 .6 .2 1.3 .1 1.8l-2.3-1l-3.1-1.5c.5-.6 1.3-1.3 2.3-1.3Zm5.3 1.2c-.4-1.3-1.4-2.3-2.9-3c-.8-.4-1.6-.6-2.4-.6c-3.4 0-4.9 3.4-5.1 3.8l-24.9 54.2c-.2 .3-.2 .6-.1 .9q0 .1 .1 .1l.6 8.1c.1 .4 .3 .8 .7 1c.2 .1 .4 .1 .6 .1c.2 0 .4-.1 .7-.2l6.5-4.7c.3-.1 .7-.3 .8-.7l25-54.2c.1-.2 1.2-2.5 .4-4.8Z" class="g3_9"/>
<path d="M167.3 302.3c-.7 0-1.2-.5-1.2-1.2V259.2c0-1.2-.8-3-1.6-3.8l-6-6.3c-.8-.8-2.6-1.6-3.7-1.6H113c-.8 0-1.5 .7-1.5 1.5v51.8c0 .7-.5 1.2-1.2 1.2c-.7 0-1.2-.5-1.2-1.2V249c0-2.1 1.7-3.9 3.9-3.9h41.8c1.8 0 4.2 1 5.4 2.3l6 6.3c1.3 1.3 2.3 3.7 2.3 5.5v41.9c0 .7-.6 1.2-1.2 1.2Z" class="g3_9"/>
<path d="M159.1 249.3v4.2c0 .9 .7 1.6 1.5 1.6h3.9l-5.4-5.8Zm5.4 8.2h-3.9c-2.1 0-3.9-1.8-3.9-4V249c0-1.9 1.1-2.5 2-2.5c.6 0 1.3 .3 1.9 1l5.7 6c1.1 1.2 .9 2.2 .7 2.7c-.2 .4-.8 1.3-2.5 1.3Z" class="g3_9"/>
<path d="M128.3 272.1c-.9 0-1.7-.2-2.5-.5l2.9-5.3h6.4c-.5 3.3-3.4 5.8-6.8 5.8Zm-6.9-6.9c0-2.2 1-4.1 2.5-5.4l2.7 5.4l-2.8 5.2c-1.5-1.3-2.4-3.2-2.4-5.2Zm13.6-1.3h-6.4l-2.6-5.2c.7-.3 1.5-.4 2.3-.4c3.3 0 6.1 2.4 6.7 5.6Zm-6.7-8c-1.6 0-3.1 .4-4.4 1.1h-.1c0 0-.1 .1-.2 .2c-2.7 1.6-4.6 4.6-4.6 8c0 5.1 4.2 9.3 9.3 9.3c5.1 0 9.3-4.2 9.3-9.3c0-5.2-4.2-9.3-9.3-9.3Z" class="g4_9"/>
<path d="M151 272v-5.6h5.4c-.4 2.8-2.6 5.1-5.4 5.6Zm-7.8-5.6h5.4V272c-2.8-.5-4.9-2.8-5.4-5.6Zm5.4-7.7V264h-5.4c.6-2.7 2.7-4.8 5.4-5.3Zm7.8 5.3H151v-5.3c2.7 .5 4.9 2.6 5.4 5.3Zm-6.6-7.8c-5 0-9.1 4.1-9.1 9.1c0 5.1 4.1 9.2 9.1 9.2c5 0 9.1-4.1 9.1-9.2c0-5-4.1-9.1-9.1-9.1Z" class="g4_9"/>
<path d="M156.8 280.5H121.1c-.7 0-1.2-.5-1.2-1.2c0-.6 .5-1.2 1.2-1.2h35.7c.7 0 1.2 .6 1.2 1.2c0 .7-.5 1.2-1.2 1.2Z" class="g3_9"/>
<path d="M156.8 285.4H121.1c-.7 0-1.2-.5-1.2-1.2c0-.6 .5-1.2 1.2-1.2h35.7c.7 0 1.2 .6 1.2 1.2c0 .7-.5 1.2-1.2 1.2Z" class="g3_9"/>
<path d="M156.8 290.3H121.1c-.7 0-1.2-.5-1.2-1.2c0-.6 .5-1.2 1.2-1.2h35.7c.7 0 1.2 .6 1.2 1.2c0 .7-.5 1.2-1.2 1.2Z" class="g3_9"/>
<path d="M156.8 295.3H121.1c-.7 0-1.2-.6-1.2-1.2c0-.7 .5-1.2 1.2-1.2h35.7c.7 0 1.2 .5 1.2 1.2c0 .6-.5 1.2-1.2 1.2Z" class="g3_9"/>
<path d="M128.2 313.7c-.7 0-1.2-.5-1.2-1.2V299.7h-3.7v8.5c0 .6-.5 1.2-1.2 1.2c-.6 0-1.2-.6-1.2-1.2v-9.7c0-.7 .6-1.2 1.2-1.2h6.1c.6 0 1.2 .5 1.2 1.2v14c0 .7-.6 1.2-1.2 1.2Z" class="g4_9"/>
<path d="M150.1 313.8c-.7 0-1.2-.5-1.2-1.2v-6.2c0-.6 .5-1.2 1.2-1.2h7.6c.7 0 1.2 .6 1.2 1.2c0 .7-.5 1.2-1.2 1.2h-6.4v5c0 .7-.5 1.2-1.2 1.2Z" class="g4_9"/>
<path d="M132.6 311.4h3.7v-8.5h-3.7v8.5Zm4.9 2.4h-6.1c-.6 0-1.1-.5-1.1-1.2V301.7c0-.7 .5-1.2 1.1-1.2h6.1c.6 0 1.2 .5 1.2 1.2v10.9c0 .7-.6 1.2-1.2 1.2Z" class="g4_9"/>
<path d="M142 311.4h3.6V299.9H142v11.5Zm4.8 2.4h-6c-.7 0-1.2-.5-1.2-1.2V298.7c0-.7 .5-1.2 1.2-1.2h6c.7 0 1.2 .5 1.2 1.2v13.9c0 .7-.5 1.2-1.2 1.2Z" class="g4_9"/>
<path clip-path="url(#c3_9)" d="M182.4 348.9c0 0-.1-.1-.2-.2l-40.4-28.1c-.3-.2-.6-.4-.9-.5c.5-.2 .9-.4 1.3-.6l39.9-26.7c.1 0 .2-.1 .3-.2v56.3Zm-84.1 1.2l39.1-27.6c.4-.2 .9-.4 1.5-.4c.6 0 1.2 .2 1.5 .4l39.5 27.6H98.3ZM96 348.7c-.1 .1-.2 .2-.4 .3c0 0 0-.1 0-.1V292.5c.2 .1 .3 .2 .5 .3l40.3 26.7c.3 .2 .6 .3 .9 .4c-.5 .2-.9 .4-1.3 .7L96 348.7Zm88.8-58.6c0-.3-.2-.7-.4-.9l-15.7-12.9c-.1 0-.2-.1-.3-.1v3l12.1 9.9H168.4v2.4h11.4l-38.9 26c-.8 .5-2.3 .5-3.2 0L98.5 291.6c1.8 0 5.3 0 10.6 0v-2.4c-6.7 0-10.6-.1-11.6-.1l11.7-9.6v-3.1L93.6 289.2c-.3 .3-.4 .8-.4 1.2v58.5c0 2.1 1.8 3.9 3.9 3.9h83.8c2.2 0 3.9-1.8 3.9-3.9V290.3q0-.1 0-.2Z" class="g4_9"/>
<path d="M264.6 327.6H226.1c-15.8 0-28.6-12.9-28.6-28.7c0-15.8 12.8-28.7 28.6-28.7c.9 0 1.8 0 2.8 .1c2.3-14.4 14.8-25.1 29.5-25.1c14.8 0 27.2 10.7 29.5 25.3c8.8-1.2 17.3 1.6 23.6 7.6c.5 .5 .5 1.3 0 1.8c-.4 .4-1.2 .5-1.7 0c-4.9-4.7-11.3-7.3-18-7.3c-1.6 0-3.1 .2-4.7 .5c-.3 0-.7 0-.9-.2c-.3-.3-.5-.6-.5-.9c-1.6-13.9-13.4-24.4-27.3-24.4c-13.9 0-25.6 10.4-27.3 24.2c0 .4-.2 .7-.4 .9c-.3 .2-.6 .3-1 .2c-1.2-.2-2.4-.3-3.6-.3c-14.4 0-26.2 11.8-26.2 26.3c0 14.4 11.8 26.2 26.2 26.2h38.5c.7 0 1.3 .6 1.3 1.2c0 .7-.6 1.3-1.3 1.3Z" class="g3_9"/>
<path d="M275.1 352.7h-6.8c-2.2 0-4-1.8-4-4V282.2c0-2.2 1.8-4 4-4h6.8c.7 0 1.3 .6 1.3 1.3c0 .6-.6 1.2-1.3 1.2h-6.8c-.9 0-1.6 .7-1.6 1.5v66.5c0 .9 .7 1.6 1.6 1.6h6.8c.7 0 1.3 .5 1.3 1.2c0 .7-.6 1.2-1.3 1.2Z" class="g4_9"/>
<path d="M327.9 348.8c0 .8-.7 1.5-1.5 1.5H276c-.8 0-1.5-.7-1.5-1.5V282.3c0-.9 .7-1.6 1.5-1.6h40.8c.4 0 .9 .1 1.5 .3c-.2 .3-.3 .8-.3 1.3v4.2c0 2.2 1.8 4 4.1 4h3.6c.8 0 1.3-.2 1.7-.4c.3 .7 .5 1.5 .5 2.2v56.5Zm-7.4-66.2l5.1 5.4h-3.5c-.9 0-1.6-.7-1.6-1.5v-3.9Zm7.6 4l-5.7-6c-1.3-1.3-3.8-2.3-5.6-2.3H276c-2.2 0-4 1.8-4 4v66.5c0 2.2 1.8 4 4 4h50.4c2.2 0 4-1.8 4-4V292.3c0-1.8-1-4.3-2.3-5.7Z" class="g4_9"/>
<path d="M319.7 295.1H281.9c-.6 0-1.2-.6-1.2-1.2c0-.7 .6-1.3 1.2-1.3h37.8c.7 0 1.3 .6 1.3 1.3c0 .6-.6 1.2-1.3 1.2Z" class="g3_9"/>
<path d="M319.7 301.9H281.9c-.6 0-1.2-.5-1.2-1.2c0-.7 .6-1.2 1.2-1.2h37.8c.7 0 1.3 .5 1.3 1.2c0 .7-.6 1.2-1.3 1.2Z" class="g3_9"/>
<path d="M319.7 308.8H281.9c-.6 0-1.2-.6-1.2-1.2c0-.7 .6-1.3 1.2-1.3h37.8c.7 0 1.3 .6 1.3 1.3c0 .6-.6 1.2-1.3 1.2Z" class="g3_9"/>
<path d="M319.7 315.6H281.9c-.6 0-1.2-.5-1.2-1.2c0-.7 .6-1.2 1.2-1.2h37.8c.7 0 1.3 .5 1.3 1.2c0 .7-.6 1.2-1.3 1.2Z" class="g3_9"/>
<path d="M288.8 341h3.4V323.1h-3.4V341Zm4.6 2.4h-5.9c-.6 0-1.2-.5-1.2-1.2V321.8c0-.7 .6-1.2 1.2-1.2h5.9c.7 0 1.2 .5 1.2 1.2v20.4c0 .7-.5 1.2-1.2 1.2Z" class="g3_9"/>
<path d="M298.5 341h3.4V328.5h-3.4V341Zm4.6 2.4h-5.8c-.7 0-1.3-.5-1.3-1.2v-15c0-.7 .6-1.2 1.3-1.2h5.8c.7 0 1.2 .5 1.2 1.2v15c0 .7-.5 1.2-1.2 1.2Z" class="g3_9"/>
<path d="M308.2 341h3.4v-7.4h-3.4V341Zm4.6 2.4H307c-.7 0-1.3-.5-1.3-1.2v-9.9c0-.7 .6-1.2 1.3-1.2h5.8c.7 0 1.2 .5 1.2 1.2v9.9c0 .7-.5 1.2-1.2 1.2Z" class="g3_9"/>
<path d="M505.9 285.7H528v3.4H505.9v-3.4Zm17.8 12.7H509.9v-6.2h13.8v6.2Zm-19.2-6.6h2.7v7.3h19.2v-7.3h2.9c.8 0 1.4-.6 1.4-1.3v-6.2c0-.8-.6-1.4-1.4-1.4H504.5c-.7 0-1.3 .6-1.3 1.4v6.2c0 .7 .6 1.3 1.3 1.3Z" class="g3_9"/>
<path d="M473.9 310.5l4 4.3l6.4-5.9l-4.1-4.4l-6.3 6Zm3.9 7.6c-.4 0-.7-.1-1-.4l-5.9-6.4c-.5-.5-.5-1.4 .1-1.9l8.4-7.8c.2-.3 .6-.4 .9-.4c.4 0 .7 .2 1 .5l5.9 6.3c.5 .6 .5 1.4-.1 2l-8.3 7.8c-.3 .2-.6 .3-1 .3Z" class="g3_9"/>
<path clip-path="url(#c4_9)" d="M516.8 300.5c-27.5 0-50 22.4-50 49.9c0 27.6 22.5 50 50 50c27.6 0 50-22.4 50-50c0-27.5-22.4-49.9-50-49.9Zm0 102.7c-29.1 0-52.7-23.7-52.7-52.8c0-29 23.6-52.7 52.7-52.7c29.1 0 52.7 23.7 52.7 52.7c0 29.1-23.6 52.8-52.7 52.8Z" class="g4_9"/>
<path d="M516.8 311.5c-21.5 0-39 17.4-39 38.9c0 21.5 17.5 39 39 39c21.5 0 39-17.5 39-39c0-21.5-17.5-38.9-39-38.9Zm0 80.6c-23 0-41.7-18.7-41.7-41.7c0-23 18.7-41.7 41.7-41.7c23 0 41.7 18.7 41.7 41.7c0 23-18.7 41.7-41.7 41.7Z" class="g4_9"/>
<path d="M517.1 353.4c-1.7 0-3.1-1.4-3.1-3.1c0-1.7 1.4-3.1 3.1-3.1c1.7 0 3.1 1.4 3.1 3.1c0 1.7-1.4 3.1-3.1 3.1Zm1.4-8.8V319c0-.7-.6-1.4-1.4-1.4c-.7 0-1.4 .7-1.4 1.4v25.6c-2.3 .6-4.1 2.5-4.4 5H485.7c-.7 0-1.3 .6-1.3 1.3c0 .8 .6 1.4 1.3 1.4h26c.8 2.2 2.9 3.8 5.4 3.8c3.2 0 5.8-2.6 5.8-5.8c0-2.8-1.9-5-4.4-5.7Z" class="g3_9"/>
<path clip-path="url(#c5_9)" d="M797.8 356.9H640c-2 0-3.8-1.7-3.8-3.8V285.7c0-2 1.7-3.8 3.8-3.8H797.8c2.1 0 3.8 1.7 3.8 3.8v67.4c0 2-1.7 3.8-3.8 3.8Zm-95.2-16.3c-1.2-1.1-2.5-2.2-3.6-3.4m-5.1-8.4c-1.1-2.9-1.8-6.1-1.8-9.5c0-14.7 12-26.7 26.8-26.7c14.8 0 26.8 12 26.8 26.7c0 14.8-12 26.8-26.8 26.8c-3.9 0-7.6-.9-10.9-2.4m.6-10.9h14.7c3.6 0 6.5-3 6.5-6.5c0-3.7-3-6.6-6.5-6.6h-8.7c-3.7 0-6.6-3-6.6-6.5c0-3.6 3-6.6 6.6-6.6h13.5m-9.2-3.9V336m-65.6-54.1c0 9.4-7.7 17-17 17m148.4-16.8c0 9.3 7.7 16.9 17 16.9m-17 57.9c0-9.4 7.7-17 17-17M653.3 356.7c0-9.4-7.7-17-17-17m24.1-57.8c0 0 27.4-5.4 56.5-11m6.3-1.3c5.1-.9 4.1-.8 9.2-1.8m12.3-2.4c22.6-4.4 41-8 41-8c1.9-.4 3.8 .9 4.2 2.8l4.3 21.7m-20.6-22c1.7 8.8 10.1 14.4 18.9 12.7m-132.1 9.3c0 0 22.9-9.6 47.3-19.8m6.6-2.7c4.6-1.9 2.2-1 6.8-2.8m12.3-5.2c17.9-7.5 32.1-13.4 32.1-13.4c1.6-.7 3.5 0 4.2 1.7l8.1 19.3m-22.5-16.7c3 7.3 11.5 10.8 18.8 7.7" class="g5_9"/>
<path d="M1006.6 320.4c-10.1 0-15.2-5.1-17.4-8.4c-8 10.2-21 7.5-21.2 7.5c-.9-.2-1.5-1.2-1.3-2.1c.2-.9 1.1-1.5 2.1-1.3c.5 .1 12.6 2.6 19.1-8.2c.3-.6 1-.9 1.6-.8c.7 0 1.2 .5 1.5 1.1c.1 .4 4.3 11 20.6 8.4c.9-.2 1.8 .4 2 1.4c.1 .9-.5 1.8-1.4 1.9c-2 .4-3.9 .5-5.6 .5Z" class="g3_9"/>
<path d="M990 298.3c-11.2 0-20.3 9.6-20.3 21.4c0 11.8 9.1 21.4 20.3 21.4c11.3 0 20.4-9.6 20.4-21.4c0-11.8-9.1-21.4-20.4-21.4Zm0 46.2c-13.1 0-23.7-11.1-23.7-24.8c0-13.7 10.6-24.9 23.7-24.9c13.2 0 23.8 11.2 23.8 24.9c0 13.7-10.6 24.8-23.8 24.8Z" class="g4_9"/>
<path clip-path="url(#c6_9)" d="M956.4 415.7h67.3V377c0-15.3-12.4-27.7-27.6-27.7H984c-15.2 0-27.6 12.4-27.6 27.7v38.7Zm69 3.5H954.7c-1 0-1.7-.8-1.7-1.7V377c0-17.2 13.9-31.2 31-31.2h12.1c17.1 0 31 14 31 31.2v40.5c0 .9-.8 1.7-1.7 1.7Z" class="g4_9"/>
<path d="M988.7 396.1l-5.1-9.9l4.8-21.4c.2 .2 .6 .3 .9 .3c.3 0 .6-.1 .8-.2l4.3 22l-5.7 9.2Zm.6-41l2.8 2.9l-2.8 2.9l-2.8-2.9l2.8-2.9Zm8.6 31.8L993.1 362l2.6-2.8c.7-.6 .7-1.7 0-2.4l-5.2-5.3c-.6-.7-1.8-.7-2.4 0l-5.2 5.3c-.6 .7-.6 1.8 0 2.4l2.6 2.7L980.1 386c-.1 .4 0 .9 .1 1.2l6.9 13.1c.3 .6 .8 .9 1.4 1q.1 0 .1 0c.6 0 1.2-.4 1.5-.9l7.6-12.2c.2-.4 .3-.8 .2-1.3Z" class="g3_9"/>
<path d="M940 335.7c-.8 0-1.4 .4-1.7 1.1l-3.6 11.5l-2.2-4.5l8.5-15.5l2.1 7.4H940Zm-13.9 13.1L921 335.7c-.3-.7-.9-1.1-1.6-1.1h-3.2l2.5-6.5l9.7 15.6c0 .1-.1 .2-.1 .3l-2.2 4.8ZM947 337l-3.6-12.5c-.2-1-1.2-1.5-2.1-1.2c-.1 0-.2 0-.3 .1c-.7-.1-1.4 .2-1.7 .9l-8.9 16.2l-9.9-15.9c-.1-.3-.4-.6-.7-.7c-.2-.4-.5-.8-1-1c-.9-.3-1.9 .1-2.2 1l-4.5 11.9c-.2 .5-.1 1.1 .2 1.6c.3 .4 .8 .7 1.4 .7l4.5-.1l6.1 15.8c.3 .7 .9 1.1 1.6 1.1c.7 0 1.3-.4 1.6-1l3-6.5l2.9 6.3c.3 .6 .9 1 1.6 1h.1c.7-.1 1.3-.6 1.5-1.2l4.6-14.4l4.1 .1c.6 0 1.1-.3 1.4-.7c.3-.4 .5-1 .3-1.5Z" class="g3_9"/>
<path d="M951.4 299.6c-.1 0-.3 0-.5-.1c-5.4-1.8-8.2-7-9.5-10.3c-12.4 11.7-32.8 7.9-33.7 7.8c-.9-.2-1.5-1.1-1.3-2c.1-1 1-1.6 2-1.4c.2 0 21.7 3.9 32.4-8.8c.5-.5 1.1-.8 1.8-.6c.6 .2 1.1 .7 1.2 1.3c0 .1 2 8.7 8.2 10.8c.9 .3 1.4 1.2 1.1 2.1c-.3 .8-1 1.2-1.7 1.2Z" class="g3_9"/>
<path clip-path="url(#c6_9)" d="M953.7 395.4H894.3c-.9 0-1.7-.8-1.7-1.7V353.2c0-17.2 13.9-31.1 31-31.1h12.1c17.1 0 31 13.9 31 31.1v.4c0 1-.7 1.8-1.7 1.8c-.9 0-1.7-.8-1.7-1.8v-.4c0-15.3-12.4-27.7-27.6-27.7H923.6c-15.2 0-27.6 12.4-27.6 27.7v38.7h57.7c1 0 1.7 .8 1.7 1.8c0 .9-.7 1.7-1.7 1.7Z" class="g4_9"/>
<path d="M929.7 274.5c-11.2 0-20.4 9.6-20.4 21.4c0 11.8 9.2 21.4 20.4 21.4c11.2 0 20.3-9.6 20.3-21.4c0-11.8-9.1-21.4-20.3-21.4Zm0 46.3c-13.1 0-23.8-11.2-23.8-24.9c0-13.7 10.7-24.8 23.8-24.8c13.1 0 23.7 11.1 23.7 24.8c0 13.7-10.6 24.9-23.7 24.9Z" class="g4_9"/>
<path d="M1047.6 271.3c-3.2 0-5.9 2-5.9 4.5c0 2.4 2.7 4.4 5.9 4.4c3.3 0 6-2 6-4.4c0-2.5-2.7-4.5-6-4.5Zm0 12.3c-5.1 0-9.3-3.5-9.3-7.8c0-4.4 4.2-7.9 9.3-7.9c5.2 0 9.4 3.5 9.4 7.9c0 4.3-4.2 7.8-9.4 7.8Z" class="g3_9"/>
<path d="M1062.6 304c-9.3 0-14-4.6-16.2-7.7c-7.4 9.4-19.4 6.9-19.5 6.8c-1-.2-1.6-1.1-1.4-2c.2-.9 1.2-1.5 2.1-1.3c.5 .1 11.6 2.3 17.5-7.6c.4-.5 1-.8 1.7-.8c.6 .1 1.2 .5 1.4 1.1c.1 .4 4 10.2 19 7.7c.9-.2 1.8 .5 1.9 1.4c.2 1-.5 1.8-1.4 2c-1.8 .3-3.6 .4-5.1 .4Z" class="g3_9"/>
<path d="M1047.2 283.5c-10.3 0-18.7 8.9-18.7 19.7c0 10.9 8.4 19.7 18.7 19.7c10.3 0 18.7-8.8 18.7-19.7c0-10.8-8.4-19.7-18.7-19.7Zm0 42.8c-12.2 0-22.1-10.3-22.1-23.1c0-12.7 9.9-23.1 22.1-23.1c12.2 0 22.2 10.4 22.2 23.1c0 12.8-10 23.1-22.2 23.1Z" class="g4_9"/>
<path d="M1054 346.8l-4.6-4.8l11.9-9.5l.3 .2l-7.6 14.1Zm-14.3-.1l-6.4-14.4l.8-.3l10.3 9.6l-4.7 5.1Zm25.1-16.1l-2.7-1.6c-.6-.4-1.4-.4-1.9 .1l-13.1 10.3l-11.4-10.6c-.5-.5-1.2-.6-1.8-.4l-3.5 1.3c-.4 .2-.8 .5-.9 1c-.2 .4-.2 .9 0 1.3l8.1 18.5c.3 .5 .8 .9 1.3 .9c.1 .1 .2 .1 .3 .1c.5 0 .9-.2 1.3-.6l6.2-6.7l6.4 6.7c.3 .4 .8 .6 1.3 .6c0 0 .1 0 .2 0c.5-.1 1-.4 1.3-.9l9.5-17.7c.5-.8 .2-1.8-.6-2.3Z" class="g3_9"/>
<path d="M1079.9 395.4h-54.3c-.9 0-1.7-.8-1.7-1.7c0-1 .8-1.8 1.7-1.8h52.6V356.2c0-14-11.4-25.5-25.4-25.5h-11.2c-13.5 0-24.4 9.9-25.2 23c-.1 1-.9 1.7-1.8 1.6c-1 0-1.7-.9-1.6-1.8c.9-14.9 13.3-26.2 28.6-26.2h11.2c15.9 0 28.8 13 28.8 28.9v37.5c0 .9-.7 1.7-1.7 1.7Z" class="g4_9"/>
<path d="M1445.7 511.9h-10.8c-.6 0-1.1-.2-1.5-.7c-.4-.5-.5-1.1-.4-1.7c.2-1.2 .4-2.4 .4-3.6c0-9.4-8-17.3-17.4-17.3c-9.4 0-17.3 7.9-17.3 17.3c0 1.2 .1 2.4 .4 3.6c.1 .6-.1 1.2-.4 1.7c-.4 .5-1 .7-1.6 .7h-19.4c-1.1 0-2-.9-2-2c0-1 .9-1.9 2-1.9h17.1c-.1-.7-.1-1.4-.1-2.1c0-11.5 9.8-21.3 21.3-21.3c11.6 0 21.3 9.8 21.3 21.3c0 .7 0 1.4-.1 2.1h8.5c1.4 0 2.5-1.2 2.5-2.5V445.3c0-1.4-1.1-2.6-2.5-2.6h-68.8c-1.1 0-2-.8-2-1.9c0-1.1 .9-2 2-2h68.8c3.6 0 6.5 2.9 6.5 6.5v60.2c0 3.5-2.9 6.4-6.5 6.4Z" class="g6_9"/>
<path d="M1330 512.8v1.3c0 9 7.4 16.4 16.4 16.4c9.1 0 16.5-7.4 16.5-16.4v-1.3c-.2-1 .1-2 .8-2.8c1.1-1.3 3-2.1 5.2-2.1h7.6c1.4 0 2.6-1.1 2.6-2.5v-7.1c0-1.1-.4-1.8-.6-2.1c0 0-.1 .1-.1 .1H1377c-11.5 0-21.3-9.8-21.3-21.4c0-11.5 9.8-21.3 21.3-21.3h1.4c0 0 .1 0 .1 0c.2-.2 .6-.9 .6-2.1v-6.3c0-1.4-1.2-2.5-2.6-2.5h-60.2c-1.3 0-2.5 1.1-2.5 2.5v60.2c0 1.4 1.2 2.5 2.5 2.5h7.7c2.2 0 4.1 .8 5.2 2.1c.6 .8 1 1.8 .8 2.8Zm16.4 21.6c-11.2 0-20.3-9.1-20.3-20.3v-1.4c0-.1 0-.2 0-.2c-.2-.2-.9-.6-2.1-.6h-7.7c-3.5 0-6.4-2.9-6.4-6.5V445.2c0-3.5 2.9-6.4 6.4-6.4h60.2c3.6 0 6.5 2.9 6.5 6.4v6.3c0 3.7-2 6.4-4.7 6.1H1377c-9.4 0-17.3 7.9-17.3 17.3c0 9.4 7.9 17.4 17.3 17.4h1.3c2.7-.3 4.7 2.3 4.7 6v7.1c0 3.6-2.9 6.5-6.5 6.5h-7.6c-1.2 0-1.9 .4-2.1 .6c0 0 0 .1 0 .1v1.5c0 11.2-9.1 20.3-20.4 20.3Z" class="g7_9"/>
<path d="M1315 534.2c-1.4 0-2.5 1.1-2.5 2.5v60.2c0 1.4 1.1 2.5 2.5 2.5h60.2c1.4 0 2.5-1.1 2.5-2.5v-7.7c0-3.5 1.9-6 4.4-6c.2 0 .3 0 .5 0h1.2c9.1 0 16.5-7.4 16.5-16.4c0-9.1-7.4-16.4-16.5-16.4h-1.2c-1.5 .1-3-.6-3.9-2.1c-.6-1.1-1-2.5-1-3.9v-7.7c0-1.4-1.1-2.5-2.5-2.5h-7.1c-1.1 0-1.8 .3-2.1 .5c0 0 0 .1 0 .1v1.4c0 11.6-9.7 21.3-21.3 21.3c-11.5 0-21.3-9.7-21.3-21.3v-1.4c0 0 0-.1 0-.1c-.2-.2-.9-.5-2.1-.5H1315Zm60.2 69.1H1315c-3.5 0-6.5-2.9-6.5-6.4V536.7c0-3.6 3-6.5 6.5-6.5h6.3c2.2 0 4.1 .7 5.2 2c.7 .8 1 1.8 .9 2.8v1.2c0 9.4 7.9 17.4 17.3 17.4c9.4 0 17.4-8 17.4-17.4V535c-.1-1 .2-2 .9-2.8c1-1.3 2.9-2 5.1-2h7.1c3.6 0 6.5 2.9 6.5 6.5v7.7c0 1.1 .4 1.8 .5 2c.1 0 .2 0 .2 0h1.4c11.3 0 20.4 9.1 20.4 20.4c0 11.2-9.1 20.3-20.4 20.3h-1.4c0 0-.1 0-.2 0c-.1 .2-.5 .9-.5 2.1v7.7c0 3.5-2.9 6.4-6.5 6.4Z" class="g6_9"/>
<path clip-path="url(#c7_9)" d="M1412.3 598.4c-.2 .2-.5 .9-.5 2v6.4c0 1.3 1.1 2.5 2.5 2.5h60.2c1.4 0 2.5-1.2 2.5-2.5V546.5c0-1.3-1.1-2.5-2.5-2.5h-7.7c-2.2 0-4.1-.7-5.1-2c-.7-.8-1-1.8-.9-2.8v-1.3c0-9-7.4-16.4-16.4-16.4c-9.1 0-16.4 7.4-16.4 16.4v1.3c.1 1-.2 2-.9 2.8c-1.1 1.3-2.9 2-5.1 2h-7.7c-1.4 0-2.5 1.2-2.5 2.5v7.2c0 1.1 .3 1.8 .5 2c0 0 .1 0 .1 0h1.4c11.6 0 21.3 9.8 21.3 21.3c0 11.6-9.7 21.4-21.3 21.4h-1.3q-.1 0-.2 0Zm62.2 14.8h-60.2c-3.6 0-6.5-2.9-6.5-6.4v-6.4c0-3.6 2.1-6.3 4.8-6h1.2c9.4 0 17.4-7.9 17.4-17.4c0-9.4-8-17.3-17.4-17.3h-1.2c-2.7 .3-4.8-2.4-4.8-6v-7.2c0-3.5 2.9-6.4 6.5-6.4h7.7c1.1 0 1.8-.4 2-.6c0 0 0-.1 0-.2v-1.4c0-11.2 9.1-20.3 20.4-20.3c11.2 0 20.3 9.1 20.3 20.3v1.4c0 .1 0 .2 0 .2c.2 .2 .9 .6 2.1 .6h7.7c3.5 0 6.5 2.9 6.5 6.4v60.3c0 3.5-3 6.4-6.5 6.4Z" class="g7_9"/>
<path d="M1254.7 606.9H1152.9V455.2h101.8v19.3H1221c-4.1 0-8 1.8-10.8 4.8c-1.6 1.8-2.7 3.9-3.3 6.2c-.2 .7-.4 1.5-.4 2.4c0 .1 0 .2-.1 .4c0 .2 0 .4 0 .6c0 .1 0 .2 0 .3c0 .1 0 .2 0 .4c0 .1 0 .3 0 .4c.1 .1 .1 .2 .1 .2c0 .1 0 .3 0 .4c0 .6 .1 1.2 .3 1.8c0 .2 .1 .3 .1 .5c.6 2.3 1.7 4.4 3.4 6.1c2.7 3 6.6 4.8 10.7 4.8h32.1c.4 1.4 .9 2.9 1.6 4.5v98.6Zm-112.9-11.7V443.5h101.8v5.4h-93.9c-1.7 0-3.1 1.4-3.1 3.1V595.2h-4.8Zm163.3-34c-9.3 0-18.5 1.4-27.3 4.2l-11.3 3.5H1261V516.7c3.2 2.6 7.4 4.6 12.8 4.9c1.7 0 3.1-1.3 3.2-2.9c.1-1.8-1.2-3.3-3-3.4c-7.3-.4-11.2-4.9-13.2-8.9c-.1-.2-.1-.4-.2-.5c-1.4-2.9-1.8-5.4-1.8-5.7c-.2-1.5-1.6-2.7-3.1-2.7h-34.2c-4.5 0-8.3-3.3-8.8-7.5c0 0 0-.1 0-.1c0-.1 0-.2 0-.3q0-.1 0-.2q0-.1 0-.2c0-.1 0-.2 0-.2c0-.1 0-.2 0-.3c0 0 0-.1 0-.2c0 0 0-.1 0-.2c.4-4.2 4.3-7.5 8.9-7.5h34.6c6.1 0 12 2.3 16.5 6.5l16.8 15.6c.5 .6 1.3 .9 2.1 .9h13.5c1.7 0 3.1-1.4 3.1-3.2c0-1.7-1.4-3.1-3.1-3.1h-12.3l-15.9-14.8c-4.4-4.2-10-6.8-15.9-7.8V452c0-1.7-1.4-3.1-3.1-3.1h-8v-8.5c0-1.8-1.4-3.2-3.1-3.2H1138.6c-1.7 0-3.1 1.4-3.1 3.2v158c0 1.7 1.4 3.1 3.1 3.1h8V610c0 1.8 1.4 3.2 3.1 3.2h108.2c1.7 0 3.1-1.4 3.1-3.2V575.2h5.9c.4 0 .7-.1 1-.2l11.7-3.6c8.3-2.6 16.9-3.9 25.5-3.9c1.7 0 3.1-1.4 3.1-3.1c0-1.7-1.4-3.2-3.1-3.2Z" class="g6_9"/>
<path d="M1203.8 591.1c-7.8 0-15.1-2.7-20.8-7.1l22.7-24.1h32.2c-1.5 17.5-16.3 31.2-34.1 31.2Zm-34.3-34.3c0-7.7 2.6-14.8 6.9-20.5l23.4 20.7l-21.5 22.7c-5.4-6-8.8-14.1-8.8-22.9Zm31.7-7l-20.6-18.2c5.5-5.1 12.7-8.4 20.6-9v27.2Zm40 3.9h-33.7V519.4c0-1.6-1.5-3-3.2-3.1c-.1-.1-.3-.1-.5-.1c-11.8 0-22.5 5.1-29.9 13.2c-.1 .1-.2 .2-.3 .3c0 .1-.1 .2-.2 .3c-6.3 7.1-10.2 16.5-10.2 26.8c0 11.6 5 22.1 12.8 29.5c.1 .1 .2 .2 .2 .2c.1 .1 .2 .2 .3 .3c7.2 6.5 16.8 10.6 27.3 10.6c22.4 0 40.6-18.2 40.6-40.6c0-1.7-1.4-3.1-3.2-3.1Z" class="g6_9"/>
<path d="M1221.6 523c8.3 1.5 14.8 8.2 16.1 16.5h-16.1V523Zm-3.1 22.7h22.6c1.8 0 3.2-1.4 3.2-3.1c0-14.2-11.6-25.9-25.8-26.1c-.8 0-1.7 .3-2.3 .9c-.6 .5-.9 1.3-.9 2.2v23c0 1.7 1.4 3.1 3.2 3.1Z" class="g6_9"/>
<path d="M1166.4 470.6h19.5c1.7 0 3.2-1.4 3.2-3.1c0-1.8-1.5-3.2-3.2-3.2h-19.5c-1.8 0-3.2 1.4-3.2 3.2c0 1.7 1.4 3.1 3.2 3.1Z" class="g6_9"/>
<path d="M1166.4 482.9H1196c1.7 0 3.1-1.4 3.1-3.1c0-1.7-1.4-3.1-3.1-3.1h-29.6c-1.8 0-3.2 1.4-3.2 3.1c0 1.7 1.4 3.1 3.2 3.1Z" class="g6_9"/>
<path d="M1166.4 495.3H1196c1.7 0 3.1-1.4 3.1-3.1c0-1.8-1.4-3.2-3.1-3.2h-29.6c-1.8 0-3.2 1.4-3.2 3.2c0 1.7 1.4 3.1 3.2 3.1Z" class="g6_9"/>
<path d="M1166.4 507.6H1196c1.7 0 3.1-1.4 3.1-3.1c0-1.7-1.4-3.1-3.1-3.1h-29.6c-1.8 0-3.2 1.4-3.2 3.1c0 1.7 1.4 3.1 3.2 3.1Z" class="g6_9"/>
<g clip-path="url(#c8_9)">
<path fill-rule="evenodd" d="M472.2 411.3c-4.7 5.9-8.7 10.2-12.2 13.4c-5.6 5.1-10.1 7.7-14.6 10.1c-15.5 8.4-31.6 12.3-47.4 12.7c-11.1 .3-22-1.1-32.6-4c-26.1-7.2-50.2-23.5-67.7-46.6c-.7-1-2.2-1.3-3.2-.5c-1.1 .7-1.3 2.2-.6 3.2c17.3 25.2 41.8 43.8 69.1 52.1c11.4 3.4 23.3 5.1 35.2 4.6c17.2-.6 34.4-5.5 50.8-15.1c4.8-2.8 9.7-5.8 15.6-11.7c3.6-3.6 7.6-8.3 12.2-14.7c1-1.3 .7-3.1-.5-4.1c-1.3-.9-3.1-.7-4.1 .6Z" class="g7_9"/>
<path fill-rule="evenodd" d="M339.4 393.9c-4.7-.3-14.7-1.2-24.5-1.9c-12.5-.8-24.5-1.3-24.5-1.3c-1.3-.1-2.5 .4-3.4 1.3c-.8 .9-1.3 2.1-1.2 3.4c0 0 1.2 16.3 2.7 30.7c1.1 9.5 2.3 18.2 3 20.6c.2 1.3 1.5 2.1 2.7 1.8c1.3-.2 2.1-1.5 1.9-2.7l-1.3-46.1c4.7 .1 12.2 .2 19.8 .2c9.9 .1 20-.2 24.7-.3c1.6 0 2.9-1.2 2.9-2.8c.1-1.6-1.2-2.9-2.8-2.9Z" class="g7_9"/>
</g>
<path clip-path="url(#c9_9)" d="M528.6 140.3c-.8-5.4-.8-9.6 2.8-6.7c1.1 1.1 2.5 3.5 4.1 8.2c1.5 4.7 3.2 11.6 4.3 21.4c1.8 16.8 2 24.1 .9 25c-.8 .6-3.1 .3-8.7-1.4c-5.7-1.6-14.8-4.8-28.6-7.5c-3.9-.8-11.7-2.5-12.8-5c-1-2.2 3.5-2.8 8.2-2.2c14.3 1.7 24.5 5.9 26.4 5.9c1.1 .1-1.6-2.3-4.8-6c-6-7.3-12.8-14.3-19.6-20.2c-10.1-8.6-21.3-15.5-32.9-19.7c-11.6-4.2-23.5-5.9-34.2-5.1c-10.7 .7-20.1 4-27.4 8.4c-7.4 4.3-12.7 9.5-16.3 13.9c-6 7.5-8.4 13.9-9.7 18c-1.2 4.3-1.5 6.4-1.6 6.9c-.3 1.4-1.3 2.9-2.2 2.6c-.5-.2-1-.8-1.4-2.2c-.2-.7-.4-1.6-.5-2.7c0-1.1 0-2.5 .1-4.1c.4-6.8 3.8-15.3 9.8-22.8c6.7-8.8 16.3-15.9 26.8-20.3c10.7-4.4 22.1-5.5 32.5-5c13.6 .8 25.7 4.8 36 9.7c10.3 4.9 18.7 11.1 25.6 16.9c8.9 7.8 14.8 14.6 18.9 19.3c4.1 4.7 6.3 7.4 7 8c1.8 1.3 .4-9-.5-18.4c-.3-2.6-1.5-9.4-2.2-14.9Z" class="g7_9"/>
<g clip-path="url(#c0_9)">
<image preserveAspectRatio="none" x="37" y="100" width="376" height="251" href="img/1.png"/>
<image preserveAspectRatio="none" x="379" y="168" width="249" height="171" href="img/2.png"/>
<image preserveAspectRatio="none" x="538" y="323" width="381" height="172" href="img/3.png"/>
<image preserveAspectRatio="none" x="698" y="153" width="503" height="171" href="img/4.png"/>
</g>
<path d="M1159.9 100.2c-.1 1.3-.3 2.4-.6 3.5c-.4 1-.8 1.9-1.3 2.7c-.5 .8-1 1.5-1.5 2.1c-.6 .6-1.2 1.1-1.7 1.4c-1.6 1.1-3.4 1.8-5.5 2.1c-2 .3-4.1 .4-6.1 .4c-1.2 0-2.4 0-3.7-.1c-1.2-.1-2.5-.3-3.7-.6c-1.2-.3-2.4-.7-3.6-1.3c-1.1-.6-2.2-1.4-3.2-2.4c-1-.9-1.8-1.9-2.4-3c-.6-1-1.1-2.1-1.4-3.2c-.3-1.1-.6-2.1-.7-3.2c-.1-1-.2-2-.2-3c0-1 .1-2 .2-3.1c.1-1.1 .4-2.1 .7-3.2c.3-1 .8-2.1 1.4-3.1c.6-1 1.3-1.9 2.2-2.9c1-1 2.1-1.8 3.3-2.5c1.2-.6 2.4-1.1 3.6-1.4c1.2-.4 2.4-.6 3.5-.7c1.2-.1 2.3-.2 3.3-.2c.5 0 1.3 .1 2.3 .1c1 0 2.1 .2 3.3 .4c1.2 .1 2.4 .4 3.6 .8c1.2 .4 2.3 .9 3.3 1.6c.4 .3 .9 .6 1.4 1.1c.5 .5 1 1.1 1.5 1.8c.5 .7 .9 1.6 1.2 2.5c.3 1 .5 2.1 .5 3.4h-8.8c0-.8-.2-1.5-.6-2.2c-.3-.7-.9-1.2-1.7-1.8c-.9-.5-1.8-.9-2.8-1c-.9-.2-1.8-.3-2.6-.3c-1.2 0-2.4 .2-3.6 .5c-1.2 .2-2.3 .9-3.4 2.1c-.6 .7-1.2 1.7-1.8 2.9c-.5 1.3-.8 3-.8 5.2c0 2.1 .3 3.8 .8 5.1c.6 1.3 1.2 2.3 1.9 3c1.1 1 2.2 1.7 3.4 1.9c1.3 .3 2.4 .4 3.5 .4c.4 0 .8 0 1.3 0c.5 0 1-.1 1.5-.2c.5-.1 1-.2 1.5-.3c.5-.2 .9-.4 1.3-.7c.5-.4 1-.9 1.5-1.7c.5-.7 .8-1.7 .9-2.9h8.8Zm23.8-15.3c-1.1 0-2.2 .1-3.5 .4c-1.2 .3-2.4 1-3.5 2.1c-.7 .6-1.2 1.3-1.6 2.1c-.3 .7-.6 1.5-.8 2.2c-.2 .7-.4 1.4-.4 2.1c-.1 .6-.1 1.2-.1 1.6c0 .5 0 1.1 .1 1.7c0 .7 .2 1.4 .4 2.1c.2 .7 .5 1.5 .8 2.2c.4 .8 .9 1.5 1.6 2.1c1.1 1.1 2.3 1.8 3.5 2c1.3 .3 2.4 .5 3.5 .5c1 0 2.2-.2 3.4-.5c1.3-.2 2.4-.9 3.5-2c.7-.6 1.2-1.3 1.6-2.1c.4-.7 .7-1.5 .9-2.2c.2-.7 .3-1.4 .4-2.1c0-.6 .1-1.2 .1-1.7c0-.4-.1-1-.1-1.6c-.1-.7-.2-1.4-.4-2.1c-.2-.7-.5-1.5-.9-2.2c-.4-.8-.9-1.5-1.6-2.1c-1.1-1.1-2.2-1.8-3.5-2.1c-1.2-.3-2.4-.4-3.4-.4Zm19 10.5c0 1 0 2-.2 3c-.1 1.1-.3 2.1-.7 3.2c-.3 1-.9 2.1-1.5 3.1c-.7 1.1-1.5 2.1-2.6 3c-.6 .6-1.3 1.1-2.2 1.7c-.8 .5-1.8 1-3 1.5c-1.1 .4-2.4 .8-3.9 1.1c-1.4 .2-3.1 .4-4.9 .4c-1.9 0-3.5-.2-5-.4c-1.4-.3-2.7-.7-3.9-1.1c-1.1-.5-2.1-1-3-1.5c-.8-.6-1.5-1.1-2.1-1.7c-1.1-.9-2-1.9-2.6-3c-.7-1-1.2-2.1-1.6-3.1c-.3-1.1-.6-2.1-.7-3.2c-.1-1-.2-2-.2-3c0-.9 .1-1.9 .2-2.9c.1-1.1 .4-2.1 .7-3.2c.4-1 .9-2.1 1.6-3.1c.6-1 1.5-2.1 2.6-3c.6-.6 1.3-1.1 2.1-1.7c.9-.5 1.9-1 3-1.5c1.2-.4 2.5-.8 3.9-1.1c1.5-.3 3.1-.4 5-.4c1.8 0 3.5 .1 4.9 .4c1.5 .3 2.8 .7 3.9 1.1c1.2 .5 2.2 1 3 1.5c.9 .6 1.6 1.1 2.2 1.7c1.1 .9 1.9 2 2.6 3c.6 1 1.2 2.1 1.5 3.1c.4 1.1 .6 2.1 .7 3.2c.2 1 .2 2 .2 2.9Zm15.5-7.8h-.3l.3 2.7v21.2h-8.4V79.4h11.9l9.1 23.3h.2l9.1-23.3H1252v32.1h-8.5V90.3l.4-2.7h-.4l-9.6 23.9h-6.1l-9.6-23.9Zm50.8 7.1h7.6c.4 0 .8-.1 1.3-.1c.5 0 .9-.1 1.4-.2c.4-.1 .9-.2 1.3-.4c.4-.2 .7-.4 1-.7c.3-.3 .6-.8 .9-1.3c.2-.6 .3-1.2 .3-2c0-.8-.1-1.4-.4-2c-.3-.5-.7-.9-1.2-1.3c-.1-.1-.5-.3-1.1-.5c-.7-.3-1.6-.4-3-.4H1269v8.9Zm8.8-15.3c1.1 0 2.1 0 3.1 .1c1 .1 1.9 .2 2.8 .4c.9 .2 1.8 .5 2.6 .9c.8 .3 1.5 .9 2.2 1.5c.6 .6 1.1 1.2 1.5 1.8c.4 .6 .7 1.3 1 2c.2 .6 .3 1.3 .4 1.9c.1 .7 .1 1.3 .1 1.9c0 1.3-.2 2.6-.5 3.9c-.3 1.3-1 2.6-2.1 3.7c-.7 .8-1.6 1.5-2.4 1.9c-.9 .4-1.8 .8-2.8 1c-1 .2-2 .4-3.1 .4c-1.1 .1-2.2 .1-3.4 .1H1269v10.6h-8.4V79.4h17.2Zm45.9 32.1h-25.9V79.4h8.4V105h17.5v6.5Zm14.1-32.1v32.1h-8.4V79.4h8.4ZM1366 99.5l-4.9-12l-4.9 12h9.8Zm-14.6 12h-8.8l14.3-32.1h8.3l14.4 32.1h-8.8L1368 105h-13.9l-2.7 6.5Zm65.5 0h-8.1l-16.2-21.6v21.6h-8.5V79.4h8.3l16.1 21.5V79.4h8.4v32.1Zm42.7-11.3c-.1 1.3-.3 2.4-.6 3.5c-.3 1-.8 1.9-1.3 2.7c-.4 .8-1 1.5-1.5 2.1c-.6 .6-1.1 1.1-1.7 1.4c-1.6 1.1-3.4 1.8-5.5 2.1c-2 .3-4 .4-6.1 .4c-1.2 0-2.4 0-3.6-.1c-1.3-.1-2.5-.3-3.8-.6c-1.2-.3-2.4-.7-3.5-1.3c-1.2-.6-2.3-1.4-3.3-2.4c-1-.9-1.8-1.9-2.4-3c-.6-1-1-2.1-1.4-3.2c-.3-1.1-.6-2.1-.7-3.2c-.1-1-.2-2-.2-3c0-1 .1-2 .2-3.1c.1-1.1 .4-2.1 .7-3.2c.4-1 .8-2.1 1.4-3.1c.6-1 1.3-1.9 2.2-2.9c1-1 2.1-1.8 3.3-2.5c1.2-.6 2.4-1.1 3.6-1.4c1.2-.4 2.4-.6 3.5-.7c1.2-.1 2.3-.2 3.3-.2c.5 0 1.3 .1 2.3 .1c1.1 0 2.2 .2 3.4 .4c1.2 .1 2.4 .4 3.6 .8c1.2 .4 2.3 .9 3.2 1.6c.5 .3 .9 .6 1.4 1.1c.6 .5 1.1 1.1 1.5 1.8c.5 .7 .9 1.6 1.2 2.5c.3 1 .5 2.1 .6 3.4h-8.8c-.1-.8-.3-1.5-.7-2.2c-.3-.7-.9-1.2-1.7-1.8c-.9-.5-1.8-.9-2.7-1c-1-.2-1.9-.3-2.7-.3c-1.2 0-2.4 .2-3.5 .5c-1.2 .2-2.4 .9-3.4 2.1c-.7 .7-1.3 1.7-1.8 2.9c-.6 1.3-.9 3-.9 5.2c0 2.1 .3 3.8 .9 5.1c.5 1.3 1.2 2.3 1.9 3c1 1 2.2 1.7 3.4 1.9c1.2 .3 2.3 .4 3.4 .4c.4 0 .9 0 1.3 0c.5 0 1-.1 1.5-.2c.5-.1 1-.2 1.5-.3c.5-.2 .9-.4 1.3-.7c.5-.4 1-.9 1.5-1.7c.5-.7 .8-1.7 .9-2.9h8.8Zm32.3-8.1v6.1h-17.6v6.9h21.3v6.4h-29.7V79.4h29.2v6.4h-20.8v6.3h17.6Z" class="g8_9"/>
<g clip-path="url(#c0_9)">
<image preserveAspectRatio="none" x="1074" y="0" width="474" height="131" href="img/5.png"/>
<image preserveAspectRatio="none" x="5" y="787" width="418" height="77" href="img/6.png"/>
<image preserveAspectRatio="none" x="0" y="695" width="348" height="166" href="img/7.png"/>
<image preserveAspectRatio="none" x="1123" y="274" width="326" height="239" href="img/8.png"/>
<image preserveAspectRatio="none" x="107" y="418" width="656" height="352" href="img/9.png"/>
</g>
<path clip-path="url(#ca_9)" d="M1320.6 271c1.6-5.3 3.3-9.1 5.3-4.9c.7 1.4 .9 4.2 .3 9.2c-.6 4.8-2 11.8-5.1 21.1c-5.4 16.1-8.4 22.7-9.8 23.1c-.9 .2-2.9-1.1-7.3-5c-4.4-3.8-11.3-10.5-22.7-18.8c-3.2-2.5-9.5-7.2-9.5-10c0-2.4 4.4-1 8.4 1.5c12.2 7.6 19.7 15.7 21.4 16.5c1 .5-.5-2.7-1.8-7.5c-2.4-9.2-5.6-18.4-9.2-26.5c-5.6-12.2-12.8-23.1-21.6-31.8c-8.7-8.8-18.7-15.3-28.7-19.1c-10.1-3.9-19.9-4.9-28.4-4c-8.5 .8-15.6 3.3-20.7 5.7c-8.6 4.3-13.5 9-16.4 12.3c-2.9 3.3-4.1 5.1-4.3 5.5c-.9 1.1-2.4 2.1-3.2 1.4c-.3-.3-.5-1.1-.3-2.5c.2-.7 .4-1.6 .7-2.7c.4-1 1-2.2 1.8-3.6c3.3-6 10-12.3 18.5-16.6c9.9-5.1 21.5-7.5 32.9-7c11.5 .5 22.3 4.3 31.5 9.2c12 6.5 21.4 15.1 28.6 23.9c7.3 8.9 12.2 18 16 26.2c4.8 10.8 7.3 19.5 9 25.5c1.7 6 2.6 9.4 3 10.2c1.1 1.9 4.2-8 7.3-16.9c.9-2.5 2.7-9.1 4.3-14.4Z" class="g6_9"/>
<path fill-rule="evenodd" d="M937.3 433.3c-.9 7.5-1.1 13.4-.8 18.2c.3 7.6 1.7 12.5 3.2 17.4c4.9 16.9 13.6 31 24.5 42.5c7.6 8 16.3 14.8 25.9 20.2c23.5 13.4 52 18.9 80.7 14.9c1.3-.2 2.5 .7 2.7 2c.2 1.2-.6 2.4-1.9 2.6c-30 5.6-60.5 1.4-85.7-12c-10.5-5.6-20-12.9-28.2-21.6c-11.6-12.6-20.3-28.3-25.2-46.6c-1.4-5.4-2.7-10.9-2.7-19.3c0-5.1 .5-11.2 1.8-19.1c.2-1.6 1.6-2.7 3.2-2.4c1.6 .2 2.7 1.6 2.5 3.2Z" class="g6_9"/>
<path fill-rule="evenodd" d="M1043.5 514.9c3.5 3.1 11.2 9.6 18.6 16c9.4 8.3 18.3 16.4 18.3 16.4c.9 .9 1.5 2.1 1.4 3.3c0 1.3-.5 2.5-1.4 3.3c0 0-12.5 10.7-23.7 19.7c-7.5 6.1-14.5 11.3-16.7 12.6c-1 .7-2.5 .4-3.2-.7c-.7-1.1-.4-2.5 .7-3.2l33.4-31.7c-3.3-3.2-8.8-8.5-14.2-13.9c-7-6.9-13.9-14.2-17.2-17.6c-1.1-1.1-1.2-3-.1-4.1c1.1-1.2 3-1.2 4.1-.1Z" class="g6_9"/>
<image clip-path="url(#c0_9)" preserveAspectRatio="none" x="687" y="640" width="577" height="203" href="img/10.png"/>
<path d="M368.9 241.6h192V77.7h-192V241.6Z" class="g9_9"/>
<path d="M93.2 234h108V125.2H93.2V234Z" class="g9_9"/>
<path d="M208.8 232.5H319V125.2H208.8V232.5Z" class="g9_9"/>
<path d="M1161.9 357.8h185.6V165.4H1161.9V357.8Z" class="g9_9"/>
<path d="M634.2 359H803.7V235.1H634.2V359Z" class="g9_9"/>
<path d="M93.2 352.3h91.4V245.1H93.2V352.3Z" class="g9_9"/>
<path d="M197.5 352.3H330.3V245.1H197.5V352.3Z" class="g9_9"/>
<path d="M892.6 418.6h189.3V267.9H892.6V418.6Z" class="g9_9"/>
<path d="M464.1 403.6H569.9V282.9H464.1V403.6Z" class="g9_9"/>
<path d="M261.4 525.2H480V306.6H261.4V525.2Z" class="g9_9"/>
<path d="M929.8 586.9h152.1V429.8H929.8V586.9Z" class="g9_9"/>
<path d="M1135.4 613.2h172.9v-176H1135.4v176Z" class="g9_9"/>
<path d="M1308.3 613.2h172.8V438.7H1308.3V613.2Z" class="g9_9"/>
</svg>