<svg viewBox="0 0 1565 880" version="1.1" xmlns="http://www.w3.org/2000/svg">
<defs>
<clipPath id="c0_11"><path d="M-.2 880.3V-.2H1565.5V880.3Z"/></clipPath>
<clipPath id="c1_11"><path d="M216.5 299.2V190.9H327.1V299.2Z"/></clipPath>
<clipPath id="c2_11"><path d="M100.9 300.4V190.9H209.2V300.4Z"/></clipPath>
<clipPath id="c3_11"><path d="M100.9 419.1V310.8h92.3V419.1Z"/></clipPath>
<clipPath id="c4_11"><path d="M565.7 434.8V193.5H868.8V434.8Z"/></clipPath>
<clipPath id="c5_11"><path d="M1162.1 459V205.1h249.3V459Z"/></clipPath>
<style>
.g0_11{fill:#FFF;}
.g1_11{fill:#001A2E;}
.g2_11{fill:#1B4189;}
.g3_11{fill:#22A1E2;}
.g4_11{fill:#1C3D86;}
.g5_11{fill:none;stroke:#69B7FF;stroke-width:3.435;stroke-miterlimit:10;}
.g6_11{fill:#000;fill-opacity:0;}
</style>
</defs>
<g clip-path="url(#c0_11)">
<path d="M0 0H1565.2V880H0V0Z" class="g0_11"/>
<path d="M0 0H1565.2V880H0V0Z" class="g1_11"/>
</g>
<path clip-path="url(#c1_11)" d="M289.4 203.3c-.8 0-1.5-.7-1.5-1.6v-6.2l7.3 7.8h-5.8ZM232 282.4h54.4v12.5c0 .9-.7 1.6-1.5 1.6h-64c-.8 0-1.5-.7-1.5-1.6V211.7c0-.8 .7-1.5 1.5-1.5H228v68.2c0 2.2 1.8 4 4 4ZM298.8 258c.7 0 1.2-.5 1.2-1.2V207.6c0-1.9-1-4.4-2.3-5.7l-8.1-8.3c-1.2-1.3-3.7-2.4-5.5-2.4H232c-2.2 0-4 1.8-4 4v12.5h-7.1c-2.2 0-4 1.8-4 4v83.2c0 2.2 1.8 4 4 4h64c2.2 0 4-1.8 4-4V282.4H296c2.2 0 4-1.8 4-4v-9.9c0-.6-.5-1.2-1.2-1.2c-.7 0-1.2 .6-1.2 1.2v9.9c0 .9-.7 1.6-1.6 1.6H232c-.8 0-1.5-.7-1.5-1.6V195.2c0-.8 .7-1.5 1.5-1.5h52.1c.4 0 1 .1 1.5 .3c-.1 .3-.2 .7-.2 1.2v6.5c0 2.2 1.8 4 4 4h5.9c.8 0 1.3-.1 1.7-.4c.3 .8 .6 1.6 .6 2.3v49.2c0 .7 .5 1.2 1.2 1.2Z" class="g2_11"/>
<path d="M284.2 251.6c-2.3 3-5.8 4.7-9.6 4.7c-2.7 0-5.3-.9-7.4-2.5c-5.3-4.2-6.3-11.8-2.2-17.2c2.3-3 5.8-4.7 9.6-4.7c2.7 0 5.2 .9 7.4 2.5c5.3 4.1 6.3 11.8 2.2 17.2Zm-.7-19.1c-2.6-2-5.7-3.1-8.9-3.1c-4.6 0-8.8 2.1-11.6 5.7c-4.9 6.4-3.7 15.7 2.7 20.6c2.5 2 5.6 3.1 8.9 3.1c4.5 0 8.7-2.1 11.5-5.7c4.9-6.4 3.7-15.7-2.6-20.6Z" class="g3_11"/>
<path d="M323.8 281l-1.4 1.9c-.3 .3-.7 .6-1.2 .6c-.3 0-.7-.2-.9-.4l-22.9-17.7c-.7-.6-.8-1.5-.3-2.2l1.4-1.8c.3-.4 .7-.6 1.2-.6c.4 0 .7 .1 1 .3l22.8 17.8c.4 .2 .6 .6 .6 1c.1 .4 0 .8-.3 1.1ZM293 263.3c-.4 0-.7-.1-1-.3c-.3-.2-.5-.6-.5-1c-.1-.4 0-.8 .3-1.2l3.1-4c.3-.4 .8-.6 1.2-.6c.4 0 .7 .1 1 .3c.6 .5 .7 1.5 .2 2.1l-3.1 4.1c-.3 .4-.8 .6-1.2 .6Zm-29.1-5.2c-7.7-6-9.1-17.1-3.2-24.8c3.4-4.3 8.4-6.8 13.9-6.8c3.9 0 7.6 1.2 10.7 3.6c3.7 2.9 6 7.1 6.6 11.8c.6 4.6-.6 9.2-3.4 12.9l-.1 .1c-3.4 4.4-8.4 6.8-13.8 6.8c-3.9 0-7.6-1.2-10.7-3.6Zm27-2.5l1 .8l-1.2 1.6l-1-.7l.6-.8q0-.1 .1-.1q0-.1 0-.1l.5-.7Zm35.6 24c-.1-1.1-.6-2-1.5-2.7l-22.8-17.8c-.7-.4-1.4-.7-2.2-.8c.3-1.4-.3-2.9-1.5-3.8c-.6-.5-1.5-.8-2.4-.8c-.9 0-1.8 .3-2.5 .9l-1.4-1.1c1.9-3.6 2.7-7.8 2.2-12c-.7-5.3-3.4-10-7.6-13.3c-3.6-2.7-7.8-4.2-12.2-4.2c-6.2 0-12 2.9-15.8 7.8c-6.7 8.8-5.1 21.4 3.6 28.2c3.5 2.7 7.7 4.2 12.2 4.2c5 0 9.7-1.9 13.3-5.2l1.5 1.1c-.3 .7-.4 1.4-.3 2.2c.1 1.1 .6 2 1.5 2.6c.6 .6 1.5 .9 2.4 .9c.5 0 1.1-.2 1.6-.4c.2 .7 .7 1.4 1.3 1.9l22.9 17.8c.7 .5 1.5 .8 2.4 .8c1.2 0 2.4-.6 3.2-1.5l1.3-1.9c.7-.8 1-1.9 .8-2.9Z" class="g3_11"/>
<path d="M282.7 213.2H239.3c-.7 0-1.2-.6-1.2-1.2c0-.7 .5-1.3 1.2-1.3h43.4c.7 0 1.2 .6 1.2 1.3c0 .6-.5 1.2-1.2 1.2Z" class="g2_11"/>
<path d="M282.7 222.4H239.3c-.7 0-1.2-.6-1.2-1.2c0-.7 .5-1.3 1.2-1.3h43.4c.7 0 1.2 .6 1.2 1.3c0 .6-.5 1.2-1.2 1.2Z" class="g2_11"/>
<path d="M282.7 268.4H239.3c-.7 0-1.2-.5-1.2-1.2c0-.7 .5-1.2 1.2-1.2h43.4c.7 0 1.2 .5 1.2 1.2c0 .7-.5 1.2-1.2 1.2Z" class="g2_11"/>
<path d="M253.8 231.6H239.3c-.7 0-1.2-.5-1.2-1.2c0-.7 .5-1.3 1.2-1.3h14.5c.7 0 1.2 .6 1.2 1.3c0 .7-.5 1.2-1.2 1.2Z" class="g2_11"/>
<path d="M253.8 259.2H239.3c-.7 0-1.2-.5-1.2-1.2c0-.7 .5-1.2 1.2-1.2h14.5c.7 0 1.2 .5 1.2 1.2c0 .7-.5 1.2-1.2 1.2Z" class="g2_11"/>
<path d="M251.6 240.8H239.3c-.7 0-1.2-.5-1.2-1.2c0-.7 .5-1.2 1.2-1.2h12.3c.7 0 1.2 .5 1.2 1.2c0 .7-.5 1.2-1.2 1.2Z" class="g2_11"/>
<path d="M251.6 250H239.3c-.7 0-1.2-.5-1.2-1.2c0-.7 .5-1.2 1.2-1.2h12.3c.7 0 1.2 .5 1.2 1.2c0 .7-.5 1.2-1.2 1.2Z" class="g2_11"/>
<path d="M115 286.5h3.3V268.8H115v17.7Zm4.5 2.4h-5.8c-.6 0-1.2-.6-1.2-1.2V267.5c0-.6 .6-1.2 1.2-1.2h5.8c.7 0 1.2 .6 1.2 1.2v20.2c0 .6-.5 1.2-1.2 1.2Z" class="g3_11"/>
<path d="M124.6 286.5h3.3V274.1h-3.3v12.4Zm4.5 2.4h-5.8c-.6 0-1.2-.6-1.2-1.2V272.9c0-.7 .6-1.2 1.2-1.2h5.8c.7 0 1.2 .5 1.2 1.2v14.8c0 .6-.5 1.2-1.2 1.2Z" class="g3_11"/>
<path d="M134.2 286.5h3.3v-7.4h-3.3v7.4Zm4.5 2.4h-5.8c-.6 0-1.2-.6-1.2-1.2v-9.8c0-.7 .6-1.2 1.2-1.2h5.8c.7 0 1.2 .5 1.2 1.2v9.8c0 .6-.5 1.2-1.2 1.2Z" class="g3_11"/>
<path d="M125.6 229.3v-8.4h8.2c-.5 4.3-3.9 7.8-8.2 8.4ZM115 220.9h8.2v8.4c-4.3-.6-7.7-4.1-8.2-8.4Zm8.2-10.4v8h-8.1c.6-4.2 3.9-7.5 8.1-8Zm10.6 8h-8.2v-8c4.2 .5 7.6 3.8 8.2 8Zm-9.4-10.6c-6.5 0-11.9 5.4-11.9 12c0 6.5 5.4 11.9 11.9 11.9c6.6 0 11.9-5.4 11.9-11.9c0-6.6-5.3-12-11.9-12Z" class="g3_11"/>
<path d="M113.7 260.9c-.2 0-.4-.1-.6-.2c-.6-.4-.7-1.1-.4-1.7l5.2-8.2c.2-.4 .6-.6 1-.6h4.9l3.8-7.6c.2-.4 .6-.7 1-.7h6c.6 0 1.2 .6 1.2 1.3c0 .6-.6 1.2-1.2 1.2h-5.2l-3.8 7.6c-.2 .4-.6 .6-1.1 .6h-4.9l-4.8 7.7c-.3 .4-.7 .6-1.1 .6Z" class="g3_11"/>
<path d="M131.1 248.7c-.3 0-.7-.2-.9-.5c-.5-.5-.4-1.2 .1-1.7l4.2-3.5l-4.3-3.4c-.5-.4-.6-1.2-.2-1.7c.4-.5 1.2-.6 1.7-.2l5.5 4.3c.3 .2 .4 .6 .4 1c0 .3-.1 .7-.4 .9l-5.3 4.5c-.3 .2-.5 .3-.8 .3Z" class="g3_11"/>
<path d="M172.2 214H147c-.7 0-1.2-.6-1.2-1.3c0-.6 .5-1.2 1.2-1.2h25.2c.6 0 1.2 .6 1.2 1.2c0 .7-.6 1.3-1.2 1.3Z" class="g4_11"/>
<path d="M172.2 221.1H147c-.7 0-1.2-.6-1.2-1.2c0-.7 .5-1.3 1.2-1.3h25.2c.6 0 1.2 .6 1.2 1.3c0 .6-.6 1.2-1.2 1.2Z" class="g4_11"/>
<path d="M172.2 228.2H147c-.7 0-1.2-.6-1.2-1.2c0-.7 .5-1.3 1.2-1.3h25.2c.6 0 1.2 .6 1.2 1.3c0 .6-.6 1.2-1.2 1.2Z" class="g4_11"/>
<path d="M172.2 243.3H147c-.7 0-1.2-.6-1.2-1.2c0-.7 .5-1.3 1.2-1.3h25.2c.6 0 1.2 .6 1.2 1.3c0 .6-.6 1.2-1.2 1.2Z" class="g4_11"/>
<path d="M172.2 250.4H147c-.7 0-1.2-.6-1.2-1.2c0-.7 .5-1.3 1.2-1.3h25.2c.6 0 1.2 .6 1.2 1.3c0 .6-.6 1.2-1.2 1.2Z" class="g4_11"/>
<path d="M172.2 257.5H147c-.7 0-1.2-.6-1.2-1.2c0-.7 .5-1.2 1.2-1.2h25.2c.6 0 1.2 .5 1.2 1.2c0 .6-.6 1.2-1.2 1.2Z" class="g4_11"/>
<path d="M172.2 274.7H147c-.7 0-1.2-.6-1.2-1.2c0-.7 .5-1.3 1.2-1.3h25.2c.6 0 1.2 .6 1.2 1.3c0 .6-.6 1.2-1.2 1.2Z" class="g4_11"/>
<path d="M172.2 281.8H147c-.7 0-1.2-.6-1.2-1.2c0-.7 .5-1.3 1.2-1.3h25.2c.6 0 1.2 .6 1.2 1.3c0 .6-.6 1.2-1.2 1.2Z" class="g4_11"/>
<path d="M172.2 288.9H147c-.7 0-1.2-.6-1.2-1.2c0-.7 .5-1.2 1.2-1.2h25.2c.6 0 1.2 .5 1.2 1.2c0 .6-.6 1.2-1.2 1.2Z" class="g4_11"/>
<path clip-path="url(#c2_11)" d="M181.8 300H105.1c-2.1 0-3.9-1.7-3.9-3.9V195.2c0-2.2 1.8-3.9 3.9-3.9h62.6c1.8 0 4.2 1 5.5 2.3l10.3 10.8c1.2 1.3 2.2 3.8 2.2 5.6v27.8c0 .6-.5 1.2-1.2 1.2c-.7 0-1.2-.6-1.2-1.2V210c0-1.2-.7-3-1.6-3.9l-10.3-10.8c-.8-.9-2.6-1.6-3.7-1.6H105.1c-.8 0-1.5 .7-1.5 1.5V296.1c0 .8 .7 1.5 1.5 1.5h76.7c.8 0 1.5-.7 1.5-1.5v-37c0-.6 .5-1.2 1.2-1.2c.7 0 1.2 .6 1.2 1.2v37c0 2.2-1.8 3.9-3.9 3.9Z" class="g4_11"/>
<path d="M172.2 196.2v8.6c0 .9 .7 1.6 1.6 1.6h7.9l-9.5-10.2Zm9.6 12.6h-8c-2.2 0-4-1.8-4-4v-8.9c0-1.9 1.1-2.6 2-2.6c.7 0 1.3 .4 2 1l9.7 10.5c1.2 1.2 1 2.2 .8 2.7c-.2 .5-.9 1.3-2.5 1.3Z" class="g4_11"/>
<path d="M181.1 263l-5.6-2.6l23.9-52L205 211l-23.9 52Zm-5.4 4.3l-.4-4.2l3.8 1.7l-3.4 2.5Zm27.1-62.4c.4 0 .9 .2 1.5 .4c.8 .4 1.3 .9 1.5 1.6c.3 .6 .2 1.3 .1 1.8l-2.2-1l-3.1-1.5c.4-.6 1.2-1.3 2.2-1.3Zm5.3 1.2c-.4-1.3-1.4-2.3-2.8-3c-.9-.4-1.7-.6-2.5-.6c-3.4 0-4.9 3.4-5.1 3.8l-24.9 54.2c-.2 .3-.2 .6-.1 .9q.1 .1 .1 .1l.7 8.1c0 .4 .3 .8 .7 1c.1 .1 .3 .1 .5 .1c.2 0 .5-.1 .7-.2l6.5-4.7c.4-.1 .7-.3 .8-.7l25-54.2c.1-.2 1.2-2.5 .4-4.8Z" class="g3_11"/>
<path d="M175.3 368.3c-.7 0-1.2-.5-1.2-1.2V325.2c0-1.2-.7-3-1.6-3.8l-6-6.3c-.8-.8-2.5-1.6-3.7-1.6H121c-.8 0-1.5 .7-1.5 1.5v51.8c0 .7-.5 1.2-1.2 1.2c-.7 0-1.2-.5-1.2-1.2V315c0-2.1 1.8-3.9 3.9-3.9h41.8c1.8 0 4.2 1 5.4 2.3l6.1 6.3c1.2 1.3 2.2 3.7 2.2 5.5v41.9c0 .7-.6 1.2-1.2 1.2Z" class="g3_11"/>
<path d="M167.1 315.3v4.2c0 .9 .7 1.5 1.5 1.5h3.9l-5.4-5.7Zm5.5 8.1h-4c-2.1 0-3.9-1.7-3.9-3.9V315c0-1.9 1.1-2.6 2-2.6c.7 0 1.3 .4 2 1.1l5.6 5.9c1.1 1.3 1 2.3 .7 2.7c-.2 .5-.8 1.3-2.4 1.3Z" class="g3_11"/>
<path d="M136.3 338.1c-.9 0-1.7-.2-2.5-.5l2.9-5.3h6.4c-.5 3.2-3.4 5.8-6.8 5.8Zm-6.9-6.9c0-2.2 1-4.1 2.5-5.4l2.7 5.4l-2.8 5.2c-1.5-1.3-2.4-3.2-2.4-5.2Zm13.7-1.3h-6.5l-2.6-5.2c.7-.3 1.5-.4 2.3-.4c3.3 0 6.1 2.4 6.8 5.6Zm-6.8-8c-1.6 0-3 .4-4.3 1q-.1 .1-.1 .1c-.1 0-.2 .1-.3 .1c-2.7 1.7-4.6 4.6-4.6 8.1c0 5.1 4.2 9.3 9.3 9.3c5.1 0 9.3-4.2 9.3-9.3c0-5.2-4.2-9.3-9.3-9.3Z" class="g4_11"/>
<path d="M159 338v-5.6h5.5c-.5 2.8-2.7 5-5.5 5.6Zm-7.8-5.6h5.4V338c-2.7-.6-4.9-2.8-5.4-5.6Zm5.4-7.7V330h-5.3c.5-2.7 2.6-4.8 5.3-5.3Zm7.8 5.3H159v-5.3c2.8 .5 4.9 2.6 5.4 5.3Zm-6.6-7.8c-5 0-9.1 4.1-9.1 9.1c0 5.1 4.1 9.2 9.1 9.2c5.1 0 9.2-4.1 9.2-9.2c0-5-4.1-9.1-9.2-9.1Z" class="g4_11"/>
<path d="M164.9 346.5H129.1c-.7 0-1.2-.5-1.2-1.2c0-.6 .5-1.2 1.2-1.2h35.8c.6 0 1.2 .6 1.2 1.2c0 .7-.6 1.2-1.2 1.2Z" class="g3_11"/>
<path d="M164.9 351.4H129.1c-.7 0-1.2-.5-1.2-1.2c0-.6 .5-1.2 1.2-1.2h35.8c.6 0 1.2 .6 1.2 1.2c0 .7-.6 1.2-1.2 1.2Z" class="g3_11"/>
<path d="M164.9 356.3H129.1c-.7 0-1.2-.5-1.2-1.2c0-.6 .5-1.2 1.2-1.2h35.8c.6 0 1.2 .6 1.2 1.2c0 .7-.6 1.2-1.2 1.2Z" class="g3_11"/>
<path d="M164.9 361.2H129.1c-.7 0-1.2-.5-1.2-1.2c0-.6 .5-1.2 1.2-1.2h35.8c.6 0 1.2 .6 1.2 1.2c0 .7-.6 1.2-1.2 1.2Z" class="g3_11"/>
<path d="M136.2 379.7c-.7 0-1.2-.6-1.2-1.2V365.6h-3.7v8.6c0 .6-.5 1.2-1.2 1.2c-.6 0-1.1-.6-1.1-1.2v-9.8c0-.6 .5-1.2 1.1-1.2h6.1c.6 0 1.2 .6 1.2 1.2v14.1c0 .6-.6 1.2-1.2 1.2Z" class="g4_11"/>
<path d="M158.1 379.8c-.6 0-1.2-.5-1.2-1.2v-6.2c0-.7 .6-1.2 1.2-1.2h7.7c.6 0 1.2 .5 1.2 1.2c0 .7-.6 1.2-1.2 1.2h-6.5v5c0 .7-.5 1.2-1.2 1.2Z" class="g4_11"/>
<path d="M140.7 377.4h3.6v-8.5h-3.6v8.5Zm4.8 2.4h-6c-.7 0-1.2-.5-1.2-1.2V367.7c0-.7 .5-1.2 1.2-1.2h6c.7 0 1.2 .5 1.2 1.2v10.9c0 .7-.5 1.2-1.2 1.2Z" class="g4_11"/>
<path d="M150 377.4h3.6V365.9H150v11.5Zm4.8 2.4h-6c-.7 0-1.2-.5-1.2-1.2V364.7c0-.7 .5-1.2 1.2-1.2h6c.7 0 1.2 .5 1.2 1.2v13.9c0 .7-.5 1.2-1.2 1.2Z" class="g4_11"/>
<path clip-path="url(#c3_11)" d="M190.5 414.9c-.1 0-.2-.1-.3-.2l-40.4-28.1c-.2-.2-.5-.4-.9-.5c.5-.2 1-.4 1.4-.6l39.8-26.7c.2 0 .3-.1 .4-.2v56.3Zm-84.2 1.2l39.1-27.6c.4-.2 .9-.4 1.5-.4c.6 0 1.2 .2 1.6 .4l39.4 27.6H106.3Zm-2.2-1.4c-.2 .1-.3 .2-.4 .3c0 0-.1-.1-.1-.1V358.5c.2 .1 .3 .2 .5 .3l40.3 26.7c.3 .2 .6 .3 .9 .4c-.5 .2-.9 .4-1.3 .7l-39.9 28.1Zm88.7-58.6c0-.3-.1-.7-.4-.9l-15.7-12.9c-.1 0-.2-.1-.3-.1v3l12.1 9.9H176.4v2.4h11.4l-38.9 26c-.8 .5-2.3 .5-3.2 0l-39.2-26c1.8 0 5.3 .1 10.6 .1v-2.4c-6.7 0-10.5-.1-11.6-.1l11.7-9.6v-3.1l-15.5 12.8c-.4 .3-.5 .7-.5 1.2v58.5c0 2.1 1.8 3.9 4 3.9h83.7c2.2 0 4-1.8 4-3.9V356.3c0-.1 0-.2-.1-.2Z" class="g4_11"/>
<path d="M272.7 393.6H234.1c-15.8 0-28.6-12.9-28.6-28.7c0-15.9 12.8-28.7 28.6-28.7c.9 0 1.8 0 2.8 .1c2.3-14.4 14.8-25.2 29.5-25.2c14.8 0 27.3 10.8 29.5 25.3c8.8-1.2 17.4 1.7 23.6 7.7c.5 .5 .5 1.3 .1 1.7c-.5 .5-1.3 .6-1.8 .1c-4.9-4.7-11.3-7.3-18-7.3c-1.6 0-3.1 .2-4.7 .5c-.3 0-.7-.1-.9-.3c-.3-.2-.5-.5-.5-.8c-1.6-13.9-13.3-24.4-27.3-24.4c-13.9 0-25.6 10.4-27.3 24.2c0 .4-.2 .7-.4 .9c-.3 .2-.6 .2-.9 .2c-1.3-.2-2.5-.3-3.7-.3c-14.4 0-26.1 11.8-26.1 26.3c0 14.4 11.7 26.2 26.1 26.2h38.6c.6 0 1.2 .5 1.2 1.2c0 .7-.6 1.3-1.2 1.3Z" class="g3_11"/>
<path d="M283.1 418.7h-6.8c-2.2 0-4-1.8-4-4V348.2c0-2.2 1.8-4 4-4h6.8c.7 0 1.3 .6 1.3 1.2c0 .7-.6 1.3-1.3 1.3h-6.8c-.8 0-1.5 .7-1.5 1.5v66.5c0 .9 .7 1.6 1.5 1.6h6.8c.7 0 1.3 .5 1.3 1.2c0 .7-.6 1.2-1.3 1.2Z" class="g4_11"/>
<path d="M336 414.7c0 .9-.7 1.6-1.6 1.6H284c-.8 0-1.5-.7-1.5-1.6V348.3c0-.9 .7-1.6 1.5-1.6h40.8c.4 0 1 .1 1.5 .3c-.2 .3-.2 .8-.2 1.3v4.2c0 2.2 1.8 4 4 4h3.6c.8 0 1.3-.2 1.7-.4c.3 .7 .6 1.5 .6 2.2v56.4Zm-7.5-66.1l5.1 5.4h-3.5c-.9 0-1.6-.7-1.6-1.5v-3.9Zm7.6 4l-5.7-6c-1.3-1.3-3.8-2.3-5.6-2.3H284c-2.2 0-4 1.8-4 4v66.4c0 2.3 1.8 4.1 4 4.1h50.4c2.2 0 4-1.8 4-4.1V358.3c0-1.9-1-4.3-2.3-5.7Z" class="g4_11"/>
<path d="M327.8 361.1H290c-.7 0-1.3-.6-1.3-1.2c0-.7 .6-1.3 1.3-1.3h37.8c.6 0 1.2 .6 1.2 1.3c0 .6-.6 1.2-1.2 1.2Z" class="g3_11"/>
<path d="M327.8 367.9H290c-.7 0-1.3-.5-1.3-1.2c0-.7 .6-1.2 1.3-1.2h37.8c.6 0 1.2 .5 1.2 1.2c0 .7-.6 1.2-1.2 1.2Z" class="g3_11"/>
<path d="M327.8 374.8H290c-.7 0-1.3-.6-1.3-1.3c0-.6 .6-1.2 1.3-1.2h37.8c.6 0 1.2 .6 1.2 1.2c0 .7-.6 1.3-1.2 1.3Z" class="g3_11"/>
<path d="M327.8 381.6H290c-.7 0-1.3-.5-1.3-1.2c0-.7 .6-1.2 1.3-1.2h37.8c.6 0 1.2 .5 1.2 1.2c0 .7-.6 1.2-1.2 1.2Z" class="g3_11"/>
<path d="M296.8 407h3.4V389h-3.4v18Zm4.6 2.4h-5.8c-.7 0-1.3-.5-1.3-1.2V387.8c0-.7 .6-1.2 1.3-1.2h5.8c.7 0 1.2 .5 1.2 1.2v20.4c0 .7-.5 1.2-1.2 1.2Z" class="g3_11"/>
<path d="M306.5 407h3.4V394.4h-3.4V407Zm4.6 2.4h-5.8c-.7 0-1.3-.5-1.3-1.2v-15c0-.7 .6-1.2 1.3-1.2h5.8c.7 0 1.3 .5 1.3 1.2v15c0 .7-.6 1.2-1.3 1.2Z" class="g3_11"/>
<path d="M316.2 407h3.4v-7.5h-3.4V407Zm4.6 2.4H315c-.7 0-1.2-.5-1.2-1.2v-9.9c0-.7 .5-1.2 1.2-1.2h5.8c.7 0 1.3 .5 1.3 1.2v9.9c0 .7-.6 1.2-1.3 1.2Z" class="g3_11"/>
<image clip-path="url(#c0_11)" preserveAspectRatio="none" x="0" y="176" width="456" height="251" href="img/1.png"/>
<path d="M748.4 277.4c-16.1 0-24.3-8.2-27.9-13.4c-12.8 16.2-33.6 11.9-33.8 11.9c-1.5-.3-2.4-1.8-2.1-3.3c.3-1.5 1.8-2.4 3.2-2.1c.8 .2 20.3 4.1 30.6-13c.5-.9 1.6-1.4 2.6-1.3c1.1 .1 2 .8 2.3 1.7c.3 .8 7 17.6 33.1 13.4c1.5-.3 2.9 .7 3.1 2.2c.3 1.5-.8 2.9-2.2 3.2c-3.2 .5-6.2 .7-8.9 .7Z" class="g3_11"/>
<path d="M721.9 242.2c-18 0-32.6 15.3-32.6 34c0 18.8 14.6 34.1 32.6 34.1c17.9 0 32.5-15.3 32.5-34.1c0-18.7-14.6-34-32.5-34Zm0 73.6c-21 0-38.1-17.8-38.1-39.6c0-21.8 17.1-39.5 38.1-39.5c20.9 0 38 17.7 38 39.5c0 21.8-17.1 39.6-38 39.6Z" class="g4_11"/>
<path clip-path="url(#c4_11)" d="M668 429H775.7V367.4c0-24.3-19.8-44.1-44.1-44.1H712.2c-24.4 0-44.2 19.8-44.2 44.1V429Zm110.4 5.5H665.3c-1.5 0-2.7-1.2-2.7-2.7V367.4c0-27.3 22.2-49.5 49.6-49.5h19.4c27.3 0 49.6 22.2 49.6 49.5v64.4c0 1.5-1.3 2.7-2.8 2.7Z" class="g4_11"/>
<path d="M719.8 397.8L711.5 382l7.7-34c.4 .3 1 .5 1.5 .5c.5 0 .9-.1 1.3-.4l6.9 35.1l-9.1 14.6Zm.9-65.1l4.5 4.5l-4.5 4.6l-4.5-4.6l4.5-4.5Zm13.7 50.5l-7.7-39.7l4.3-4.3c1-1.1 1-2.8 0-3.9l-8.3-8.5c-1.1-1-2.9-1-4 0l-8.2 8.5c-1.1 1.1-1.1 2.8 0 3.9l4.1 4.2l-8.7 38.4c-.1 .6 0 1.3 .3 1.9l11 20.8c.4 .9 1.3 1.5 2.3 1.5h.1c.9 0 1.8-.5 2.3-1.3l12.2-19.5c.3-.6 .5-1.3 .3-2Z" class="g3_11"/>
<path d="M641.8 301.7q-.1 0-.1 0c-1.2 0-2.2 .7-2.6 1.8l-5.9 18.2l-3.3-7.1L643.4 290l3.3 11.7h-4.9Zm-22.3 20.9l-8.1-20.9c-.4-1.1-1.5-1.8-2.6-1.8l-5.1 .1l4-10.4l15.6 24.9c-.1 .1-.2 .3-.2 .4l-3.6 7.7ZM653 303.7l-5.7-19.9c-.4-1.4-1.9-2.3-3.4-1.8c-.2 0-.3 .1-.5 .1c-1.1-.1-2.2 .4-2.8 1.4l-14.1 25.8L610.7 284c-.3-.5-.8-.8-1.2-1.1c-.3-.7-.9-1.3-1.6-1.6c-1.4-.5-3 .2-3.5 1.6l-7.3 18.9c-.3 .9-.2 1.8 .4 2.6c.5 .7 1.3 1.2 2.2 1.1l7.3-.1l9.7 25.2c.4 1 1.4 1.7 2.5 1.7h.1c1 0 2-.6 2.4-1.6l4.8-10.3l4.8 9.9c.4 1 1.4 1.6 2.4 1.6q.1 0 .2 0c1.1-.1 2.1-.8 2.4-1.9l7.4-22.9l6.6 .1c.9 .1 1.7-.4 2.2-1c.6-.7 .7-1.6 .5-2.5Z" class="g3_11"/>
<path d="M660.1 244.3c-.3 0-.6 0-.9-.1c-8.6-2.9-13.1-11.2-15.2-16.5c-19.8 18.6-52.4 12.7-53.8 12.4c-1.5-.3-2.5-1.7-2.2-3.2c.3-1.5 1.7-2.5 3.2-2.2c.3 .1 34.7 6.3 51.9-14c.7-.8 1.8-1.2 2.8-.9c1 .2 1.8 1 2 2.1c0 .1 3.2 13.8 13.1 17.1c1.4 .5 2.2 2 1.7 3.5c-.4 1.1-1.5 1.8-2.6 1.8Z" class="g3_11"/>
<path clip-path="url(#c4_11)" d="M663.7 396.7h-95c-1.5 0-2.7-1.2-2.7-2.8V329.6c0-27.4 22.2-49.6 49.6-49.6H635c27.3 0 49.6 22.2 49.6 49.6v.6c0 1.6-1.2 2.8-2.8 2.8c-1.5 0-2.7-1.2-2.7-2.8v-.6c0-24.3-19.8-44.1-44.1-44.1H615.6c-24.4 0-44.1 19.8-44.1 44.1v61.6h92.2c1.5 0 2.8 1.2 2.8 2.7c0 1.6-1.3 2.8-2.8 2.8Z" class="g4_11"/>
<path d="M625.3 204.3c-18 0-32.6 15.3-32.6 34.1c0 18.8 14.6 34.1 32.6 34.1c17.9 0 32.5-15.3 32.5-34.1c0-18.8-14.6-34.1-32.5-34.1Zm0 73.6c-21 0-38.1-17.7-38.1-39.5c0-21.8 17.1-39.5 38.1-39.5c20.9 0 38 17.7 38 39.5c0 21.8-17.1 39.5-38 39.5Z" class="g4_11"/>
<path d="M814 199.3c-5.2 0-9.4 3.2-9.4 7.1c0 3.8 4.2 7 9.4 7c5.2 0 9.5-3.2 9.5-7c0-3.9-4.3-7.1-9.5-7.1Zm0 19.6c-8.2 0-14.9-5.6-14.9-12.5c0-6.9 6.7-12.6 14.9-12.6c8.3 0 15 5.7 15 12.6c0 6.9-6.7 12.5-15 12.5Z" class="g3_11"/>
<path d="M837.9 251.3c-14.7 0-22.4-7.3-25.8-12.2c-11.9 14.8-31.1 10.9-31.3 10.8c-1.5-.3-2.4-1.8-2.1-3.2c.3-1.5 1.8-2.4 3.2-2.1c.8 .1 18.6 3.7 28.1-12c.5-.9 1.6-1.4 2.6-1.3c1.1 .1 2 .8 2.3 1.8c.3 .6 6.4 16.1 30.4 12.1c1.5-.2 2.9 .8 3.1 2.3c.2 1.5-.8 2.9-2.3 3.1c-2.9 .5-5.7 .7-8.2 .7Z" class="g3_11"/>
<path d="M813.4 218.8c-16.5 0-29.9 14-29.9 31.3c0 17.2 13.4 31.3 29.9 31.3c16.5 0 29.9-14.1 29.9-31.3c0-17.3-13.4-31.3-29.9-31.3Zm0 68c-19.5 0-35.4-16.5-35.4-36.7c0-20.3 15.9-36.8 35.4-36.8c19.5 0 35.4 16.5 35.4 36.8c0 20.2-15.9 36.7-35.4 36.7Z" class="g4_11"/>
<path d="M824.2 319.5l-7.4-7.8l19.2-15l.4 .2l-12.2 22.6Zm-22.9-.3l-10.2-22.9l1.3-.4l16.5 15.3l-7.6 8Zm40.2-25.6l-4.3-2.6c-1-.6-2.2-.5-3.1 .2l-21 16.4l-18.2-16.9c-.8-.7-1.9-.9-2.8-.6l-5.6 2.1c-.7 .3-1.3 .8-1.6 1.5c-.3 .7-.3 1.5 .1 2.2l13 29.3c.4 .8 1.2 1.4 2.1 1.6c.1 0 .3 0 .4 0c.8 0 1.5-.3 2-.9l10.1-10.7L822.8 326c.5 .5 1.2 .8 2 .8c.1 0 .2 0 .3 0c.9-.1 1.7-.6 2.1-1.4l15.3-28.1c.7-1.3 .2-2.9-1-3.7Z" class="g3_11"/>
<path d="M865.7 396.7H778.8c-1.5 0-2.7-1.2-2.7-2.8c0-1.5 1.2-2.7 2.7-2.7H863V334.4c0-22.4-18.3-40.6-40.7-40.6H804.4c-21.7 0-39 15.7-40.4 36.6c-.1 1.5-1.4 2.6-2.9 2.5c-1.5-.1-2.6-1.4-2.6-2.9c1.6-23.7 21.3-41.7 45.9-41.7h17.9c25.5 0 46.1 20.7 46.1 46.1v59.5c0 1.6-1.2 2.8-2.7 2.8Z" class="g4_11"/>
<path clip-path="url(#c5_11)" d="M1334.3 449.8H1187.6V231.2h146.7v27.9h-48.5c-6 0-11.6 2.5-15.6 6.9c-2.3 2.6-4 5.6-4.8 8.9c-.3 1.1-.5 2.2-.6 3.4c0 .2 0 .4-.1 .6c0 .3 0 .6 0 1c0 .1 0 .2 0 .3c0 .2 0 .4 0 .6c0 .2 0 .5 0 .7c.1 .1 .1 .2 .1 .3c0 .1 0 .3 0 .4c.1 .9 .2 1.8 .4 2.6c0 0 0 .1 0 .1c.1 .2 .2 .4 .2 .7c.9 3.2 2.5 6.3 4.8 8.8c4 4.4 9.7 6.8 15.6 6.8H1332c.5 2.1 1.3 4.3 2.3 6.5V449.8ZM1171.5 433V214.5h146.8v7.7H1183c-2.5 0-4.5 2-4.5 4.5V433h-7Zm235.4-48.9c-13.4 0-26.7 2-39.4 5.9l-16.3 5.1h-7.8V319.8c4.5 3.9 10.6 6.7 18.4 7.2c2.4 0 4.4-1.9 4.6-4.3c.1-2.5-1.8-4.6-4.3-4.8c-10.6-.6-16.1-7.1-19-12.8c-.1-.3-.3-.6-.4-.8c-2-4.2-2.5-7.8-2.6-8.2c-.3-2.2-2.2-3.9-4.4-3.9h-49.2c-6.5 0-12.1-4.7-12.7-10.8c0 0 0-.1 0-.2c0-.1 0-.2 0-.4c0 0 0-.1 0-.2c0-.1-.1-.3-.1-.4c0-.1 0-.2 .1-.3c0-.1 0-.2 0-.3c0-.1 0-.2 0-.3c0-.1 0-.2 0-.3c.6-6.1 6.2-10.8 12.8-10.8h49.8c8.8 0 17.3 3.3 23.7 9.3l24.2 22.5c.9 .8 2 1.2 3.1 1.2h19.5c2.5 0 4.5-2 4.5-4.5c0-2.5-2-4.5-4.5-4.5h-17.7l-22.9-21.3c-6.4-6-14.4-9.8-22.9-11.2v-33c0-2.5-2.1-4.5-4.6-4.5h-11.5V209.9c0-2.5-2-4.5-4.5-4.5H1167c-2.5 0-4.5 2-4.5 4.5V437.5c0 2.5 2 4.6 4.5 4.6h11.5v12.2c0 2.5 2 4.6 4.5 4.6h155.8c2.5 0 4.6-2.1 4.6-4.6V404.1h8.5c.4 0 .9 0 1.3-.2l17-5.2c11.9-3.7 24.2-5.6 36.7-5.6c2.5 0 4.5-2 4.5-4.5c0-2.5-2-4.5-4.5-4.5Z" class="g2_11"/>
<path d="M1260.9 427c-11.3 0-21.7-3.8-30-10.2l32.8-34.6h46.4c-2.3 25.1-23.5 44.8-49.2 44.8Zm-49.4-49.3c0-11.1 3.7-21.4 9.9-29.6l33.8 29.8l-30.9 32.8c-7.9-8.8-12.8-20.4-12.8-33Zm45.7-10.1l-29.7-26.2c7.9-7.4 18.3-12.1 29.7-13v39.2Zm57.6 5.5h-48.6V323.8c0-2.4-2.2-4.4-4.5-4.5c-.3-.1-.5-.1-.8-.1c-17 0-32.4 7.3-43 19c-.2 .1-.3 .3-.4 .4c-.1 .1-.2 .2-.3 .4c-9.2 10.3-14.7 23.8-14.7 38.7c0 16.7 7.1 31.8 18.4 42.5c.1 .1 .2 .2 .3 .3c.1 .1 .3 .2 .4 .3c10.4 9.5 24.2 15.3 39.3 15.3c32.3 0 58.5-26.2 58.5-58.4c0-2.5-2.1-4.6-4.6-4.6Z" class="g2_11"/>
<path d="M1286.6 329c11.9 2.1 21.3 11.7 23.2 23.7h-23.2V329Zm-4.6 32.7h32.7c2.5 0 4.5-2 4.5-4.5c0-20.5-16.6-37.4-37.1-37.7c-1.2 .1-2.4 .5-3.2 1.3c-.9 .9-1.4 2-1.4 3.2v33.2c0 2.5 2 4.5 4.5 4.5Z" class="g2_11"/>
<path d="M1207 253.5h28.2c2.5 0 4.5-2.1 4.5-4.6c0-2.5-2-4.5-4.5-4.5H1207c-2.5 0-4.5 2-4.5 4.5c0 2.5 2 4.6 4.5 4.6Z" class="g2_11"/>
<path d="M1207 271.2h42.6c2.5 0 4.6-2 4.6-4.5c0-2.5-2.1-4.5-4.6-4.5H1207c-2.5 0-4.5 2-4.5 4.5c0 2.5 2 4.5 4.5 4.5Z" class="g2_11"/>
<path d="M1207 289h42.6c2.5 0 4.6-2 4.6-4.5c0-2.5-2.1-4.5-4.6-4.5H1207c-2.5 0-4.5 2-4.5 4.5c0 2.5 2 4.5 4.5 4.5Z" class="g2_11"/>
<path d="M1207 306.8h42.6c2.5 0 4.6-2 4.6-4.5c0-2.5-2.1-4.5-4.6-4.5H1207c-2.5 0-4.5 2-4.5 4.5c0 2.5 2 4.5 4.5 4.5Z" class="g2_11"/>
<path d="M1159.9 100.2c-.1 1.3-.3 2.4-.6 3.5c-.4 1-.8 1.9-1.3 2.7c-.5 .8-1 1.5-1.5 2.1c-.6 .6-1.2 1.1-1.7 1.4c-1.6 1.1-3.4 1.8-5.5 2.1c-2 .3-4.1 .4-6.1 .4c-1.2 0-2.4 0-3.7-.1c-1.2-.1-2.5-.3-3.7-.6c-1.2-.3-2.4-.7-3.6-1.3c-1.1-.6-2.2-1.4-3.2-2.4c-1-.9-1.8-1.9-2.4-3c-.6-1-1.1-2.1-1.4-3.2c-.3-1.1-.6-2.1-.7-3.2c-.1-1-.2-2-.2-3c0-1 .1-2 .2-3.1c.1-1.1 .4-2.1 .7-3.2c.3-1 .8-2.1 1.4-3.1c.6-1 1.3-1.9 2.2-2.9c1-1 2.1-1.8 3.3-2.5c1.2-.6 2.4-1.1 3.6-1.4c1.2-.4 2.4-.6 3.5-.7c1.2-.1 2.3-.2 3.3-.2c.5 0 1.3 .1 2.3 .1c1 0 2.1 .2 3.3 .4c1.2 .1 2.4 .4 3.6 .8c1.2 .4 2.3 .9 3.3 1.6c.4 .3 .9 .6 1.4 1.1c.5 .5 1 1.1 1.5 1.8c.5 .7 .9 1.6 1.2 2.5c.3 1 .5 2.1 .5 3.4h-8.8c0-.8-.2-1.5-.6-2.2c-.3-.7-.9-1.2-1.7-1.8c-.9-.5-1.8-.9-2.8-1c-.9-.2-1.8-.3-2.6-.3c-1.2 0-2.4 .2-3.6 .5c-1.2 .2-2.3 .9-3.4 2.1c-.6 .7-1.2 1.7-1.8 2.9c-.5 1.3-.8 3-.8 5.2c0 2.1 .3 3.8 .8 5.1c.6 1.3 1.2 2.3 1.9 3c1.1 1 2.2 1.7 3.4 1.9c1.3 .3 2.4 .4 3.5 .4c.4 0 .8 0 1.3 0c.5 0 1-.1 1.5-.2c.5-.1 1-.2 1.5-.3c.5-.2 .9-.4 1.3-.7c.5-.4 1-.9 1.5-1.7c.5-.7 .8-1.7 .9-2.9h8.8Zm23.8-15.3c-1.1 0-2.2 .1-3.5 .4c-1.2 .3-2.4 1-3.5 2.1c-.7 .6-1.2 1.3-1.6 2.1c-.3 .7-.6 1.5-.8 2.2c-.2 .7-.4 1.4-.4 2.1c-.1 .6-.1 1.2-.1 1.6c0 .5 0 1.1 .1 1.7c0 .7 .2 1.4 .4 2.1c.2 .7 .5 1.5 .8 2.2c.4 .8 .9 1.5 1.6 2.1c1.1 1.1 2.3 1.8 3.5 2c1.3 .3 2.4 .5 3.5 .5c1 0 2.2-.2 3.4-.5c1.3-.2 2.4-.9 3.5-2c.7-.6 1.2-1.3 1.6-2.1c.4-.7 .7-1.5 .9-2.2c.2-.7 .3-1.4 .4-2.1c0-.6 .1-1.2 .1-1.7c0-.4-.1-1-.1-1.6c-.1-.7-.2-1.4-.4-2.1c-.2-.7-.5-1.5-.9-2.2c-.4-.8-.9-1.5-1.6-2.1c-1.1-1.1-2.2-1.8-3.5-2.1c-1.2-.3-2.4-.4-3.4-.4Zm19 10.5c0 1 0 2-.2 3c-.1 1.1-.3 2.1-.7 3.2c-.3 1-.9 2.1-1.5 3.1c-.7 1.1-1.5 2.1-2.6 3c-.6 .6-1.3 1.1-2.2 1.7c-.8 .5-1.8 1-3 1.5c-1.1 .4-2.4 .8-3.9 1.1c-1.4 .2-3.1 .4-4.9 .4c-1.9 0-3.5-.2-5-.4c-1.4-.3-2.7-.7-3.9-1.1c-1.1-.5-2.1-1-3-1.5c-.8-.6-1.5-1.1-2.1-1.7c-1.1-.9-2-1.9-2.6-3c-.7-1-1.2-2.1-1.6-3.1c-.3-1.1-.6-2.1-.7-3.2c-.1-1-.2-2-.2-3c0-.9 .1-1.9 .2-2.9c.1-1.1 .4-2.1 .7-3.2c.4-1 .9-2.1 1.6-3.1c.6-1 1.5-2.1 2.6-3c.6-.6 1.3-1.1 2.1-1.7c.9-.5 1.9-1 3-1.5c1.2-.4 2.5-.8 3.9-1.1c1.5-.3 3.1-.4 5-.4c1.8 0 3.5 .1 4.9 .4c1.5 .3 2.8 .7 3.9 1.1c1.2 .5 2.2 1 3 1.5c.9 .6 1.6 1.1 2.2 1.7c1.1 .9 1.9 2 2.6 3c.6 1 1.2 2.1 1.5 3.1c.4 1.1 .6 2.1 .7 3.2c.2 1 .2 2 .2 2.9Zm15.5-7.8h-.3l.3 2.7v21.2h-8.4V79.4h11.9l9.1 23.3h.2l9.1-23.3H1252v32.1h-8.5V90.3l.4-2.7h-.4l-9.6 23.9h-6.1l-9.6-23.9Zm50.8 7.1h7.6c.4 0 .8-.1 1.3-.1c.5 0 .9-.1 1.4-.2c.4-.1 .9-.2 1.3-.4c.4-.2 .7-.4 1-.7c.3-.3 .6-.8 .9-1.3c.2-.6 .3-1.2 .3-2c0-.8-.1-1.4-.4-2c-.3-.5-.7-.9-1.2-1.3c-.1-.1-.5-.3-1.1-.5c-.7-.3-1.6-.4-3-.4H1269v8.9Zm8.8-15.3c1.1 0 2.1 0 3.1 .1c1 .1 1.9 .2 2.8 .4c.9 .2 1.8 .5 2.6 .9c.8 .3 1.5 .9 2.2 1.5c.6 .6 1.1 1.2 1.5 1.8c.4 .6 .7 1.3 1 2c.2 .6 .3 1.3 .4 1.9c.1 .7 .1 1.3 .1 1.9c0 1.3-.2 2.6-.5 3.9c-.3 1.3-1 2.6-2.1 3.7c-.7 .8-1.6 1.5-2.4 1.9c-.9 .4-1.8 .8-2.8 1c-1 .2-2 .4-3.1 .4c-1.1 .1-2.2 .1-3.4 .1H1269v10.6h-8.4V79.4h17.2Zm45.9 32.1h-25.9V79.4h8.4V105h17.5v6.5Zm14.1-32.1v32.1h-8.4V79.4h8.4ZM1366 99.5l-4.9-12l-4.9 12h9.8Zm-14.6 12h-8.8l14.3-32.1h8.3l14.4 32.1h-8.8L1368 105h-13.9l-2.7 6.5Zm65.5 0h-8.1l-16.2-21.6v21.6h-8.5V79.4h8.3l16.1 21.5V79.4h8.4v32.1Zm42.7-11.3c-.1 1.3-.3 2.4-.6 3.5c-.3 1-.8 1.9-1.3 2.7c-.4 .8-1 1.5-1.5 2.1c-.6 .6-1.1 1.1-1.7 1.4c-1.6 1.1-3.4 1.8-5.5 2.1c-2 .3-4 .4-6.1 .4c-1.2 0-2.4 0-3.6-.1c-1.3-.1-2.5-.3-3.8-.6c-1.2-.3-2.4-.7-3.5-1.3c-1.2-.6-2.3-1.4-3.3-2.4c-1-.9-1.8-1.9-2.4-3c-.6-1-1-2.1-1.4-3.2c-.3-1.1-.6-2.1-.7-3.2c-.1-1-.2-2-.2-3c0-1 .1-2 .2-3.1c.1-1.1 .4-2.1 .7-3.2c.4-1 .8-2.1 1.4-3.1c.6-1 1.3-1.9 2.2-2.9c1-1 2.1-1.8 3.3-2.5c1.2-.6 2.4-1.1 3.6-1.4c1.2-.4 2.4-.6 3.5-.7c1.2-.1 2.3-.2 3.3-.2c.5 0 1.3 .1 2.3 .1c1.1 0 2.2 .2 3.4 .4c1.2 .1 2.4 .4 3.6 .8c1.2 .4 2.3 .9 3.2 1.6c.5 .3 .9 .6 1.4 1.1c.6 .5 1.1 1.1 1.5 1.8c.5 .7 .9 1.6 1.2 2.5c.3 1 .5 2.1 .6 3.4h-8.8c-.1-.8-.3-1.5-.7-2.2c-.3-.7-.9-1.2-1.7-1.8c-.9-.5-1.8-.9-2.7-1c-1-.2-1.9-.3-2.7-.3c-1.2 0-2.4 .2-3.5 .5c-1.2 .2-2.4 .9-3.4 2.1c-.7 .7-1.3 1.7-1.8 2.9c-.6 1.3-.9 3-.9 5.2c0 2.1 .3 3.8 .9 5.1c.5 1.3 1.2 2.3 1.9 3c1 1 2.2 1.7 3.4 1.9c1.2 .3 2.3 .4 3.4 .4c.4 0 .9 0 1.3 0c.5 0 1-.1 1.5-.2c.5-.1 1-.2 1.5-.3c.5-.2 .9-.4 1.3-.7c.5-.4 1-.9 1.5-1.7c.5-.7 .8-1.7 .9-2.9h8.8Zm32.3-8.1v6.1h-17.6v6.9h21.3v6.4h-29.7V79.4h29.2v6.4h-20.8v6.3h17.6Z" class="g5_11"/>
<g clip-path="url(#c0_11)">
<image preserveAspectRatio="none" x="1074" y="0" width="474" height="131" href="img/2.png"/>
<image preserveAspectRatio="none" x="5" y="787" width="418" height="77" href="img/3.png"/>
<image preserveAspectRatio="none" x="0" y="695" width="348" height="166" href="img/4.png"/>
<image preserveAspectRatio="none" x="500" y="418" width="507" height="177" href="img/5.png"/>
<image preserveAspectRatio="none" x="1051" y="209" width="435" height="232" href="img/6.png"/>
<image preserveAspectRatio="none" x="15" y="522" width="508" height="240" href="img/7.png"/>
<image preserveAspectRatio="none" x="612" y="349" width="212" height="161" href="img/8.png"/>
<image preserveAspectRatio="none" x="521" y="222" width="395" height="206" href="img/9.png"/>
<image preserveAspectRatio="none" x="494" y="139" width="449" height="162" href="img/10.png"/>
<image preserveAspectRatio="none" x="414" y="55" width="607" height="185" href="img/11.png"/>
<image preserveAspectRatio="none" x="1060" y="425" width="417" height="217" href="img/12.png"/>
<image preserveAspectRatio="none" x="529" y="572" width="814" height="270" href="img/13.png"/>
</g>
<path d="M101.2 300h108V191.2h-108V300Z" class="g6_11"/>
<path d="M216.8 298.4H327V191.2H216.8V298.4Z" class="g6_11"/>
<path d="M101.2 418.3h91.4V311.1H101.2V418.3Z" class="g6_11"/>
<path d="M205.5 418.3H338.3V311.1H205.5V418.3Z" class="g6_11"/>
<path d="M566 434.9H868.8V193.8H566V434.9Z" class="g6_11"/>
<path d="M1162.4 458.9h249.1V205.4H1162.4V458.9Z" class="g6_11"/>
</svg>