<svg viewBox="0 0 1565 880" version="1.1" xmlns="http://www.w3.org/2000/svg">
<defs>
<clipPath id="c0_6"><path d="M-.2 880.3V-.2H1565.5V880.3Z"/></clipPath>
<clipPath id="c1_6"><path d="M913.7 880.3H782.2l85-355.4l131.4 .1L913.7 880.3Z"/></clipPath>
<clipPath id="c2_6"><path d="M1133.5 880.3H1002l84.9-355.4l131.5 .1l-84.9 355.3Z"/></clipPath>
<clipPath id="c3_6"><path d="M1349.1 880.3H1217.7l84.9-355.4l131.5 .1l-85 355.3Z"/></clipPath>
<style>
.g0_6{fill:#FFF;}
.g1_6{fill:#001A2E;}
.g2_6{fill:#000;fill-opacity:0;}
</style>
</defs>
<g clip-path="url(#c0_6)">
<path d="M0 0H1565.2V880H0V0Z" class="g0_6"/>
<path d="M0 0H1565.2V880H0V0Z" class="g1_6"/>
</g>
<image clip-path="url(#c1_6)" preserveAspectRatio="none" x="625" y="525" width="531" height="355" href="img/1.jpg"/>
<image clip-path="url(#c2_6)" preserveAspectRatio="none" x="844" y="525" width="532" height="355" href="img/2.jpg"/>
<image clip-path="url(#c3_6)" preserveAspectRatio="none" x="1060" y="525" width="532" height="355" href="img/3.jpg"/>
<g clip-path="url(#c0_6)">
<image preserveAspectRatio="none" x="0" y="689" width="625" height="148" href="img/4.png"/>
<image preserveAspectRatio="none" x="26" y="213" width="537" height="110" href="img/5.png"/>
<image preserveAspectRatio="none" x="14" y="103" width="305" height="121" href="img/6.png"/>
<image preserveAspectRatio="none" x="814" y="213" width="570" height="110" href="img/7.png"/>
<image preserveAspectRatio="none" x="803" y="103" width="363" height="121" href="img/8.png"/>
<image preserveAspectRatio="none" x="27" y="394" width="527" height="69" href="img/9.png"/>
<image preserveAspectRatio="none" x="19" y="329" width="616" height="75" href="img/10.png"/>
<image preserveAspectRatio="none" x="821" y="395" width="347" height="88" href="img/11.png"/>
<image preserveAspectRatio="none" x="804" y="329" width="536" height="75" href="img/12.png"/>
<image preserveAspectRatio="none" x="1281" y="47" width="251" height="47" href="img/13.png"/>
<image preserveAspectRatio="none" x="1262" y="0" width="226" height="92" href="img/14.png"/>
</g>
<path d="M782.6 880H998.3V525.3H782.6V880Z" class="g2_6"/>
<path d="M1002.4 880H1218V525.3H1002.4V880Z" class="g2_6"/>
<path d="M1218 880h215.7V525.3H1218V880Z" class="g2_6"/>
</svg>