<svg viewBox="0 0 1565 880" version="1.1" xmlns="http://www.w3.org/2000/svg">
<defs>
<clipPath id="c0_10"><path d="M-.2 880.3V-.2H1565.5V880.3Z"/></clipPath>
<clipPath id="c1_10"><path d="M626.4 293.8L467.7 254.9l25.2-103l158.7 38.9l-25.2 103Z"/></clipPath>
<clipPath id="c2_10"><path d="M460.4 624.4l-98.7-117L482.2 405.8l98.7 116.9L460.4 624.4Z"/></clipPath>
<clipPath id="c3_10"><path d="M1103.1 618L961.4 549.2l66.8-137.6l.3-.1L1170 480.4L1103.1 618Z"/></clipPath>
<clipPath id="c4_10"><path d="M1267.1 417.1l-84.6-191L1380 138.7l84.4 190.4l.2 .3l-197.5 87.7Z"/></clipPath>
<style>
.g0_10{fill:#FFF;}
.g1_10{fill:#001A2E;}
.g2_10{fill:#8C52FF;}
.g3_10{fill:none;stroke:#69B7FF;stroke-width:3.435;stroke-miterlimit:10;}
.g4_10{fill:#FF5757;}
.g5_10{fill:#000;fill-opacity:0;}
</style>
</defs>
<g clip-path="url(#c0_10)">
<path d="M0 0H1565.2V880H0V0Z" class="g0_10"/>
<path d="M0 0H1565.2V880H0V0Z" class="g1_10"/>
</g>
<path clip-path="url(#c1_10)" d="M618.5 191.8c-1.7-5.3-2.6-9.4 1.5-7.1c1.3 .8 3.2 2.9 5.6 7.2c2.4 4.3 5.4 10.8 8.3 20.1c5 16.2 6.6 23.4 5.7 24.5c-.7 .7-3 .8-8.9 .2c-5.8-.4-15.3-1.9-29.4-1.9c-4.1 0-12-.2-13.6-2.4c-1.4-2 3-3.4 7.7-3.8c14.3-1 25.2 1.1 27 .8c1.1-.2-2-1.9-5.8-5c-7.4-6-15.4-11.6-23.1-16.1c-11.6-6.5-23.9-11.1-36.1-13c-12.2-2-24.2-1.4-34.5 1.4c-10.4 2.8-19 7.8-25.3 13.5c-6.4 5.7-10.7 11.8-13.4 16.7c-4.4 8.6-5.6 15.3-6.1 19.7c-.4 4.3-.2 6.5-.2 7c-.1 1.4-.7 3.1-1.7 3c-.5-.1-1.1-.6-1.8-1.9c-.3-.7-.6-1.5-1-2.6c-.2-1.1-.5-2.4-.7-4c-.9-6.8 .9-15.8 5.2-24.3c5-9.9 13-18.7 22.6-25c9.6-6.4 20.5-9.6 30.8-11.1c13.6-1.8 26.3-.3 37.3 2.6c11 2.9 20.4 7.4 28.4 11.8c10.1 5.9 17.2 11.5 22.2 15.3c4.8 3.9 7.6 6.1 8.4 6.5c2 .9-1.3-8.9-4.1-18c-.7-2.5-3.2-8.9-5-14.1Z" class="g2_10"/>
<g clip-path="url(#c2_10)">
<path fill-rule="evenodd" d="M572.8 519c-5.2 5.5-9.6 9.4-13.4 12.3c-6 4.7-10.7 6.8-15.4 8.8c-16.1 7.1-32.4 9.6-48.3 8.7c-11-.6-21.8-3-32.1-6.8c-25.4-9.3-48-27.6-63.5-52.1c-.7-1.1-2.1-1.4-3.2-.8c-1.1 .7-1.5 2.2-.8 3.3c15.1 26.4 38 47.1 64.4 57.6c11.1 4.4 22.8 7.1 34.7 7.6c17.2 .9 34.8-2.6 51.9-10.7c5.1-2.5 10.1-5 16.5-10.4c3.9-3.3 8.2-7.6 13.4-13.7c1.1-1.1 1-3-.2-4c-1.2-1.1-3-1-4 .2Z" class="g2_10"/>
<path fill-rule="evenodd" d="M441.9 490.4c-4.6-.7-14.6-2.4-24.3-3.8c-12.3-1.9-24.3-3.5-24.3-3.5c-1.3-.1-2.5 .3-3.4 1.1c-1 .8-1.6 2-1.6 3.2c0 0-.2 16.4 .2 30.8c.2 9.7 .7 18.4 1.1 20.9c.2 1.2 1.4 2.2 2.7 2c1.2-.2 2.2-1.3 2-2.6l2.6-46c4.7 .5 12.1 1.3 19.8 1.9c9.8 .9 19.9 1.5 24.6 1.8c1.6 .1 3-1 3.1-2.6c.2-1.6-.9-3-2.5-3.2Z" class="g2_10"/>
</g>
<path d="M1159.9 100.2c-.1 1.3-.3 2.4-.6 3.5c-.4 1-.8 1.9-1.3 2.7c-.5 .8-1 1.5-1.5 2.1c-.6 .6-1.2 1.1-1.7 1.4c-1.6 1.1-3.4 1.8-5.5 2.1c-2 .3-4.1 .4-6.1 .4c-1.2 0-2.4 0-3.7-.1c-1.2-.1-2.5-.3-3.7-.6c-1.2-.3-2.4-.7-3.6-1.3c-1.1-.6-2.2-1.4-3.2-2.4c-1-.9-1.8-1.9-2.4-3c-.6-1-1.1-2.1-1.4-3.2c-.3-1.1-.6-2.1-.7-3.2c-.1-1-.2-2-.2-3c0-1 .1-2 .2-3.1c.1-1.1 .4-2.1 .7-3.2c.3-1 .8-2.1 1.4-3.1c.6-1 1.3-1.9 2.2-2.9c1-1 2.1-1.8 3.3-2.5c1.2-.6 2.4-1.1 3.6-1.4c1.2-.4 2.4-.6 3.5-.7c1.2-.1 2.3-.2 3.3-.2c.5 0 1.3 .1 2.3 .1c1 0 2.1 .2 3.3 .4c1.2 .1 2.4 .4 3.6 .8c1.2 .4 2.3 .9 3.3 1.6c.4 .3 .9 .6 1.4 1.1c.5 .5 1 1.1 1.5 1.8c.5 .7 .9 1.6 1.2 2.5c.3 1 .5 2.1 .5 3.4h-8.8c0-.8-.2-1.5-.6-2.2c-.3-.7-.9-1.2-1.7-1.8c-.9-.5-1.8-.9-2.8-1c-.9-.2-1.8-.3-2.6-.3c-1.2 0-2.4 .2-3.6 .5c-1.2 .2-2.3 .9-3.4 2.1c-.6 .7-1.2 1.7-1.8 2.9c-.5 1.3-.8 3-.8 5.2c0 2.1 .3 3.8 .8 5.1c.6 1.3 1.2 2.3 1.9 3c1.1 1 2.2 1.7 3.4 1.9c1.3 .3 2.4 .4 3.5 .4c.4 0 .8 0 1.3 0c.5 0 1-.1 1.5-.2c.5-.1 1-.2 1.5-.3c.5-.2 .9-.4 1.3-.7c.5-.4 1-.9 1.5-1.7c.5-.7 .8-1.7 .9-2.9h8.8Zm23.8-15.3c-1.1 0-2.2 .1-3.5 .4c-1.2 .3-2.4 1-3.5 2.1c-.7 .6-1.2 1.3-1.6 2.1c-.3 .7-.6 1.5-.8 2.2c-.2 .7-.4 1.4-.4 2.1c-.1 .6-.1 1.2-.1 1.6c0 .5 0 1.1 .1 1.7c0 .7 .2 1.4 .4 2.1c.2 .7 .5 1.5 .8 2.2c.4 .8 .9 1.5 1.6 2.1c1.1 1.1 2.3 1.8 3.5 2c1.3 .3 2.4 .5 3.5 .5c1 0 2.2-.2 3.4-.5c1.3-.2 2.4-.9 3.5-2c.7-.6 1.2-1.3 1.6-2.1c.4-.7 .7-1.5 .9-2.2c.2-.7 .3-1.4 .4-2.1c0-.6 .1-1.2 .1-1.7c0-.4-.1-1-.1-1.6c-.1-.7-.2-1.4-.4-2.1c-.2-.7-.5-1.5-.9-2.2c-.4-.8-.9-1.5-1.6-2.1c-1.1-1.1-2.2-1.8-3.5-2.1c-1.2-.3-2.4-.4-3.4-.4Zm19 10.5c0 1 0 2-.2 3c-.1 1.1-.3 2.1-.7 3.2c-.3 1-.9 2.1-1.5 3.1c-.7 1.1-1.5 2.1-2.6 3c-.6 .6-1.3 1.1-2.2 1.7c-.8 .5-1.8 1-3 1.5c-1.1 .4-2.4 .8-3.9 1.1c-1.4 .2-3.1 .4-4.9 .4c-1.9 0-3.5-.2-5-.4c-1.4-.3-2.7-.7-3.9-1.1c-1.1-.5-2.1-1-3-1.5c-.8-.6-1.5-1.1-2.1-1.7c-1.1-.9-2-1.9-2.6-3c-.7-1-1.2-2.1-1.6-3.1c-.3-1.1-.6-2.1-.7-3.2c-.1-1-.2-2-.2-3c0-.9 .1-1.9 .2-2.9c.1-1.1 .4-2.1 .7-3.2c.4-1 .9-2.1 1.6-3.1c.6-1 1.5-2.1 2.6-3c.6-.6 1.3-1.1 2.1-1.7c.9-.5 1.9-1 3-1.5c1.2-.4 2.5-.8 3.9-1.1c1.5-.3 3.1-.4 5-.4c1.8 0 3.5 .1 4.9 .4c1.5 .3 2.8 .7 3.9 1.1c1.2 .5 2.2 1 3 1.5c.9 .6 1.6 1.1 2.2 1.7c1.1 .9 1.9 2 2.6 3c.6 1 1.2 2.1 1.5 3.1c.4 1.1 .6 2.1 .7 3.2c.2 1 .2 2 .2 2.9Zm15.5-7.8h-.3l.3 2.7v21.2h-8.4V79.4h11.9l9.1 23.3h.2l9.1-23.3H1252v32.1h-8.5V90.3l.4-2.7h-.4l-9.6 23.9h-6.1l-9.6-23.9Zm50.8 7.1h7.6c.4 0 .8-.1 1.3-.1c.5 0 .9-.1 1.4-.2c.4-.1 .9-.2 1.3-.4c.4-.2 .7-.4 1-.7c.3-.3 .6-.8 .9-1.3c.2-.6 .3-1.2 .3-2c0-.8-.1-1.4-.4-2c-.3-.5-.7-.9-1.2-1.3c-.1-.1-.5-.3-1.1-.5c-.7-.3-1.6-.4-3-.4H1269v8.9Zm8.8-15.3c1.1 0 2.1 0 3.1 .1c1 .1 1.9 .2 2.8 .4c.9 .2 1.8 .5 2.6 .9c.8 .3 1.5 .9 2.2 1.5c.6 .6 1.1 1.2 1.5 1.8c.4 .6 .7 1.3 1 2c.2 .6 .3 1.3 .4 1.9c.1 .7 .1 1.3 .1 1.9c0 1.3-.2 2.6-.5 3.9c-.3 1.3-1 2.6-2.1 3.7c-.7 .8-1.6 1.5-2.4 1.9c-.9 .4-1.8 .8-2.8 1c-1 .2-2 .4-3.1 .4c-1.1 .1-2.2 .1-3.4 .1H1269v10.6h-8.4V79.4h17.2Zm45.9 32.1h-25.9V79.4h8.4V105h17.5v6.5Zm14.1-32.1v32.1h-8.4V79.4h8.4ZM1366 99.5l-4.9-12l-4.9 12h9.8Zm-14.6 12h-8.8l14.3-32.1h8.3l14.4 32.1h-8.8L1368 105h-13.9l-2.7 6.5Zm65.5 0h-8.1l-16.2-21.6v21.6h-8.5V79.4h8.3l16.1 21.5V79.4h8.4v32.1Zm42.7-11.3c-.1 1.3-.3 2.4-.6 3.5c-.3 1-.8 1.9-1.3 2.7c-.4 .8-1 1.5-1.5 2.1c-.6 .6-1.1 1.1-1.7 1.4c-1.6 1.1-3.4 1.8-5.5 2.1c-2 .3-4 .4-6.1 .4c-1.2 0-2.4 0-3.6-.1c-1.3-.1-2.5-.3-3.8-.6c-1.2-.3-2.4-.7-3.5-1.3c-1.2-.6-2.3-1.4-3.3-2.4c-1-.9-1.8-1.9-2.4-3c-.6-1-1-2.1-1.4-3.2c-.3-1.1-.6-2.1-.7-3.2c-.1-1-.2-2-.2-3c0-1 .1-2 .2-3.1c.1-1.1 .4-2.1 .7-3.2c.4-1 .8-2.1 1.4-3.1c.6-1 1.3-1.9 2.2-2.9c1-1 2.1-1.8 3.3-2.5c1.2-.6 2.4-1.1 3.6-1.4c1.2-.4 2.4-.6 3.5-.7c1.2-.1 2.3-.2 3.3-.2c.5 0 1.3 .1 2.3 .1c1.1 0 2.2 .2 3.4 .4c1.2 .1 2.4 .4 3.6 .8c1.2 .4 2.3 .9 3.2 1.6c.5 .3 .9 .6 1.4 1.1c.6 .5 1.1 1.1 1.5 1.8c.5 .7 .9 1.6 1.2 2.5c.3 1 .5 2.1 .6 3.4h-8.8c-.1-.8-.3-1.5-.7-2.2c-.3-.7-.9-1.2-1.7-1.8c-.9-.5-1.8-.9-2.7-1c-1-.2-1.9-.3-2.7-.3c-1.2 0-2.4 .2-3.5 .5c-1.2 .2-2.4 .9-3.4 2.1c-.7 .7-1.3 1.7-1.8 2.9c-.6 1.3-.9 3-.9 5.2c0 2.1 .3 3.8 .9 5.1c.5 1.3 1.2 2.3 1.9 3c1 1 2.2 1.7 3.4 1.9c1.2 .3 2.3 .4 3.4 .4c.4 0 .9 0 1.3 0c.5 0 1-.1 1.5-.2c.5-.1 1-.2 1.5-.3c.5-.2 .9-.4 1.3-.7c.5-.4 1-.9 1.5-1.7c.5-.7 .8-1.7 .9-2.9h8.8Zm32.3-8.1v6.1h-17.6v6.9h21.3v6.4h-29.7V79.4h29.2v6.4h-20.8v6.3h17.6Z" class="g3_10"/>
<g clip-path="url(#c0_10)">
<image preserveAspectRatio="none" x="1074" y="0" width="474" height="131" href="img/1.png"/>
<image preserveAspectRatio="none" x="5" y="787" width="418" height="77" href="img/2.png"/>
<image preserveAspectRatio="none" x="0" y="695" width="348" height="166" href="img/3.png"/>
<image preserveAspectRatio="none" x="20" y="36" width="533" height="233" href="img/4.png"/>
<image preserveAspectRatio="none" x="279" y="299" width="173" height="65" href="img/5.png"/>
<image preserveAspectRatio="none" x="685" y="379" width="136" height="65" href="img/6.png"/>
<image preserveAspectRatio="none" x="592" y="272" width="321" height="110" href="img/7.png"/>
<image preserveAspectRatio="none" x="567" y="460" width="416" height="65" href="img/8.png"/>
<image preserveAspectRatio="none" x="943" y="273" width="409" height="206" href="img/9.png"/>
<image preserveAspectRatio="none" x="266" y="517" width="542" height="263" href="img/10.png"/>
</g>
<g clip-path="url(#c3_10)">
<path fill-rule="evenodd" d="M968.3 543.5c6.4 4.1 11.6 6.8 16 8.7c7 3 12 3.9 17.1 4.7c17.3 2.9 33.8 1.3 48.9-3.4c10.6-3.4 20.4-8.3 29.5-14.5c22.3-15.3 39.7-38.6 48.7-66.1c.4-1.3 1.7-2 2.9-1.6c1.3 .4 2 1.7 1.6 2.9c-8.1 29.4-25.2 55-48.3 71.8c-9.6 7-20.3 12.4-31.7 15.9c-16.4 5-34.3 6-52.9 2.3c-5.6-1.1-11.1-2.3-18.6-6c-4.6-2.2-9.9-5.3-16.4-9.9c-1.3-.9-1.7-2.7-.8-4c.9-1.3 2.7-1.7 4-.8Z" class="g4_10"/>
<path fill-rule="evenodd" d="M1088.1 483.6c4.3-1.8 13.5-5.9 22.6-9.7c11.5-4.9 22.7-9.3 22.7-9.3c1.2-.5 2.5-.4 3.6 .2c1.1 .5 2 1.5 2.3 2.7c0 0 4.2 15.9 7.4 29.9c2.2 9.4 3.8 17.9 4 20.5c.2 1.3-.7 2.4-2 2.6c-1.3 .2-2.5-.7-2.6-2l-13.9-43.9c-4.4 1.6-11.4 4.2-18.7 6.7c-9.3 3.2-18.9 6.3-23.4 7.7c-1.5 .6-3.1-.2-3.7-1.7c-.5-1.5 .2-3.1 1.7-3.7Z" class="g4_10"/>
</g>
<g clip-path="url(#c0_10)">
<image preserveAspectRatio="none" x="663" y="198" width="134" height="66" href="img/11.png"/>
<image preserveAspectRatio="none" x="859" y="595" width="575" height="239" href="img/12.png"/>
<image preserveAspectRatio="none" x="1209" y="353" width="357" height="296" href="img/13.png"/>
</g>
<g clip-path="url(#c4_10)">
<path fill-rule="evenodd" d="M1191.3 233.6c8.9-5.3 16.1-8.7 22.3-11.1c9.7-3.9 16.7-4.9 23.7-5.7c23.9-3.2 46.4-.2 66.9 7.1c14.3 5.1 27.6 12.3 39.8 21.3c29.8 22.1 52.6 54.8 63.5 93.1c.5 1.7 2.2 2.7 4 2.2c1.7-.4 2.7-2.2 2.3-3.9c-9.8-40.7-31.9-76.6-62.7-100.7c-12.9-10.1-27.3-18.1-42.8-23.4c-22.3-7.7-46.8-9.9-72.5-5.8c-7.6 1.3-15.2 2.7-25.7 7.4c-6.4 2.8-13.8 6.8-23 12.8c-1.8 1.1-2.4 3.6-1.3 5.4c1.2 1.9 3.6 2.4 5.5 1.3Z" class="g4_10"/>
<path fill-rule="evenodd" d="M1352.7 321.5c5.8 2.7 18.2 8.8 30.5 14.5c15.5 7.2 30.7 13.8 30.7 13.8c1.6 .7 3.4 .7 4.9 0c1.6-.7 2.8-2 3.3-3.7c0 0 6.5-21.5 11.6-40.6c3.4-12.8 6.1-24.4 6.5-27.9c.3-1.8-.9-3.4-2.6-3.7c-1.8-.3-3.5 .9-3.7 2.6l-21.2 59.6c-5.9-2.4-15.5-6.3-25.3-10.1c-12.6-4.9-25.7-9.6-31.7-11.8c-2-.8-4.3 .2-5.2 2.2c-.8 2 .2 4.3 2.2 5.1Z" class="g4_10"/>
</g>
<path d="M1182.7 417h281.7V138.8H1182.7V417Z" class="g5_10"/>
<path d="M468.1 293.5H651.3V152.3H468.1V293.5Z" class="g5_10"/>
<path d="M362.1 623.8H580.3V406.2H362.1V623.8Z" class="g5_10"/>
<path d="M961.9 617.4h207.8V411.9H961.9V617.4Z" class="g5_10"/>
</svg>