<svg viewBox="0 0 1565 880" version="1.1" xmlns="http://www.w3.org/2000/svg">
<defs>
<clipPath id="c0_13"><path d="M-.2 880.3V-.2H1565.5V880.3Z"/></clipPath>
<clipPath id="c1_13"><path d="M1042 613.7V395.3h216.1V613.7Z"/></clipPath>
<style>
.g0_13{fill:#FFF;}
.g1_13{fill:#001A2E;}
.g2_13{fill:#22A1E2;}
.g3_13{fill:#1C3D86;}
.g4_13{fill:none;stroke:#69B7FF;stroke-width:3.435;stroke-miterlimit:10;}
.g5_13{fill:#000;fill-opacity:0;}
</style>
</defs>
<g clip-path="url(#c0_13)">
<path d="M0 0H1565.2V880H0V0Z" class="g0_13"/>
<path d="M0 0H1565.2V880H0V0Z" class="g1_13"/>
</g>
<path d="M235.5 334.5c-1.2 0-2.3-.8-2.6-2c0-.2-4.8-18.2-8.7-33.5c-.4-1.4 .4-2.9 1.8-3.2c1.5-.4 2.9 .5 3.2 1.9c4 15.3 8.8 33.3 8.8 33.5c.4 1.4-.4 2.8-1.9 3.2c-.2 0-.4 .1-.6 .1Z" class="g2_13"/>
<path d="M254.1 334.1c-.2 0-.4-.1-.6-.1c-1.4-.4-2.3-1.8-1.9-3.2l8.6-33.3c.3-1.5 1.8-2.3 3.2-1.9c1.4 .3 2.2 1.8 1.9 3.2l-8.6 33.3c-.3 1.2-1.4 2-2.6 2Z" class="g2_13"/>
<path d="M277.8 308.8c-.8 .5-1.3 1.4-1.3 2.3v18.3H213.4V311.1c0-.9-.5-1.8-1.3-2.3c-20.4-11.7-33.1-33.7-33.1-57.2c0-36.4 29.6-66 66-66c36.3 0 65.9 29.6 65.9 66c0 23.5-12.7 45.5-33.1 57.2Zm-4.6 52.9H216.7c-1.8 0-3.3-1.5-3.3-3.3V334.6h63.1v23.8c0 1.8-1.5 3.3-3.3 3.3ZM245 180.3c-39.3 0-71.3 32-71.3 71.3c0 24.9 13.2 48.2 34.4 61V332c0 .1 .1 .1 .1 .2c0 0-.1 .1-.1 .1v26.1c0 4.7 3.9 8.6 8.6 8.6h56.5c4.7 0 8.6-3.9 8.6-8.6V332.2c0-.1-.1-.1-.1-.1c0 0 .1-.1 .1-.1V312.6c21.2-12.8 34.4-36.1 34.4-61c0-39.3-32-71.3-71.2-71.3Z" class="g3_13"/>
<path d="M160.2 259.9H131.8c-1.5 0-2.7-1.2-2.7-2.7c0-1.4 1.2-2.6 2.7-2.6h28.4c1.4 0 2.6 1.2 2.6 2.6c0 1.5-1.2 2.7-2.6 2.7Z" class="g2_13"/>
<path d="M359.1 260.6H330.7c-1.5 0-2.7-1.2-2.7-2.7c0-1.4 1.2-2.6 2.7-2.6h28.4c1.4 0 2.6 1.2 2.6 2.6c0 1.5-1.2 2.7-2.6 2.7Z" class="g2_13"/>
<path d="M324.5 217.6c-1 0-1.9-.5-2.3-1.4c-.7-1.3-.3-2.9 1-3.6l25-13.5c1.3-.7 2.9-.2 3.6 1.1c.7 1.3 .2 2.9-1.1 3.6l-25 13.5c-.4 .2-.8 .3-1.2 .3Z" class="g2_13"/>
<path d="M287.7 180.6c-.4 0-.8-.1-1.2-.3c-1.3-.7-1.8-2.3-1.1-3.6l13.5-25c.7-1.3 2.2-1.8 3.5-1.1c1.3 .7 1.8 2.3 1.1 3.6l-13.4 25c-.5 .9-1.4 1.4-2.4 1.4Z" class="g2_13"/>
<path d="M160.4 215c-.4 0-.8-.1-1.2-.4l-25-13.4c-1.3-.7-1.8-2.3-1.1-3.6c.7-1.3 2.3-1.8 3.6-1.1l25 13.5c1.3 .7 1.7 2.3 1 3.6c-.4 .9-1.3 1.4-2.3 1.4Z" class="g2_13"/>
<path d="M197.2 178c-1 0-1.9-.5-2.4-1.4l-13.4-25c-.7-1.3-.2-2.9 1.1-3.6c1.3-.7 2.9-.2 3.5 1.1l13.5 25c.7 1.3 .2 2.9-1.1 3.6c-.4 .2-.8 .3-1.2 .3Z" class="g2_13"/>
<path d="M245.3 169.7c-1.5 0-2.6-1.2-2.6-2.6V138.6c0-1.4 1.2-2.6 2.7-2.6c1.4 0 2.6 1.2 2.6 2.6l-.1 28.5c0 1.4-1.2 2.6-2.6 2.6Z" class="g2_13"/>
<path d="M223.2 248.2c0-11.7 9.5-21.2 21.2-21.2c11.7 0 21.3 9.5 21.3 21.2c0 11.7-9.6 21.3-21.3 21.3c-11.7 0-21.2-9.6-21.2-21.3Zm56.4 27.5l-10.8-5.1c-1-.4-2.1-.2-2.9 .5c-.8 .7-1.1 1.9-.7 2.9l4.4 11.1l-18.4 7.3L246.8 281c-.4-1-1.4-1.7-2.5-1.7c-1.1 0-2 .7-2.4 1.7l-4.6 11.3L219 284.9l3.9-9.6c.4-1.1 .1-2.2-.7-3c-.8-.7-1.9-.9-2.9-.4l-9.6 4.7L201 258.8l16.1-7.8c.4-.2 .7-.5 .9-.8c1.1 13.7 12.5 24.5 26.4 24.5c14.6 0 26.5-11.9 26.5-26.5c0-14.6-11.9-26.5-26.5-26.5c-14.1 0-25.7 11.3-26.4 25.3c-.2-.3-.6-.6-.9-.8l-16.2-7.6l8.4-17.9l10.8 5.1c1 .5 2.1 .3 2.9-.4c.8-.8 1.1-1.9 .7-2.9l-4.4-11.1l18.4-7.3l4.4 11.3c.4 1 1.4 1.7 2.5 1.7c1.1 0 2-.6 2.4-1.6l4.6-11.3l18.3 7.4l-4.3 10.6c-.4 1-.1 2.1 .7 2.9c.8 .7 1.9 .9 2.9 .4l10-4.9l8.7 17.8l-15.3 7.5c-.9 .4-1.5 1.3-1.5 2.3c0 1 .6 2 1.5 2.4l15.4 7.3l-8.4 17.8Zm13-21.5l-12.8-6l12.8-6.3c1.3-.6 1.8-2.2 1.2-3.5l-11-22.5c-.3-.6-.9-1.1-1.5-1.3c-.7-.2-1.4-.2-2 .1l-6.2 3.1l2.7-6.7c.5-1.4-.1-2.9-1.5-3.4l-23.2-9.4c-1.3-.6-2.9 .1-3.4 1.4l-3.1 7.7l-3-7.7c-.6-1.3-2.1-2-3.4-1.5l-23.3 9.2c-.6 .3-1.2 .8-1.4 1.4c-.3 .7-.3 1.4-.1 2l2.9 7.4l-7.1-3.4c-.7-.3-1.4-.3-2.1-.1c-.6 .3-1.1 .8-1.4 1.4L195 238.7c-.6 1.4-.1 2.9 1.2 3.5l13.7 6.5l-13.6 6.6c-1.3 .6-1.8 2.2-1.2 3.5l11 22.5c.6 1.3 2.2 1.8 3.5 1.2l5.8-2.9l-2.3 5.8c-.2 .6-.2 1.3 0 2c.3 .6 .8 1.1 1.5 1.4l23.2 9.4c.6 .2 1.3 .2 2 0c.6-.3 1.1-.8 1.4-1.5l3.1-7.6l3 7.6c.4 1.1 1.4 1.7 2.5 1.7c.3 0 .6-.1 .9-.2L274 289c1.3-.5 2-2 1.5-3.4l-3-7.4l7.2 3.4c.7 .3 1.4 .3 2 .1c.7-.2 1.2-.7 1.5-1.3l10.7-22.7c.6-1.3 .1-2.9-1.3-3.5Z" class="g2_13"/>
<path d="M1069.9 586.1h6.7V550.7h-6.7v35.4Zm9.1 4.9h-11.5c-1.4 0-2.4-1.1-2.4-2.4V548.3c0-1.3 1-2.4 2.4-2.4H1079c1.4 0 2.5 1.1 2.5 2.4v40.3c0 1.3-1.1 2.4-2.5 2.4Z" class="g2_13"/>
<path d="M1089.1 586.1h6.7V561.4h-6.7v24.7Zm9.1 4.9h-11.5c-1.4 0-2.4-1.1-2.4-2.4V559c0-1.4 1-2.5 2.4-2.5h11.5c1.4 0 2.5 1.1 2.5 2.5v29.6c0 1.3-1.1 2.4-2.5 2.4Z" class="g2_13"/>
<path d="M1108.3 586.1h6.7V571.5h-6.7v14.6Zm9.2 4.9h-11.6c-1.4 0-2.4-1.1-2.4-2.4V569.1c0-1.4 1-2.5 2.4-2.5h11.6c1.3 0 2.4 1.1 2.4 2.5v19.5c0 1.3-1.1 2.4-2.4 2.4Z" class="g2_13"/>
<path d="M1091.2 471.7V455h16.4c-1 8.7-7.8 15.6-16.4 16.7ZM1070 455h16.4v16.7c-8.6-1.1-15.4-8-16.4-16.7Zm16.4-20.9v16.1h-16.3c1.2-8.4 7.9-15 16.3-16.1Zm21.1 16.1h-16.3V434.1c8.4 1.1 15.1 7.7 16.3 16.1Zm-18.7-21.1c-13.1 0-23.7 10.7-23.7 23.8c0 13.2 10.6 23.9 23.7 23.9c13.1 0 23.8-10.7 23.8-23.9c0-13.1-10.7-23.8-23.8-23.8Z" class="g2_13"/>
<path d="M1067.5 535c-.5 0-.9-.1-1.3-.4c-1.1-.7-1.5-2.2-.8-3.3l10.4-16.6c.5-.7 1.3-1.1 2.1-1.1h9.6l7.6-15.2c.4-.8 1.2-1.3 2.2-1.3h11.8c1.4 0 2.4 1.1 2.4 2.4c0 1.4-1 2.5-2.4 2.5h-10.3l-7.6 15.1c-.4 .9-1.3 1.4-2.2 1.4h-9.8l-9.7 15.4c-.4 .7-1.2 1.1-2 1.1Z" class="g2_13"/>
<path d="M1102.2 510.6c-.7 0-1.4-.3-1.9-.9c-.8-1-.7-2.6 .3-3.4l8.4-7.1l-8.6-6.8c-1-.8-1.2-2.3-.4-3.4c.9-1 2.4-1.2 3.4-.4l10.9 8.7c.6 .4 .9 1.1 1 1.8c0 .8-.3 1.5-.9 1.9l-10.7 9c-.4 .4-1 .6-1.5 .6Z" class="g2_13"/>
<path d="M1184.3 441.1H1134c-1.4 0-2.5-1.1-2.5-2.4c0-1.3 1.1-2.4 2.5-2.4h50.3c1.4 0 2.4 1.1 2.4 2.4c0 1.3-1 2.4-2.4 2.4Z" class="g3_13"/>
<path d="M1184.3 455.3H1134c-1.4 0-2.5-1-2.5-2.4c0-1.3 1.1-2.4 2.5-2.4h50.3c1.4 0 2.4 1.1 2.4 2.4c0 1.4-1 2.4-2.4 2.4Z" class="g3_13"/>
<path d="M1184.3 469.6H1134c-1.4 0-2.5-1.1-2.5-2.5c0-1.3 1.1-2.4 2.5-2.4h50.3c1.4 0 2.4 1.1 2.4 2.4c0 1.4-1 2.5-2.4 2.5Z" class="g3_13"/>
<path d="M1184.3 499.8H1134c-1.4 0-2.5-1.1-2.5-2.5c0-1.3 1.1-2.4 2.5-2.4h50.3c1.4 0 2.4 1.1 2.4 2.4c0 1.4-1 2.5-2.4 2.5Z" class="g3_13"/>
<path d="M1184.3 514H1134c-1.4 0-2.5-1.1-2.5-2.5c0-1.3 1.1-2.4 2.5-2.4h50.3c1.4 0 2.4 1.1 2.4 2.4c0 1.4-1 2.5-2.4 2.5Z" class="g3_13"/>
<path d="M1184.3 528.2H1134c-1.4 0-2.5-1.1-2.5-2.5c0-1.3 1.1-2.4 2.5-2.4h50.3c1.4 0 2.4 1.1 2.4 2.4c0 1.4-1 2.5-2.4 2.5Z" class="g3_13"/>
<path d="M1184.3 562.6H1134c-1.4 0-2.5-1.1-2.5-2.5c0-1.3 1.1-2.4 2.5-2.4h50.3c1.4 0 2.4 1.1 2.4 2.4c0 1.4-1 2.5-2.4 2.5Z" class="g3_13"/>
<path d="M1184.3 576.8H1134c-1.4 0-2.5-1.1-2.5-2.5c0-1.3 1.1-2.4 2.5-2.4h50.3c1.4 0 2.4 1.1 2.4 2.4c0 1.4-1 2.5-2.4 2.5Z" class="g3_13"/>
<path d="M1184.3 591H1134c-1.4 0-2.5-1.1-2.5-2.4c0-1.4 1.1-2.5 2.5-2.5h50.3c1.4 0 2.4 1.1 2.4 2.5c0 1.3-1 2.4-2.4 2.4Z" class="g3_13"/>
<path clip-path="url(#c1_13)" d="M1203.5 613.3H1050.3c-4.4 0-7.9-3.5-7.9-7.9V403.7c0-4.4 3.5-8 7.9-8h125c3.7 0 8.5 2.1 11 4.8l20.7 21.6c2.5 2.6 4.4 7.5 4.4 11.1v55.5c0 1.4-1.1 2.5-2.4 2.5c-1.3 0-2.4-1.1-2.4-2.5V433.2c0-2.4-1.5-6-3.1-7.8l-20.7-21.6c-1.6-1.7-5.1-3.2-7.5-3.2h-125c-1.7 0-3.1 1.4-3.1 3.1V605.4c0 1.7 1.4 3.1 3.1 3.1h153.2c1.7 0 3.1-1.4 3.1-3.1V531.5c0-1.4 1.1-2.4 2.4-2.4c1.3 0 2.4 1 2.4 2.4v73.9c0 4.4-3.5 7.9-7.9 7.9Z" class="g3_13"/>
<path d="M1184.4 405.7v17.2c0 1.7 1.4 3.1 3.1 3.1h15.9l-19-20.3Zm19.1 25.1h-16c-4.4 0-7.9-3.5-7.9-7.9V405c0-3.8 2.1-5.2 4-5.2c1.3 0 2.6 .7 3.9 2.1l19.5 20.8c2.3 2.5 1.9 4.5 1.5 5.5c-.4 1-1.6 2.6-5 2.6Z" class="g3_13"/>
<path d="M1202.1 539.2l-11.1-5.1L1238.9 430l11.1 5.1l-47.9 104.1Zm-10.7 8.6l-.7-8.4l7.5 3.5l-6.8 4.9Zm54.2-124.7c.9 0 1.9 .2 2.9 .7c1.7 .8 2.7 1.8 3.2 3.1c.4 1.3 .3 2.6 .1 3.7l-4.5-2.1l-6.2-2.8c.9-1.3 2.4-2.6 4.5-2.6Zm10.6 2.3c-.9-2.7-2.8-4.7-5.7-6c-1.7-.8-3.3-1.2-4.9-1.2c-6.8 0-9.8 6.8-10.1 7.6l-50 108.4c-.2 .6-.3 1.3 0 1.9c0 0 0 .1 .1 .1l1.3 16.2c.1 .9 .6 1.7 1.4 2c.3 .2 .7 .3 1 .3c.5 0 1-.2 1.4-.5l13.1-9.4c.7-.2 1.3-.6 1.7-1.3L1255.4 435c.2-.4 2.4-5.1 .8-9.6Z" class="g2_13"/>
<image clip-path="url(#c0_13)" preserveAspectRatio="none" x="11" y="169" width="484" height="215" href="img/1.png"/>
<path d="M1159.9 100.2c-.1 1.3-.3 2.4-.6 3.5c-.4 1-.8 1.9-1.3 2.7c-.5 .8-1 1.5-1.5 2.1c-.6 .6-1.2 1.1-1.7 1.4c-1.6 1.1-3.4 1.8-5.5 2.1c-2 .3-4.1 .4-6.1 .4c-1.2 0-2.4 0-3.7-.1c-1.2-.1-2.5-.3-3.7-.6c-1.2-.3-2.4-.7-3.6-1.3c-1.1-.6-2.2-1.4-3.2-2.4c-1-.9-1.8-1.9-2.4-3c-.6-1-1.1-2.1-1.4-3.2c-.3-1.1-.6-2.1-.7-3.2c-.1-1-.2-2-.2-3c0-1 .1-2 .2-3.1c.1-1.1 .4-2.1 .7-3.2c.3-1 .8-2.1 1.4-3.1c.6-1 1.3-1.9 2.2-2.9c1-1 2.1-1.8 3.3-2.5c1.2-.6 2.4-1.1 3.6-1.4c1.2-.4 2.4-.6 3.5-.7c1.2-.1 2.3-.2 3.3-.2c.5 0 1.3 .1 2.3 .1c1 0 2.1 .2 3.3 .4c1.2 .1 2.4 .4 3.6 .8c1.2 .4 2.3 .9 3.3 1.6c.4 .3 .9 .6 1.4 1.1c.5 .5 1 1.1 1.5 1.8c.5 .7 .9 1.6 1.2 2.5c.3 1 .5 2.1 .5 3.4h-8.8c0-.8-.2-1.5-.6-2.2c-.3-.7-.9-1.2-1.7-1.8c-.9-.5-1.8-.9-2.8-1c-.9-.2-1.8-.3-2.6-.3c-1.2 0-2.4 .2-3.6 .5c-1.2 .2-2.3 .9-3.4 2.1c-.6 .7-1.2 1.7-1.8 2.9c-.5 1.3-.8 3-.8 5.2c0 2.1 .3 3.8 .8 5.1c.6 1.3 1.2 2.3 1.9 3c1.1 1 2.2 1.7 3.4 1.9c1.3 .3 2.4 .4 3.5 .4c.4 0 .8 0 1.3 0c.5 0 1-.1 1.5-.2c.5-.1 1-.2 1.5-.3c.5-.2 .9-.4 1.3-.7c.5-.4 1-.9 1.5-1.7c.5-.7 .8-1.7 .9-2.9h8.8Zm23.8-15.3c-1.1 0-2.2 .1-3.5 .4c-1.2 .3-2.4 1-3.5 2.1c-.7 .6-1.2 1.3-1.6 2.1c-.3 .7-.6 1.5-.8 2.2c-.2 .7-.4 1.4-.4 2.1c-.1 .6-.1 1.2-.1 1.6c0 .5 0 1.1 .1 1.7c0 .7 .2 1.4 .4 2.1c.2 .7 .5 1.5 .8 2.2c.4 .8 .9 1.5 1.6 2.1c1.1 1.1 2.3 1.8 3.5 2c1.3 .3 2.4 .5 3.5 .5c1 0 2.2-.2 3.4-.5c1.3-.2 2.4-.9 3.5-2c.7-.6 1.2-1.3 1.6-2.1c.4-.7 .7-1.5 .9-2.2c.2-.7 .3-1.4 .4-2.1c0-.6 .1-1.2 .1-1.7c0-.4-.1-1-.1-1.6c-.1-.7-.2-1.4-.4-2.1c-.2-.7-.5-1.5-.9-2.2c-.4-.8-.9-1.5-1.6-2.1c-1.1-1.1-2.2-1.8-3.5-2.1c-1.2-.3-2.4-.4-3.4-.4Zm19 10.5c0 1 0 2-.2 3c-.1 1.1-.3 2.1-.7 3.2c-.3 1-.9 2.1-1.5 3.1c-.7 1.1-1.5 2.1-2.6 3c-.6 .6-1.3 1.1-2.2 1.7c-.8 .5-1.8 1-3 1.5c-1.1 .4-2.4 .8-3.9 1.1c-1.4 .2-3.1 .4-4.9 .4c-1.9 0-3.5-.2-5-.4c-1.4-.3-2.7-.7-3.9-1.1c-1.1-.5-2.1-1-3-1.5c-.8-.6-1.5-1.1-2.1-1.7c-1.1-.9-2-1.9-2.6-3c-.7-1-1.2-2.1-1.6-3.1c-.3-1.1-.6-2.1-.7-3.2c-.1-1-.2-2-.2-3c0-.9 .1-1.9 .2-2.9c.1-1.1 .4-2.1 .7-3.2c.4-1 .9-2.1 1.6-3.1c.6-1 1.5-2.1 2.6-3c.6-.6 1.3-1.1 2.1-1.7c.9-.5 1.9-1 3-1.5c1.2-.4 2.5-.8 3.9-1.1c1.5-.3 3.1-.4 5-.4c1.8 0 3.5 .1 4.9 .4c1.5 .3 2.8 .7 3.9 1.1c1.2 .5 2.2 1 3 1.5c.9 .6 1.6 1.1 2.2 1.7c1.1 .9 1.9 2 2.6 3c.6 1 1.2 2.1 1.5 3.1c.4 1.1 .6 2.1 .7 3.2c.2 1 .2 2 .2 2.9Zm15.5-7.8h-.3l.3 2.7v21.2h-8.4V79.4h11.9l9.1 23.3h.2l9.1-23.3H1252v32.1h-8.5V90.3l.4-2.7h-.4l-9.6 23.9h-6.1l-9.6-23.9Zm50.8 7.1h7.6c.4 0 .8-.1 1.3-.1c.5 0 .9-.1 1.4-.2c.4-.1 .9-.2 1.3-.4c.4-.2 .7-.4 1-.7c.3-.3 .6-.8 .9-1.3c.2-.6 .3-1.2 .3-2c0-.8-.1-1.4-.4-2c-.3-.5-.7-.9-1.2-1.3c-.1-.1-.5-.3-1.1-.5c-.7-.3-1.6-.4-3-.4H1269v8.9Zm8.8-15.3c1.1 0 2.1 0 3.1 .1c1 .1 1.9 .2 2.8 .4c.9 .2 1.8 .5 2.6 .9c.8 .3 1.5 .9 2.2 1.5c.6 .6 1.1 1.2 1.5 1.8c.4 .6 .7 1.3 1 2c.2 .6 .3 1.3 .4 1.9c.1 .7 .1 1.3 .1 1.9c0 1.3-.2 2.6-.5 3.9c-.3 1.3-1 2.6-2.1 3.7c-.7 .8-1.6 1.5-2.4 1.9c-.9 .4-1.8 .8-2.8 1c-1 .2-2 .4-3.1 .4c-1.1 .1-2.2 .1-3.4 .1H1269v10.6h-8.4V79.4h17.2Zm45.9 32.1h-25.9V79.4h8.4V105h17.5v6.5Zm14.1-32.1v32.1h-8.4V79.4h8.4ZM1366 99.5l-4.9-12l-4.9 12h9.8Zm-14.6 12h-8.8l14.3-32.1h8.3l14.4 32.1h-8.8L1368 105h-13.9l-2.7 6.5Zm65.5 0h-8.1l-16.2-21.6v21.6h-8.5V79.4h8.3l16.1 21.5V79.4h8.4v32.1Zm42.7-11.3c-.1 1.3-.3 2.4-.6 3.5c-.3 1-.8 1.9-1.3 2.7c-.4 .8-1 1.5-1.5 2.1c-.6 .6-1.1 1.1-1.7 1.4c-1.6 1.1-3.4 1.8-5.5 2.1c-2 .3-4 .4-6.1 .4c-1.2 0-2.4 0-3.6-.1c-1.3-.1-2.5-.3-3.8-.6c-1.2-.3-2.4-.7-3.5-1.3c-1.2-.6-2.3-1.4-3.3-2.4c-1-.9-1.8-1.9-2.4-3c-.6-1-1-2.1-1.4-3.2c-.3-1.1-.6-2.1-.7-3.2c-.1-1-.2-2-.2-3c0-1 .1-2 .2-3.1c.1-1.1 .4-2.1 .7-3.2c.4-1 .8-2.1 1.4-3.1c.6-1 1.3-1.9 2.2-2.9c1-1 2.1-1.8 3.3-2.5c1.2-.6 2.4-1.1 3.6-1.4c1.2-.4 2.4-.6 3.5-.7c1.2-.1 2.3-.2 3.3-.2c.5 0 1.3 .1 2.3 .1c1.1 0 2.2 .2 3.4 .4c1.2 .1 2.4 .4 3.6 .8c1.2 .4 2.3 .9 3.2 1.6c.5 .3 .9 .6 1.4 1.1c.6 .5 1.1 1.1 1.5 1.8c.5 .7 .9 1.6 1.2 2.5c.3 1 .5 2.1 .6 3.4h-8.8c-.1-.8-.3-1.5-.7-2.2c-.3-.7-.9-1.2-1.7-1.8c-.9-.5-1.8-.9-2.7-1c-1-.2-1.9-.3-2.7-.3c-1.2 0-2.4 .2-3.5 .5c-1.2 .2-2.4 .9-3.4 2.1c-.7 .7-1.3 1.7-1.8 2.9c-.6 1.3-.9 3-.9 5.2c0 2.1 .3 3.8 .9 5.1c.5 1.3 1.2 2.3 1.9 3c1 1 2.2 1.7 3.4 1.9c1.2 .3 2.3 .4 3.4 .4c.4 0 .9 0 1.3 0c.5 0 1-.1 1.5-.2c.5-.1 1-.2 1.5-.3c.5-.2 .9-.4 1.3-.7c.5-.4 1-.9 1.5-1.7c.5-.7 .8-1.7 .9-2.9h8.8Zm32.3-8.1v6.1h-17.6v6.9h21.3v6.4h-29.7V79.4h29.2v6.4h-20.8v6.3h17.6Z" class="g4_13"/>
<g clip-path="url(#c0_13)">
<image preserveAspectRatio="none" x="1074" y="0" width="474" height="131" href="img/2.png"/>
<image preserveAspectRatio="none" x="5" y="787" width="418" height="77" href="img/3.png"/>
<image preserveAspectRatio="none" x="0" y="695" width="348" height="166" href="img/4.png"/>
<image preserveAspectRatio="none" x="472" y="169" width="612" height="132" href="img/5.png"/>
<image preserveAspectRatio="none" x="105" y="428" width="807" height="167" href="img/6.png"/>
<image preserveAspectRatio="none" x="916" y="385" width="417" height="218" href="img/7.png"/>
</g>
<path d="M129.1 367.5h233V135.8h-233V367.5Z" class="g5_13"/>
<path d="M1042.4 612.9h215.7V395.6H1042.4V612.9Z" class="g5_13"/>
</svg>