<svg viewBox="0 0 1565 880" version="1.1" xmlns="http://www.w3.org/2000/svg">
<defs>
<clipPath id="c0_8"><path d="M-.2 880.3V-.2H1565.5V880.3Z"/></clipPath>
<clipPath id="c1_8"><path d="M538.4 880.3V-.2H1565.5V880.3Z"/></clipPath>
<clipPath id="c2_8"><path d="M441.4 827.1V756.9H689v70.2Z"/></clipPath>
<clipPath id="c3_8"><path d="M731.2 829V758.9H978.8V829Z"/></clipPath>
<style>
.g0_8{fill:#FFF;}
.g1_8{fill:#001A2E;}
.g2_8{fill:none;stroke:#69B7FF;stroke-width:8.346;stroke-miterlimit:10;}
.g3_8{fill:none;stroke:#69B7FF;stroke-width:9.166;stroke-miterlimit:10;}
.g4_8{fill:#69B7FF;}
.g5_8{fill:#000;fill-opacity:0;}
</style>
</defs>
<g clip-path="url(#c0_8)">
<path d="M0 0H1565.2V880H0V0Z" class="g0_8"/>
<path d="M0 0H1565.2V880H0V0Z" class="g1_8"/>
<image preserveAspectRatio="none" x="0" y="-81" width="1565" height="1043" href="img/1.jpg"/>
</g>
<image clip-path="url(#c1_8)" preserveAspectRatio="none" x="539" y="-41" width="1383" height="921" href="img/2.png"/>
<g clip-path="url(#c0_8)">
<image preserveAspectRatio="none" x="17" y="761" width="417" height="77" href="img/3.png"/>
<image preserveAspectRatio="none" x="0" y="668" width="360" height="167" href="img/4.png"/>
</g>
<path d="M170.4 450.1c-.2 3-.7 5.8-1.5 8.3c-.8 2.4-1.8 4.7-3 6.6c-1.2 1.9-2.4 3.6-3.8 5c-1.4 1.5-2.7 2.7-4.1 3.6c-3.8 2.6-8.2 4.3-13.2 5c-5 .7-9.9 1.1-14.9 1.1c-2.9 0-5.9-.2-8.9-.4c-3.1-.2-6.1-.7-9-1.4c-3-.7-5.9-1.7-8.7-3.2c-2.8-1.4-5.5-3.4-8-5.8c-2.4-2.2-4.3-4.6-5.8-7.2c-1.4-2.6-2.5-5.2-3.3-7.8c-.9-2.6-1.4-5.2-1.7-7.8c-.3-2.5-.5-5-.5-7.3c0-2.4 .2-4.9 .5-7.5c.3-2.6 .8-5.2 1.7-7.8c.8-2.5 1.9-5 3.3-7.5c1.4-2.4 3.2-4.8 5.3-7c2.6-2.5 5.2-4.6 8.1-6.1c2.9-1.6 5.7-2.8 8.7-3.6c2.9-.8 5.8-1.3 8.6-1.6c2.8-.2 5.5-.4 7.9-.4c1.3 0 3.3 .1 5.7 .2c2.5 .1 5.2 .4 8.1 .8c2.9 .5 5.8 1.1 8.7 2.1c3 .9 5.6 2.2 8 3.8c1 .7 2.2 1.6 3.4 2.8c1.3 1.2 2.5 2.7 3.6 4.4c1.1 1.7 2.1 3.8 2.9 6.1c.8 2.3 1.3 5 1.3 8.1H148.5c-.2-1.9-.7-3.7-1.5-5.3c-.9-1.6-2.3-3-4.3-4.3c-2.2-1.3-4.4-2.2-6.6-2.5c-2.3-.4-4.5-.6-6.6-.6c-2.8 0-5.6 .3-8.5 1c-2.9 .7-5.7 2.4-8.2 5.1c-1.6 1.7-3.1 4.1-4.5 7.3c-1.3 3.1-2 7.2-2 12.4c0 5.1 .7 9.3 2 12.4c1.4 3.2 3 5.6 4.7 7.3c2.6 2.5 5.3 4.1 8.3 4.7c2.9 .7 5.7 1 8.3 1c1 0 2.1 0 3.3-.1c1.2 0 2.4-.1 3.5-.4c1.2-.2 2.4-.5 3.6-.9c1.2-.4 2.3-.9 3.2-1.6c1.3-.9 2.5-2.3 3.8-4.1c1.2-1.8 1.9-4.1 2-6.9h21.4Zm57.8-37.3c-2.5 0-5.3 .3-8.4 1c-3 .7-5.8 2.4-8.5 5c-1.6 1.6-2.9 3.3-3.8 5.1c-.9 1.8-1.6 3.6-2.1 5.4c-.5 1.7-.8 3.4-1 5c-.1 1.6-.2 3-.2 4.1c0 1.1 .1 2.5 .2 4c.2 1.6 .5 3.3 1 5.1c.5 1.8 1.2 3.6 2.1 5.4c.9 1.8 2.2 3.5 3.8 5.1c2.7 2.6 5.5 4.2 8.5 4.9c3.1 .7 5.9 1.1 8.4 1.1c2.6 0 5.4-.4 8.4-1.1c3-.7 5.9-2.3 8.6-4.9c1.6-1.6 2.9-3.3 3.8-5.1c.9-1.8 1.6-3.6 2.1-5.4c.5-1.8 .8-3.5 .9-5.1c.2-1.5 .3-2.9 .3-4c0-1.1-.1-2.5-.3-4.1c-.1-1.6-.4-3.3-.9-5c-.5-1.8-1.2-3.6-2.1-5.4c-.9-1.8-2.2-3.5-3.8-5.1c-2.7-2.6-5.6-4.3-8.6-5c-3-.7-5.8-1-8.4-1Zm46.3 25.6c0 2.3-.1 4.7-.4 7.2c-.3 2.5-.9 5.1-1.8 7.7c-.9 2.5-2.1 5.1-3.7 7.6c-1.6 2.6-3.7 5-6.3 7.3c-1.5 1.3-3.3 2.7-5.3 4c-2 1.3-4.5 2.5-7.2 3.6c-2.8 1.1-6 2-9.5 2.7c-3.6 .7-7.6 1.1-12.1 1.1c-4.4 0-8.4-.4-12-1.1c-3.5-.7-6.7-1.6-9.5-2.7c-2.8-1.1-5.2-2.3-7.2-3.6c-2.1-1.3-3.8-2.7-5.3-4c-2.6-2.3-4.7-4.7-6.3-7.3c-1.6-2.5-2.8-5.1-3.7-7.6c-.9-2.6-1.5-5.2-1.8-7.7c-.3-2.5-.4-4.9-.4-7.2c0-2.3 .1-4.7 .4-7.3c.3-2.5 .9-5 1.8-7.6c.9-2.5 2.1-5.1 3.7-7.6c1.6-2.5 3.7-5 6.3-7.3c1.5-1.4 3.2-2.7 5.3-4.1c2-1.3 4.4-2.5 7.2-3.6c2.8-1 6-1.9 9.5-2.6c3.6-.7 7.6-1.1 12-1.1c4.5 0 8.5 .4 12.1 1.1c3.5 .7 6.7 1.6 9.5 2.6c2.7 1.1 5.2 2.3 7.2 3.6c2 1.4 3.8 2.7 5.3 4.1c2.6 2.3 4.7 4.8 6.3 7.3c1.6 2.5 2.8 5.1 3.7 7.6c.9 2.6 1.5 5.1 1.8 7.6c.3 2.6 .4 5 .4 7.3Zm37.6-19h-.7l.7 6.5v51.4H291.7V399.4h28.9l22 56.6h.6l22-56.6h29v77.9H373.7V425.9l.8-6.5h-.8l-23.4 57.9H335.5l-23.4-57.9Zm123.4 17.1H454c1 0 2 0 3.1-.1c1.1-.1 2.2-.2 3.4-.5c1.1-.3 2.1-.6 3.1-1c1-.4 1.9-1 2.5-1.6c.8-.9 1.5-1.9 2.1-3.3c.6-1.4 .8-3 .8-4.8c0-1.9-.3-3.5-1-4.8c-.7-1.3-1.6-2.4-2.8-3.2c-.3-.3-1.3-.7-2.8-1.3c-1.5-.6-3.9-.9-7.2-.9H435.5v21.5Zm21.3-37.1c2.7 0 5.2 .1 7.6 .3c2.4 .1 4.7 .4 6.9 .9c2.2 .5 4.3 1.2 6.2 2.1c1.9 1 3.7 2.2 5.4 3.7c1.5 1.5 2.8 2.9 3.7 4.4c1 1.6 1.7 3.1 2.2 4.8c.6 1.6 .9 3.2 1.1 4.8c.2 1.6 .3 3.1 .3 4.6c0 3.1-.4 6.3-1.3 9.5c-.8 3.2-2.5 6.2-5.1 9c-1.8 1.9-3.7 3.4-5.8 4.5c-2.1 1.1-4.4 1.9-6.8 2.5c-2.4 .5-4.9 .9-7.6 1c-2.6 .1-5.3 .1-8.1 .1h-20v25.7H415.1V399.4h41.7Zm111.7 77.9H505.4V399.4h20.5v62.1h42.6v15.8Zm34.2-77.9v77.9H582.2V399.4h20.5Zm68.5 48.8l-12-29.2l-11.8 29.2h23.8Zm-35.6 29.1H614.2l35-77.9h20.1l35 77.9H682.9l-6.8-15.8H642.4l-6.8 15.8Zm159.3 0H775L735.7 425v52.3H715.3V399.4h20l39.2 52.3V399.4h20.4v77.9Zm103.6-27.2c-.1 3-.6 5.8-1.4 8.3c-.8 2.4-1.8 4.7-3 6.6c-1.2 1.9-2.5 3.6-3.9 5c-1.3 1.5-2.7 2.7-4 3.6c-3.9 2.6-8.3 4.3-13.3 5c-4.9 .7-9.9 1.1-14.9 1.1c-2.9 0-5.8-.2-8.9-.4c-3-.2-6-.7-9-1.4c-3-.7-5.9-1.7-8.7-3.2c-2.8-1.4-5.5-3.4-8-5.8c-2.3-2.2-4.3-4.6-5.7-7.2c-1.5-2.6-2.6-5.2-3.4-7.8c-.8-2.6-1.4-5.2-1.7-7.8c-.3-2.5-.4-5-.4-7.3c0-2.4 .1-4.9 .4-7.5c.3-2.6 .9-5.2 1.7-7.8c.8-2.5 1.9-5 3.3-7.5c1.4-2.4 3.2-4.8 5.4-7c2.5-2.5 5.2-4.6 8-6.1c2.9-1.6 5.8-2.8 8.7-3.6c3-.8 5.8-1.3 8.6-1.6c2.9-.2 5.5-.4 7.9-.4c1.4 0 3.3 .1 5.8 .2c2.5 .1 5.1 .4 8 .8c2.9 .5 5.8 1.1 8.8 2.1c2.9 .9 5.5 2.2 7.9 3.8c1.1 .7 2.2 1.6 3.5 2.8c1.2 1.2 2.4 2.7 3.5 4.4c1.2 1.7 2.1 3.8 2.9 6.1c.9 2.3 1.3 5 1.4 8.1H876.6c-.1-1.9-.7-3.7-1.5-5.3c-.9-1.6-2.3-3-4.3-4.3c-2.1-1.3-4.3-2.2-6.6-2.5c-2.3-.4-4.4-.6-6.5-.6c-2.8 0-5.7 .3-8.6 1c-2.9 .7-5.6 2.4-8.2 5.1c-1.6 1.7-3 4.1-4.4 7.3c-1.4 3.1-2.1 7.2-2.1 12.4c0 5.1 .7 9.3 2.1 12.4c1.4 3.2 2.9 5.6 4.6 7.3c2.6 2.5 5.4 4.1 8.3 4.7c2.9 .7 5.7 1 8.4 1c1 0 2 0 3.2-.1c1.2 0 2.4-.1 3.6-.4c1.2-.2 2.4-.5 3.5-.9c1.2-.4 2.3-.9 3.3-1.6c1.2-.9 2.5-2.3 3.7-4.1c1.2-1.8 1.9-4.1 2.1-6.9h21.3ZM977 430.4v14.7H934.2v16.7H986v15.5H913.8V399.4h70.9V415H934.2v15.4H977Z" class="g2_8"/>
<g clip-path="url(#c0_8)">
<image preserveAspectRatio="none" x="0" y="133" width="1113" height="391" href="img/5.png"/>
<image preserveAspectRatio="none" x="910" y="457" width="121" height="107" href="img/6.png"/>
</g>
<g clip-path="url(#c2_8)">
<path d="M441.8 757.2H688.6v69.6H441.8V757.2Z" class="g1_8"/>
<path d="M441.8 757.2H688.7v69.6H441.8V757.2Z" class="g3_8"/>
</g>
<path d="M481.2 798.5H649.3v1.1H481.2v-1.1Z" class="g4_8"/>
<path clip-path="url(#c3_8)" d="M731.5 759.2H978.4v69.5H731.5V759.2Z" class="g1_8"/>
<path d="M773.1 800.4H937.6v1.2H773.1v-1.2Z" class="g4_8"/>
<path d="M538.8 880H1921.7V-41.9H538.8V880Z" class="g5_8"/>
<path d="M731.5 828.7h247V759.2h-247v69.5Z" class="g5_8"/>
<path d="M441.8 826.8H688.7V757.2H441.8v69.6Z" class="g5_8"/>
</svg>